<svg id="Layer_1" data-name="Layer 1" xmlns="http://www.w3.org/2000/svg" xmlns:xlink="http://www.w3.org/1999/xlink" viewBox="0 0 529.09 84.56"><defs><style>.cls-1,.cls-14{fill:none;}.cls-2{fill:url(#linear-gradient);}.cls-3{clip-path:url(#clip-path);}.cls-4{opacity:0.05;}.cls-5{fill:#3f582b;}.cls-6{opacity:0.04;}.cls-7{opacity:0.03;}.cls-8{opacity:0.02;}.cls-9{opacity:0.01;}.cls-10{opacity:0.2;}.cls-11,.cls-12{fill:#272722;}.cls-12{font-size:16px;font-family:Roboto-Bold, Roboto;font-weight:700;}.cls-13{font-size:12px;fill:#666662;font-family:Roboto-Regular, Roboto;}.cls-14{stroke:#b5222a;stroke-miterlimit:10;stroke-width:2px;}</style><linearGradient id="linear-gradient" x1="264.55" y1="4.56" x2="264.55" y2="84.56" gradientUnits="userSpaceOnUse"><stop offset="0" stop-color="#fff"/><stop offset="1" stop-color="#d7e4d8"/></linearGradient><clipPath id="clip-path" transform="translate(-35.55 -142.44)"><rect class="cls-1" x="100.1" y="147" width="400" height="80"/></clipPath></defs><rect class="cls-2" x="64.55" y="4.56" width="400" height="80"/><g class="cls-3"><g class="cls-4"><path class="cls-5" d="M456.72,185.43a77.39,77.39,0,0,1-26.26-4,86.62,86.62,0,0,0-51.91,0,87.71,87.71,0,0,1-52.5,0,76.68,76.68,0,0,0-26-4,76.63,76.63,0,0,0-26,4,77.28,77.28,0,0,1-26.25,4,77.32,77.32,0,0,1-26.25-4,76.61,76.61,0,0,0-25.95-4,76.63,76.63,0,0,0-26,4,77.28,77.28,0,0,1-26.25,4,77.28,77.28,0,0,1-26.25-4,76.63,76.63,0,0,0-26-4v-1a77.23,77.23,0,0,1,26.25,4,76.68,76.68,0,0,0,26,4,76.73,76.73,0,0,0,26-4,77.23,77.23,0,0,1,26.25-4,77.32,77.32,0,0,1,26.25,4,76.66,76.66,0,0,0,25.95,4,76.68,76.68,0,0,0,26-4,77.23,77.23,0,0,1,26.25-4,77.23,77.23,0,0,1,26.25,4,86.83,86.83,0,0,0,51.91,0,87.54,87.54,0,0,1,52.51,0,86.86,86.86,0,0,0,51.92,0,77.23,77.23,0,0,1,26.25-4v1a76.63,76.63,0,0,0-26,4A77.28,77.28,0,0,1,456.72,185.43Z" transform="translate(-35.55 -142.44)"/></g><g class="cls-4"><path class="cls-5" d="M456.72,178.63a77.39,77.39,0,0,1-26.26-4,86.62,86.62,0,0,0-51.91,0,87.71,87.71,0,0,1-52.5,0,76.68,76.68,0,0,0-26-4,76.63,76.63,0,0,0-26,4,77.28,77.28,0,0,1-26.25,4,77.32,77.32,0,0,1-26.25-4,76.61,76.61,0,0,0-25.95-4,76.63,76.63,0,0,0-26,4,77.28,77.28,0,0,1-26.25,4,77.28,77.28,0,0,1-26.25-4,76.63,76.63,0,0,0-26-4v-1a77.23,77.23,0,0,1,26.25,4,76.68,76.68,0,0,0,26,4,76.73,76.73,0,0,0,26-4,77.23,77.23,0,0,1,26.25-4,77.32,77.32,0,0,1,26.25,4,76.66,76.66,0,0,0,25.95,4,76.68,76.68,0,0,0,26-4,77.23,77.23,0,0,1,26.25-4,77.23,77.23,0,0,1,26.25,4,86.83,86.83,0,0,0,51.91,0,87.54,87.54,0,0,1,52.51,0,86.86,86.86,0,0,0,51.92,0,77.23,77.23,0,0,1,26.25-4v1a76.63,76.63,0,0,0-26,4A77.28,77.28,0,0,1,456.72,178.63Z" transform="translate(-35.55 -142.44)"/></g><g class="cls-6"><path class="cls-5" d="M456.72,171.83a77.39,77.39,0,0,1-26.26-4,86.62,86.62,0,0,0-51.91,0,87.71,87.71,0,0,1-52.5,0,76.68,76.68,0,0,0-26-4,76.63,76.63,0,0,0-26,4,77.28,77.28,0,0,1-26.25,4,77.32,77.32,0,0,1-26.25-4,76.61,76.61,0,0,0-25.95-4,76.63,76.63,0,0,0-26,4,77.28,77.28,0,0,1-26.25,4,77.28,77.28,0,0,1-26.25-4,76.63,76.63,0,0,0-26-4v-1a77.23,77.23,0,0,1,26.25,4,76.68,76.68,0,0,0,26,4,76.73,76.73,0,0,0,26-4,77.23,77.23,0,0,1,26.25-4,77.32,77.32,0,0,1,26.25,4,76.66,76.66,0,0,0,25.95,4,76.68,76.68,0,0,0,26-4,77.23,77.23,0,0,1,26.25-4,77.23,77.23,0,0,1,26.25,4,86.83,86.83,0,0,0,51.91,0,87.54,87.54,0,0,1,52.51,0,86.86,86.86,0,0,0,51.92,0,77.23,77.23,0,0,1,26.25-4v1a76.63,76.63,0,0,0-26,4A77.28,77.28,0,0,1,456.72,171.83Z" transform="translate(-35.55 -142.44)"/></g><g class="cls-7"><path class="cls-5" d="M456.72,165a77.39,77.39,0,0,1-26.26-4,86.62,86.62,0,0,0-51.91,0,87.71,87.71,0,0,1-52.5,0,76.68,76.68,0,0,0-26-4,76.63,76.63,0,0,0-26,4,77.28,77.28,0,0,1-26.25,4,77.32,77.32,0,0,1-26.25-4,76.61,76.61,0,0,0-25.95-4,76.63,76.63,0,0,0-26,4,77.28,77.28,0,0,1-26.25,4,77.28,77.28,0,0,1-26.25-4,76.63,76.63,0,0,0-26-4v-1a77.23,77.23,0,0,1,26.25,4,76.68,76.68,0,0,0,26,4,76.73,76.73,0,0,0,26-4,77.23,77.23,0,0,1,26.25-4,77.32,77.32,0,0,1,26.25,4,76.66,76.66,0,0,0,25.95,4,76.68,76.68,0,0,0,26-4,77.23,77.23,0,0,1,26.25-4,77.23,77.23,0,0,1,26.25,4,86.83,86.83,0,0,0,51.91,0,87.54,87.54,0,0,1,52.51,0,86.86,86.86,0,0,0,51.92,0,77.23,77.23,0,0,1,26.25-4v1a76.63,76.63,0,0,0-26,4A77.28,77.28,0,0,1,456.72,165Z" transform="translate(-35.55 -142.44)"/></g><g class="cls-8"><path class="cls-5" d="M456.72,158.24a77.34,77.34,0,0,1-26.26-4,86.83,86.83,0,0,0-51.91,0,87.51,87.51,0,0,1-52.5,0,76.73,76.73,0,0,0-26-4,76.68,76.68,0,0,0-26,4,77.23,77.23,0,0,1-26.25,4,77.27,77.27,0,0,1-26.25-4,76.66,76.66,0,0,0-25.95-4,76.68,76.68,0,0,0-26,4,77.23,77.23,0,0,1-26.25,4,77.23,77.23,0,0,1-26.25-4,76.68,76.68,0,0,0-26-4v-1a77.28,77.28,0,0,1,26.25,4,76.63,76.63,0,0,0,26,4,76.68,76.68,0,0,0,26-4,77.28,77.28,0,0,1,26.25-4,77.37,77.37,0,0,1,26.25,4,76.61,76.61,0,0,0,25.95,4,76.63,76.63,0,0,0,26-4,77.28,77.28,0,0,1,26.25-4,77.28,77.28,0,0,1,26.25,4,86.62,86.62,0,0,0,51.91,0,87.75,87.75,0,0,1,52.51,0,86.65,86.65,0,0,0,51.92,0,77.28,77.28,0,0,1,26.25-4v1a76.68,76.68,0,0,0-26,4A77.23,77.23,0,0,1,456.72,158.24Z" transform="translate(-35.55 -142.44)"/></g><g class="cls-9"><path class="cls-5" d="M456.72,151.44a77.34,77.34,0,0,1-26.26-4,86.83,86.83,0,0,0-51.91,0,87.51,87.51,0,0,1-52.5,0,76.73,76.73,0,0,0-26-4,76.68,76.68,0,0,0-26,4,77.23,77.23,0,0,1-26.25,4,77.27,77.27,0,0,1-26.25-4,76.66,76.66,0,0,0-25.95-4,76.68,76.68,0,0,0-26,4,77.23,77.23,0,0,1-26.25,4,77.23,77.23,0,0,1-26.25-4,76.68,76.68,0,0,0-26-4v-1a77.28,77.28,0,0,1,26.25,4,76.63,76.63,0,0,0,26,4,76.68,76.68,0,0,0,26-4,77.28,77.28,0,0,1,26.25-4,77.37,77.37,0,0,1,26.25,4,76.61,76.61,0,0,0,25.95,4,76.63,76.63,0,0,0,26-4,77.28,77.28,0,0,1,26.25-4,77.28,77.28,0,0,1,26.25,4,86.62,86.62,0,0,0,51.91,0,87.75,87.75,0,0,1,52.51,0,86.65,86.65,0,0,0,51.92,0,77.28,77.28,0,0,1,26.25-4v1a76.68,76.68,0,0,0-26,4A77.23,77.23,0,0,1,456.72,151.44Z" transform="translate(-35.55 -142.44)"/></g><g class="cls-4"><path class="cls-5" d="M456.72,226.23a77.39,77.39,0,0,1-26.26-4,86.62,86.62,0,0,0-51.91,0,87.71,87.71,0,0,1-52.5,0,76.43,76.43,0,0,0-26-4,76.38,76.38,0,0,0-26,4,77.28,77.28,0,0,1-26.25,4,77.32,77.32,0,0,1-26.25-4,76.36,76.36,0,0,0-25.95-4,76.38,76.38,0,0,0-26,4,77.28,77.28,0,0,1-26.25,4,77.28,77.28,0,0,1-26.25-4,76.38,76.38,0,0,0-26-4v-1a77.53,77.53,0,0,1,26.25,4,76.38,76.38,0,0,0,26,4,76.43,76.43,0,0,0,26-4,77.53,77.53,0,0,1,26.25-4,77.62,77.62,0,0,1,26.25,4,76.36,76.36,0,0,0,25.95,4,76.38,76.38,0,0,0,26-4,77.53,77.53,0,0,1,26.25-4,77.53,77.53,0,0,1,26.25,4,86.62,86.62,0,0,0,51.91,0,87.75,87.75,0,0,1,52.51,0,86.65,86.65,0,0,0,51.92,0,77.53,77.53,0,0,1,26.25-4v1a76.38,76.38,0,0,0-26,4A77.28,77.28,0,0,1,456.72,226.23Z" transform="translate(-35.55 -142.44)"/></g><g class="cls-4"><path class="cls-5" d="M456.72,219.43a77.39,77.39,0,0,1-26.26-4,86.62,86.62,0,0,0-51.91,0,87.71,87.71,0,0,1-52.5,0,76.43,76.43,0,0,0-26-4,76.38,76.38,0,0,0-26,4,77.28,77.28,0,0,1-26.25,4,77.32,77.32,0,0,1-26.25-4,76.36,76.36,0,0,0-25.95-4,76.38,76.38,0,0,0-26,4,77.28,77.28,0,0,1-26.25,4,77.28,77.28,0,0,1-26.25-4,76.38,76.38,0,0,0-26-4v-1a77.53,77.53,0,0,1,26.25,4,76.38,76.38,0,0,0,26,4,76.43,76.43,0,0,0,26-4,77.53,77.53,0,0,1,26.25-4,77.62,77.62,0,0,1,26.25,4,76.36,76.36,0,0,0,25.95,4,76.38,76.38,0,0,0,26-4,77.53,77.53,0,0,1,26.25-4,77.53,77.53,0,0,1,26.25,4,86.62,86.62,0,0,0,51.91,0,87.75,87.75,0,0,1,52.51,0,86.65,86.65,0,0,0,51.92,0,77.53,77.53,0,0,1,26.25-4v1a76.38,76.38,0,0,0-26,4A77.28,77.28,0,0,1,456.72,219.43Z" transform="translate(-35.55 -142.44)"/></g><g class="cls-4"><path class="cls-5" d="M456.72,212.63a77.39,77.39,0,0,1-26.26-4,86.62,86.62,0,0,0-51.91,0,87.71,87.71,0,0,1-52.5,0,76.43,76.43,0,0,0-26-4,76.38,76.38,0,0,0-26,4,77.28,77.28,0,0,1-26.25,4,77.32,77.32,0,0,1-26.25-4,76.36,76.36,0,0,0-25.95-4,76.38,76.38,0,0,0-26,4,77.28,77.28,0,0,1-26.25,4,77.28,77.28,0,0,1-26.25-4,76.38,76.38,0,0,0-26-4v-1a77.53,77.53,0,0,1,26.25,4,76.38,76.38,0,0,0,26,4,76.43,76.43,0,0,0,26-4,77.53,77.53,0,0,1,26.25-4,77.62,77.62,0,0,1,26.25,4,76.36,76.36,0,0,0,25.95,4,76.38,76.38,0,0,0,26-4,77.53,77.53,0,0,1,26.25-4,77.53,77.53,0,0,1,26.25,4,86.62,86.62,0,0,0,51.91,0,87.75,87.75,0,0,1,52.51,0,86.65,86.65,0,0,0,51.92,0,77.53,77.53,0,0,1,26.25-4v1a76.38,76.38,0,0,0-26,4A77.28,77.28,0,0,1,456.72,212.63Z" transform="translate(-35.55 -142.44)"/></g><g class="cls-4"><path class="cls-5" d="M456.72,205.83a77.39,77.39,0,0,1-26.26-4,86.62,86.62,0,0,0-51.91,0,87.71,87.71,0,0,1-52.5,0,76.43,76.43,0,0,0-26-4,76.38,76.38,0,0,0-26,4,77.28,77.28,0,0,1-26.25,4,77.32,77.32,0,0,1-26.25-4,76.36,76.36,0,0,0-25.95-4,76.38,76.38,0,0,0-26,4,77.28,77.28,0,0,1-26.25,4,77.28,77.28,0,0,1-26.25-4,76.38,76.38,0,0,0-26-4v-1a77.53,77.53,0,0,1,26.25,4,76.38,76.38,0,0,0,26,4,76.43,76.43,0,0,0,26-4,77.53,77.53,0,0,1,26.25-4,77.62,77.62,0,0,1,26.25,4,76.36,76.36,0,0,0,25.95,4,76.38,76.38,0,0,0,26-4,77.53,77.53,0,0,1,26.25-4,77.53,77.53,0,0,1,26.25,4,86.62,86.62,0,0,0,51.91,0,87.75,87.75,0,0,1,52.51,0,86.65,86.65,0,0,0,51.92,0,77.53,77.53,0,0,1,26.25-4v1a76.38,76.38,0,0,0-26,4A77.28,77.28,0,0,1,456.72,205.83Z" transform="translate(-35.55 -142.44)"/></g><g class="cls-4"><path class="cls-5" d="M456.72,199a77.39,77.39,0,0,1-26.26-4,86.62,86.62,0,0,0-51.91,0,87.71,87.71,0,0,1-52.5,0,76.68,76.68,0,0,0-26-4,76.63,76.63,0,0,0-26,4,77.28,77.28,0,0,1-26.25,4,77.32,77.32,0,0,1-26.25-4,76.61,76.61,0,0,0-25.95-4,76.63,76.63,0,0,0-26,4,77.28,77.28,0,0,1-26.25,4,77.28,77.28,0,0,1-26.25-4,76.63,76.63,0,0,0-26-4v-1a77.53,77.53,0,0,1,26.25,4,76.38,76.38,0,0,0,26,4,76.43,76.43,0,0,0,26-4,77.53,77.53,0,0,1,26.25-4,77.62,77.62,0,0,1,26.25,4,76.36,76.36,0,0,0,25.95,4,76.38,76.38,0,0,0,26-4,77.53,77.53,0,0,1,26.25-4,77.53,77.53,0,0,1,26.25,4,86.62,86.62,0,0,0,51.91,0,87.75,87.75,0,0,1,52.51,0,86.65,86.65,0,0,0,51.92,0,77.53,77.53,0,0,1,26.25-4v1a76.63,76.63,0,0,0-26,4A77.28,77.28,0,0,1,456.72,199Z" transform="translate(-35.55 -142.44)"/></g><g class="cls-4"><path class="cls-5" d="M456.72,192.23a77.39,77.39,0,0,1-26.26-4,86.62,86.62,0,0,0-51.91,0,87.71,87.71,0,0,1-52.5,0,76.68,76.68,0,0,0-26-4,76.63,76.63,0,0,0-26,4,77.28,77.28,0,0,1-26.25,4,77.32,77.32,0,0,1-26.25-4,76.61,76.61,0,0,0-25.95-4,76.63,76.63,0,0,0-26,4,77.28,77.28,0,0,1-26.25,4,77.28,77.28,0,0,1-26.25-4,76.63,76.63,0,0,0-26-4v-1a77.23,77.23,0,0,1,26.25,4,76.68,76.68,0,0,0,26,4,76.73,76.73,0,0,0,26-4,77.23,77.23,0,0,1,26.25-4,77.32,77.32,0,0,1,26.25,4,76.66,76.66,0,0,0,25.95,4,76.68,76.68,0,0,0,26-4,77.23,77.23,0,0,1,26.25-4,77.23,77.23,0,0,1,26.25,4,86.83,86.83,0,0,0,51.91,0,87.54,87.54,0,0,1,52.51,0,86.86,86.86,0,0,0,51.92,0,77.23,77.23,0,0,1,26.25-4v1a76.63,76.63,0,0,0-26,4A77.28,77.28,0,0,1,456.72,192.23Z" transform="translate(-35.55 -142.44)"/></g><g class="cls-10"><rect class="cls-5" x="244.2" y="78.22" width="20.35" height="0.34"/><path class="cls-5" d="M284,215.16v0a3.91,3.91,0,0,1-.63.71c-.76.75-1.8,1.77-1.8,2.71v.17h1a.67.67,0,0,0,.71-.73H283a.44.44,0,0,1-.1.29.36.36,0,0,1-.28.1h-.66a5.61,5.61,0,0,1,1.67-2.29l.41-.41v3.43a.39.39,0,0,1-.11.27.36.36,0,0,1-.28.12h-3.86v.35h3.86a.73.73,0,0,0,.72-.73v-4Z" transform="translate(-35.55 -142.44)"/><path class="cls-5" d="M279.75,211.18h3.38c.36,0,.6,0,.71.11s.15.38.15.87c0,1.39-.16,1.56-1.24,2.65l-.3.3a9.35,9.35,0,0,0-1.74,2.18v-5h1.91a.2.2,0,0,1,.15.06.21.21,0,0,1,.07.16,2.18,2.18,0,0,1-1,1.61l-.13.11v-.65h-.33v1.16h.33c0-.07.2-.24.34-.36a2.47,2.47,0,0,0,1.08-1.87.59.59,0,0,0-.16-.4.56.56,0,0,0-.39-.17h-2.24v6.66h.33c0-1,.71-1.91,2-3.21l.3-.3c1.09-1.1,1.34-1.36,1.34-2.89,0-.61-.07-.93-.25-1.11s-.51-.22-.94-.22h-3.38Z" transform="translate(-35.55 -142.44)"/><path class="cls-5" d="M295.57,219.12a.76.76,0,0,0,.21.52.72.72,0,0,0,.51.22h3.81v-.35h-3.81a.38.38,0,0,1-.39-.39v-3.43c.11.11.24.25.41.41a5.58,5.58,0,0,1,1.67,2.29h-.65a.4.4,0,0,1-.29-.09.45.45,0,0,1-.09-.3h-.33a.74.74,0,0,0,.19.54.68.68,0,0,0,.52.19h1v-.17c0-.94-1-2-1.79-2.71a4.57,4.57,0,0,1-.64-.7h-.33Z" transform="translate(-35.55 -142.44)"/><path class="cls-5" d="M296.91,215.05l.3.31c1.26,1.29,2,2.18,2,3.2h.33V211.9h-2.23a.55.55,0,0,0-.55.56,2.44,2.44,0,0,0,1.07,1.87c.14.12.34.29.34.36h.33v-1.16h-.34v.65s-1.08-.94-1.08-1.72a.22.22,0,0,1,.22-.22h1.9v5a9.35,9.35,0,0,0-1.74-2.18l-.3-.3c-1.07-1.09-1.24-1.26-1.24-2.64,0-.5.05-.77.16-.88s.34-.11.7-.11h3.34v-.35h-3.34c-.42,0-.73,0-.94.21s-.25.5-.25,1.12C295.57,213.69,295.83,214,296.91,215.05Z" transform="translate(-35.55 -142.44)"/><path class="cls-5" d="M294.17,215.14a4.09,4.09,0,0,1-.64.71c-.75.75-1.79,1.77-1.79,2.71v.17h1a.66.66,0,0,0,.71-.73h-.33a.43.43,0,0,1-.09.29.37.37,0,0,1-.29.1h-.65a5.46,5.46,0,0,1,1.67-2.29l.41-.41v3.43a.39.39,0,0,1-.11.27.39.39,0,0,1-.28.12H286a.41.41,0,0,1-.28-.11.43.43,0,0,1-.11-.28v-3.43c.11.11.24.25.41.41a5.58,5.58,0,0,1,1.67,2.29h-.65a.4.4,0,0,1-.29-.09.45.45,0,0,1-.09-.3h-.34a.75.75,0,0,0,.2.54.68.68,0,0,0,.52.19h1v-.17c0-.94-1-2-1.79-2.71-.27-.27-.64-.7-.64-.69h-.33v4a.76.76,0,0,0,.21.52.7.7,0,0,0,.51.22h7.76a.73.73,0,0,0,.72-.73v-4Z" transform="translate(-35.55 -142.44)"/><path class="cls-5" d="M286.64,215.05l.3.31c1.26,1.29,1.95,2.18,2,3.2h.33V211.9H287a.55.55,0,0,0-.39.16.56.56,0,0,0-.17.4,2.45,2.45,0,0,0,1.08,1.87c.14.12.34.29.34.36h.33v-1.16h-.33v.65l-.13-.11a2.17,2.17,0,0,1-.95-1.61.22.22,0,0,1,.22-.22h1.9v5a9.35,9.35,0,0,0-1.74-2.18l-.3-.3c-1.07-1.09-1.24-1.26-1.24-2.64,0-.5.05-.77.16-.88s.34-.11.7-.11h6.82c.36,0,.6,0,.71.11a1.48,1.48,0,0,1,.15.87c0,1.39-.17,1.56-1.24,2.65l-.3.3a9.35,9.35,0,0,0-1.74,2.18v-5h1.9a.23.23,0,0,1,.16.06.25.25,0,0,1,.06.16,2.17,2.17,0,0,1-.95,1.61l-.13.11v-.65h-.33v1.16h.33c0-.07.2-.24.34-.36a2.47,2.47,0,0,0,1.08-1.87.59.59,0,0,0-.16-.4.56.56,0,0,0-.4-.17h-2.23v6.66h.33c0-1,.71-1.91,2-3.21l.3-.3c1.08-1.1,1.34-1.36,1.34-2.89,0-.61-.07-.93-.25-1.11s-.51-.22-.94-.22h-6.82c-.42,0-.73,0-.94.21s-.25.5-.25,1.12C285.3,213.69,285.56,214,286.64,215.05Z" transform="translate(-35.55 -142.44)"/><rect class="cls-5" x="223.85" y="78.22" width="20.35" height="0.34"/><path class="cls-5" d="M263.64,215.16v0a3.54,3.54,0,0,1-.63.71c-.76.75-1.8,1.77-1.8,2.71v.17h1a.67.67,0,0,0,.71-.73h-.33a.44.44,0,0,1-.1.29.34.34,0,0,1-.28.1h-.66a5.61,5.61,0,0,1,1.67-2.29l.41-.41v3.43a.39.39,0,0,1-.11.27.36.36,0,0,1-.28.12h-3.86v.35h3.86a.73.73,0,0,0,.72-.73v-4Z" transform="translate(-35.55 -142.44)"/><path class="cls-5" d="M259.4,211.18h3.39c.35,0,.59,0,.7.11s.15.38.15.87c0,1.39-.16,1.56-1.24,2.65l-.3.3a9.62,9.62,0,0,0-1.74,2.18v-5h1.91a.21.21,0,0,1,.22.22,2.15,2.15,0,0,1-1,1.61l-.13.11v-.65h-.33v1.16h.33c0-.07.2-.24.34-.36a2.47,2.47,0,0,0,1.08-1.87.59.59,0,0,0-.16-.4.54.54,0,0,0-.39-.17H260v6.66h.33c0-1,.71-1.91,2-3.21l.3-.3c1.09-1.1,1.34-1.36,1.34-2.89,0-.61-.07-.93-.25-1.11s-.51-.22-.93-.22H259.4Z" transform="translate(-35.55 -142.44)"/><path class="cls-5" d="M275.22,219.12a.76.76,0,0,0,.21.52.72.72,0,0,0,.51.22h3.81v-.35h-3.81a.38.38,0,0,1-.39-.39v-3.43l.41.41a5.49,5.49,0,0,1,1.67,2.29H277a.4.4,0,0,1-.29-.09.45.45,0,0,1-.09-.3h-.33a.74.74,0,0,0,.19.54.68.68,0,0,0,.52.19h1v-.17c0-.94-1-2-1.79-2.71a4.57,4.57,0,0,1-.64-.7h-.33Z" transform="translate(-35.55 -142.44)"/><path class="cls-5" d="M276.56,215.05l.3.31c1.27,1.29,1.95,2.18,2,3.2h.33V211.9h-2.23a.55.55,0,0,0-.55.56,2.44,2.44,0,0,0,1.07,1.87c.14.12.34.29.35.36h.33v-1.16h-.33v.65c-.05,0-1.09-.94-1.09-1.72a.22.22,0,0,1,.22-.22h1.9v5a9.35,9.35,0,0,0-1.74-2.18l-.3-.3c-1.07-1.09-1.24-1.26-1.24-2.64,0-.5.05-.77.16-.88s.34-.11.7-.11h3.34v-.35h-3.34c-.42,0-.73,0-.94.21s-.25.5-.25,1.12C275.22,213.69,275.48,214,276.56,215.05Z" transform="translate(-35.55 -142.44)"/><path class="cls-5" d="M273.82,215.14a4.09,4.09,0,0,1-.64.71c-.75.75-1.79,1.77-1.79,2.71v.17h1a.66.66,0,0,0,.71-.73h-.33a.43.43,0,0,1-.09.29.37.37,0,0,1-.29.1h-.65a5.55,5.55,0,0,1,1.67-2.29l.41-.41v3.43a.39.39,0,0,1-.11.27.38.38,0,0,1-.28.12h-7.76a.38.38,0,0,1-.39-.39v-3.43l.41.41a5.58,5.58,0,0,1,1.67,2.29h-.65a.4.4,0,0,1-.29-.09.45.45,0,0,1-.09-.3H266a.74.74,0,0,0,.19.54.68.68,0,0,0,.52.19h1v-.17c0-.94-1-2-1.79-2.71-.27-.27-.64-.7-.64-.69H265v4a.76.76,0,0,0,.21.52.72.72,0,0,0,.51.22h7.76a.73.73,0,0,0,.72-.73v-4Z" transform="translate(-35.55 -142.44)"/><path class="cls-5" d="M266.29,215.05l.3.31c1.27,1.29,2,2.18,2,3.2h.33V211.9h-2.23a.55.55,0,0,0-.55.56,2.44,2.44,0,0,0,1.07,1.87c.14.12.34.29.34.36h.34v-1.16h-.34v.65l-.13-.11a2.17,2.17,0,0,1-.95-1.61.22.22,0,0,1,.22-.22h1.9v5a9.35,9.35,0,0,0-1.74-2.18l-.3-.3c-1.07-1.09-1.24-1.26-1.24-2.64,0-.5.05-.77.16-.88s.34-.11.7-.11H273c.36,0,.6,0,.71.11a1.48,1.48,0,0,1,.15.87c0,1.39-.16,1.56-1.24,2.65l-.3.3a9.35,9.35,0,0,0-1.74,2.18v-5h1.9a.23.23,0,0,1,.16.06.26.26,0,0,1,.07.16,2.18,2.18,0,0,1-1,1.61l-.13.11v-.65h-.33v1.16h.33c0-.07.2-.24.34-.36a2.47,2.47,0,0,0,1.08-1.87.59.59,0,0,0-.16-.4.56.56,0,0,0-.39-.17h-2.24v6.66h.33c0-1,.71-1.91,2-3.21l.3-.3c1.08-1.1,1.34-1.36,1.34-2.89,0-.61-.07-.93-.25-1.11s-.51-.22-.94-.22h-6.82c-.42,0-.73,0-.94.21s-.25.5-.25,1.12C265,213.69,265.21,214,266.29,215.05Z" transform="translate(-35.55 -142.44)"/><rect class="cls-5" x="203.5" y="78.22" width="20.35" height="0.34"/><path class="cls-5" d="M243.29,215.16v0a3.54,3.54,0,0,1-.63.71c-.76.75-1.79,1.77-1.79,2.71v.17h1a.67.67,0,0,0,.71-.73h-.33a.4.4,0,0,1-.1.29.34.34,0,0,1-.28.1h-.66a5.55,5.55,0,0,1,1.68-2.29l.4-.41v3.43a.39.39,0,0,1-.11.27.36.36,0,0,1-.28.12H239v.35h3.86a.73.73,0,0,0,.72-.73v-4Z" transform="translate(-35.55 -142.44)"/><path class="cls-5" d="M239.05,211.18h3.39c.35,0,.59,0,.7.11s.15.38.15.87c0,1.39-.16,1.56-1.24,2.65l-.3.3a9.62,9.62,0,0,0-1.74,2.18v-5h1.9a.21.21,0,0,1,.22.22,2.15,2.15,0,0,1-1,1.61l-.13.11v-.65h-.33v1.16h.33c0-.07.2-.24.34-.36a2.47,2.47,0,0,0,1.08-1.87.59.59,0,0,0-.16-.4.52.52,0,0,0-.39-.17h-2.24v6.66H240c0-1,.71-1.91,2-3.21l.3-.3c1.09-1.1,1.34-1.36,1.35-2.89,0-.61-.08-.93-.26-1.11s-.51-.22-.93-.22h-3.39Z" transform="translate(-35.55 -142.44)"/><path class="cls-5" d="M254.87,219.12a.76.76,0,0,0,.21.52.72.72,0,0,0,.51.22h3.81v-.35h-3.81a.39.39,0,0,1-.27-.11.39.39,0,0,1-.12-.28v-3.43l.41.41a5.61,5.61,0,0,1,1.68,2.29h-.66a.4.4,0,0,1-.29-.09.45.45,0,0,1-.09-.3h-.33a.79.79,0,0,0,.19.54.68.68,0,0,0,.52.19h1v-.17c0-.94-1-2-1.79-2.71a4.57,4.57,0,0,1-.64-.7h-.33Z" transform="translate(-35.55 -142.44)"/><path class="cls-5" d="M256.21,215.05l.3.31c1.27,1.29,2,2.18,2,3.2h.33V211.9h-2.23a.55.55,0,0,0-.55.56,2.44,2.44,0,0,0,1.07,1.87c.14.12.34.29.35.36h.33v-1.16h-.33v.65s-1.09-.94-1.09-1.72a.22.22,0,0,1,.22-.22h1.9v5a9.54,9.54,0,0,0-1.73-2.18l-.31-.3c-1.07-1.09-1.24-1.26-1.24-2.64,0-.5.05-.77.16-.88s.34-.11.7-.11h3.34v-.35h-3.34c-.42,0-.73,0-.94.21s-.25.5-.25,1.12C254.87,213.69,255.13,214,256.21,215.05Z" transform="translate(-35.55 -142.44)"/><path class="cls-5" d="M253.47,215.14a3.91,3.91,0,0,1-.63.71c-.76.75-1.8,1.77-1.8,2.71v.17h1a.67.67,0,0,0,.71-.73h-.33a.44.44,0,0,1-.1.29.36.36,0,0,1-.28.1h-.66a5.55,5.55,0,0,1,1.67-2.29l.41-.41v3.43a.39.39,0,0,1-.11.27.36.36,0,0,1-.28.12h-7.76a.38.38,0,0,1-.39-.39v-3.43l.41.41a5.49,5.49,0,0,1,1.67,2.29h-.65a.4.4,0,0,1-.29-.09.45.45,0,0,1-.09-.3h-.33a.74.74,0,0,0,.19.54.68.68,0,0,0,.52.19h1v-.17c0-.94-1-2-1.79-2.71-.27-.27-.64-.7-.64-.69h-.33v4a.76.76,0,0,0,.21.52.72.72,0,0,0,.51.22h7.76a.73.73,0,0,0,.72-.73v-4Z" transform="translate(-35.55 -142.44)"/><path class="cls-5" d="M245.94,215.05l.3.31c1.27,1.29,1.95,2.18,2,3.2h.33V211.9h-2.23a.55.55,0,0,0-.55.56,2.44,2.44,0,0,0,1.07,1.87c.14.12.34.29.35.36h.33v-1.16h-.33v.65l-.14-.11a2.17,2.17,0,0,1-.95-1.61.22.22,0,0,1,.22-.22h1.9v5a9.54,9.54,0,0,0-1.73-2.18l-.31-.3c-1.07-1.09-1.24-1.26-1.24-2.64,0-.5,0-.77.16-.88s.34-.11.7-.11h6.82c.36,0,.6,0,.71.11a1.48,1.48,0,0,1,.15.87c0,1.39-.16,1.56-1.24,2.65l-.3.3a9.35,9.35,0,0,0-1.74,2.18v-5h1.9a.21.21,0,0,1,.16.06.26.26,0,0,1,.07.16,2.18,2.18,0,0,1-1,1.61l-.13.11v-.65h-.33v1.16h.33c0-.07.2-.24.34-.36a2.47,2.47,0,0,0,1.08-1.87.59.59,0,0,0-.16-.4.56.56,0,0,0-.39-.17h-2.24v6.66h.33c0-1,.71-1.91,2-3.21l.3-.3c1.09-1.1,1.34-1.36,1.34-2.89,0-.61-.07-.93-.25-1.11s-.51-.22-.94-.22h-6.82c-.42,0-.73,0-.94.21s-.25.5-.25,1.12C244.6,213.69,244.86,214,245.94,215.05Z" transform="translate(-35.55 -142.44)"/><rect class="cls-5" x="183.15" y="78.22" width="20.35" height="0.34"/><path class="cls-5" d="M222.94,215.16v0a3.54,3.54,0,0,1-.63.71c-.76.75-1.79,1.77-1.79,2.71v.17h1a.67.67,0,0,0,.71-.73h-.33a.4.4,0,0,1-.1.29.34.34,0,0,1-.28.1h-.66a5.55,5.55,0,0,1,1.68-2.29l.4-.41v3.43a.39.39,0,0,1-.11.27.36.36,0,0,1-.27.12h-3.87v.35h3.87a.72.72,0,0,0,.71-.73v-4Z" transform="translate(-35.55 -142.44)"/><path class="cls-5" d="M218.7,211.18h3.39c.36,0,.59,0,.7.11s.16.38.16.87c0,1.39-.17,1.56-1.25,2.65l-.3.3a9.27,9.27,0,0,0-1.73,2.18v-5h1.9a.23.23,0,0,1,.16.06.25.25,0,0,1,.06.16,2.15,2.15,0,0,1-1,1.61l-.13.11v-.65h-.33v1.16h.33c0-.07.2-.24.35-.36a2.49,2.49,0,0,0,1.07-1.87.59.59,0,0,0-.16-.4.52.52,0,0,0-.39-.17h-2.23v6.66h.34c0-1,.7-1.91,2-3.21l.3-.3c1.08-1.1,1.34-1.36,1.34-2.89,0-.61-.07-.93-.25-1.11s-.52-.22-.94-.22H218.7Z" transform="translate(-35.55 -142.44)"/><path class="cls-5" d="M234.53,219.12a.75.75,0,0,0,.2.52.72.72,0,0,0,.51.22h3.81v-.35h-3.81a.39.39,0,0,1-.27-.11.43.43,0,0,1-.11-.28v-3.43l.4.41a5.61,5.61,0,0,1,1.68,2.29h-.66a.42.42,0,0,1-.29-.09.45.45,0,0,1-.09-.3h-.33a.79.79,0,0,0,.19.54.69.69,0,0,0,.52.19h1v-.17c0-.94-1-2-1.79-2.71a3.89,3.89,0,0,1-.63-.7h-.33Z" transform="translate(-35.55 -142.44)"/><path class="cls-5" d="M235.86,215.05l.3.31c1.27,1.29,2,2.18,2,3.2h.33V211.9h-2.23a.55.55,0,0,0-.39.16.59.59,0,0,0-.16.4,2.47,2.47,0,0,0,1.07,1.87c.15.12.34.29.35.36h.33v-1.16h-.33v.65s-1.09-.94-1.09-1.72a.22.22,0,0,1,.22-.22h1.9v5a9.27,9.27,0,0,0-1.73-2.18l-.31-.3c-1.07-1.09-1.24-1.26-1.23-2.64,0-.5,0-.77.15-.88s.35-.11.7-.11h3.34v-.35h-3.34c-.42,0-.73,0-.93.21s-.26.5-.26,1.12C234.52,213.69,234.78,214,235.86,215.05Z" transform="translate(-35.55 -142.44)"/><path class="cls-5" d="M233.12,215.14a3.91,3.91,0,0,1-.63.71c-.76.75-1.8,1.77-1.8,2.71v.17h1a.67.67,0,0,0,.71-.73h-.33a.44.44,0,0,1-.1.29.36.36,0,0,1-.28.1H231a5.55,5.55,0,0,1,1.67-2.29l.41-.41v3.43a.39.39,0,0,1-.11.27.36.36,0,0,1-.28.12H225a.38.38,0,0,1-.38-.39v-3.43l.4.41a5.61,5.61,0,0,1,1.68,2.29H226a.42.42,0,0,1-.29-.09.45.45,0,0,1-.09-.3h-.33a.79.79,0,0,0,.19.54.69.69,0,0,0,.52.19h1v-.17c0-.94-1-2-1.79-2.71-.27-.27-.63-.7-.63-.69h-.34v4a.76.76,0,0,0,.21.52.72.72,0,0,0,.51.22h7.76a.73.73,0,0,0,.72-.73v-4Z" transform="translate(-35.55 -142.44)"/><path class="cls-5" d="M225.59,215.05l.3.31c1.27,1.29,2,2.18,2,3.2h.33V211.9H226a.55.55,0,0,0-.39.16.59.59,0,0,0-.16.4,2.47,2.47,0,0,0,1.07,1.87c.14.12.34.29.35.36h.33v-1.16h-.33v.65l-.13-.11a2.15,2.15,0,0,1-1-1.61.22.22,0,0,1,.22-.22h1.9v5a9.27,9.27,0,0,0-1.73-2.18l-.31-.3c-1.07-1.09-1.24-1.26-1.24-2.64,0-.5,0-.77.16-.88s.35-.11.7-.11h6.82c.36,0,.6,0,.71.11s.15.38.15.87c0,1.39-.16,1.56-1.24,2.65l-.3.3a9.62,9.62,0,0,0-1.74,2.18v-5h1.91a.2.2,0,0,1,.15.06.21.21,0,0,1,.07.16,2.15,2.15,0,0,1-1,1.61l-.13.11v-.65h-.33v1.16h.33c0-.07.2-.24.34-.36a2.47,2.47,0,0,0,1.08-1.87.59.59,0,0,0-.16-.4.54.54,0,0,0-.39-.17h-2.24v6.66h.33c0-1,.71-1.91,2-3.21l.3-.3c1.09-1.1,1.34-1.36,1.34-2.89,0-.61-.07-.93-.25-1.11s-.51-.22-.94-.22h-6.82c-.42,0-.73,0-.93.21s-.26.5-.26,1.12C224.25,213.69,224.51,214,225.59,215.05Z" transform="translate(-35.55 -142.44)"/><rect class="cls-5" x="162.8" y="78.22" width="20.35" height="0.34"/><path class="cls-5" d="M202.59,215.16v0a4.09,4.09,0,0,1-.64.71c-.76.75-1.79,1.77-1.79,2.71v.17h1a.67.67,0,0,0,.71-.73h-.33a.4.4,0,0,1-.1.29.34.34,0,0,1-.28.1h-.66a5.55,5.55,0,0,1,1.68-2.29l.4-.41v3.43a.39.39,0,0,1-.11.27.36.36,0,0,1-.27.12h-3.87v.35h3.87a.72.72,0,0,0,.71-.73v-4Z" transform="translate(-35.55 -142.44)"/><path class="cls-5" d="M198.35,211.18h3.39c.36,0,.59,0,.7.11s.16.38.16.87c0,1.39-.17,1.56-1.25,2.65l-.3.3a9.27,9.27,0,0,0-1.73,2.18v-5h1.9a.23.23,0,0,1,.16.06.25.25,0,0,1,.06.16,2.17,2.17,0,0,1-.95,1.61l-.14.11v-.65H200v1.16h.33c0-.07.21-.24.35-.36a2.49,2.49,0,0,0,1.07-1.87.55.55,0,0,0-.16-.4.52.52,0,0,0-.39-.17H199v6.66h.33c0-1,.7-1.91,2-3.21l.3-.3c1.08-1.1,1.34-1.36,1.34-2.89,0-.61-.07-.93-.25-1.11s-.52-.22-.94-.22h-3.39Z" transform="translate(-35.55 -142.44)"/><path class="cls-5" d="M214.18,219.12a.75.75,0,0,0,.2.52.72.72,0,0,0,.51.22h3.82v-.35h-3.82a.39.39,0,0,1-.27-.11.43.43,0,0,1-.11-.28v-3.43l.4.41a5.61,5.61,0,0,1,1.68,2.29h-.66a.38.38,0,0,1-.28-.09.42.42,0,0,1-.1-.3h-.33a.79.79,0,0,0,.19.54.69.69,0,0,0,.52.19h1v-.17c0-.94-1-2-1.79-2.71a3.89,3.89,0,0,1-.63-.7h-.33Z" transform="translate(-35.55 -142.44)"/><path class="cls-5" d="M215.51,215.05l.3.31c1.27,1.29,2,2.18,2,3.2h.33V211.9h-2.23a.55.55,0,0,0-.39.16.59.59,0,0,0-.16.4,2.45,2.45,0,0,0,1.08,1.87c.14.12.33.29.34.36h.33v-1.16h-.33v.65s-1.09-.94-1.09-1.72a.22.22,0,0,1,.22-.22h1.9v5a9.27,9.27,0,0,0-1.73-2.18l-.3-.3c-1.08-1.09-1.24-1.26-1.24-2.64,0-.5,0-.77.15-.88s.35-.11.7-.11h3.35v-.35h-3.35c-.42,0-.73,0-.93.21s-.26.5-.26,1.12C214.17,213.69,214.43,214,215.51,215.05Z" transform="translate(-35.55 -142.44)"/><path class="cls-5" d="M212.77,215.14a3.54,3.54,0,0,1-.63.71c-.76.75-1.79,1.77-1.79,2.71v.17h1a.67.67,0,0,0,.71-.73h-.33a.44.44,0,0,1-.1.29.34.34,0,0,1-.28.1h-.66a5.48,5.48,0,0,1,1.68-2.29l.4-.41v3.43a.39.39,0,0,1-.11.27.36.36,0,0,1-.28.12h-7.76a.39.39,0,0,1-.27-.11.43.43,0,0,1-.11-.28v-3.43l.4.41a5.61,5.61,0,0,1,1.68,2.29h-.66a.38.38,0,0,1-.28-.09.42.42,0,0,1-.1-.3H205a.79.79,0,0,0,.19.54.69.69,0,0,0,.52.19h1v-.17c0-.94-1-2-1.79-2.71-.27-.27-.63-.7-.63-.69h-.33v4a.75.75,0,0,0,.2.52.72.72,0,0,0,.51.22h7.76a.73.73,0,0,0,.72-.73v-4Z" transform="translate(-35.55 -142.44)"/><path class="cls-5" d="M205.24,215.05l.3.31c1.27,1.29,2,2.18,2,3.2h.33V211.9h-2.23a.55.55,0,0,0-.39.16.59.59,0,0,0-.16.4,2.47,2.47,0,0,0,1.07,1.87c.15.12.34.29.35.36h.33v-1.16h-.33v.65l-.13-.11a2.15,2.15,0,0,1-1-1.61.22.22,0,0,1,.22-.22h1.9v5a9.27,9.27,0,0,0-1.73-2.18l-.3-.3c-1.08-1.09-1.24-1.26-1.24-2.64,0-.5,0-.77.15-.88s.35-.11.7-.11h6.83c.35,0,.59,0,.7.11s.15.38.15.87c0,1.39-.16,1.56-1.24,2.65l-.3.3a9.62,9.62,0,0,0-1.74,2.18v-5h1.9a.21.21,0,0,1,.22.22,2.15,2.15,0,0,1-1,1.61l-.13.11v-.65h-.33v1.16h.33c0-.07.2-.24.34-.36a2.47,2.47,0,0,0,1.08-1.87.59.59,0,0,0-.16-.4.54.54,0,0,0-.39-.17h-2.24v6.66h.33c0-1,.71-1.91,2-3.21l.3-.3c1.09-1.1,1.34-1.36,1.34-2.89,0-.61-.07-.93-.25-1.11s-.51-.22-.93-.22h-6.83c-.42,0-.73,0-.93.21s-.26.5-.26,1.12C203.9,213.69,204.16,214,205.24,215.05Z" transform="translate(-35.55 -142.44)"/><rect class="cls-5" x="142.45" y="78.22" width="20.35" height="0.34"/><path class="cls-5" d="M182.25,215.16v0a4.09,4.09,0,0,1-.64.71c-.76.75-1.79,1.77-1.79,2.71v.17h1a.67.67,0,0,0,.71-.73h-.33a.43.43,0,0,1-.09.29.37.37,0,0,1-.29.1h-.65a5.43,5.43,0,0,1,1.67-2.29l.41-.41v3.43a.41.41,0,0,1-.39.39H178v.35h3.87a.73.73,0,0,0,.72-.73v-4Z" transform="translate(-35.55 -142.44)"/><path class="cls-5" d="M178,211.18h3.39c.36,0,.59,0,.7.11s.16.38.16.87c0,1.39-.17,1.56-1.24,2.65l-.3.3a9.09,9.09,0,0,0-1.74,2.18v-5h1.9a.23.23,0,0,1,.16.06.25.25,0,0,1,.06.16,2.17,2.17,0,0,1-1,1.61l-.14.11v-.65h-.33v1.16H180c0-.07.21-.24.35-.36a2.46,2.46,0,0,0,1.07-1.87.55.55,0,0,0-.16-.4.52.52,0,0,0-.39-.17h-2.23v6.66H179c0-1,.7-1.91,2-3.21l.3-.3c1.08-1.1,1.34-1.36,1.34-2.89,0-.61-.07-.93-.25-1.11s-.52-.22-.94-.22H178Z" transform="translate(-35.55 -142.44)"/><path class="cls-5" d="M193.83,219.12a.75.75,0,0,0,.2.52.72.72,0,0,0,.51.22h3.82v-.35h-3.82a.39.39,0,0,1-.27-.11.43.43,0,0,1-.11-.28v-3.43l.4.41a5.61,5.61,0,0,1,1.68,2.29h-.66a.38.38,0,0,1-.28-.09.42.42,0,0,1-.1-.3h-.33a.79.79,0,0,0,.19.54.69.69,0,0,0,.52.19h1v-.17c0-.94-1-2-1.79-2.71a3.89,3.89,0,0,1-.63-.7h-.33Z" transform="translate(-35.55 -142.44)"/><path class="cls-5" d="M195.17,215.05l.3.31c1.26,1.29,1.95,2.18,2,3.2h.33V211.9h-2.23a.57.57,0,0,0-.39.16.59.59,0,0,0-.16.4,2.45,2.45,0,0,0,1.08,1.87c.14.12.33.29.34.36h.33v-1.16h-.33v.65s-1.09-.94-1.09-1.72a.22.22,0,0,1,.22-.22h1.9v5a9.27,9.27,0,0,0-1.73-2.18l-.3-.3c-1.08-1.09-1.24-1.26-1.24-2.64,0-.5,0-.77.15-.88s.35-.11.7-.11h3.35v-.35H195c-.43,0-.74,0-.94.21s-.25.5-.25,1.12C193.83,213.69,194.08,214,195.17,215.05Z" transform="translate(-35.55 -142.44)"/><path class="cls-5" d="M192.42,215.14a3.54,3.54,0,0,1-.63.71c-.76.75-1.79,1.77-1.79,2.71v.17h1a.67.67,0,0,0,.71-.73h-.33a.4.4,0,0,1-.1.29.34.34,0,0,1-.28.1h-.66A5.48,5.48,0,0,1,192,216.1l.4-.41v3.43a.39.39,0,0,1-.11.27.36.36,0,0,1-.27.12h-7.77a.39.39,0,0,1-.27-.11.43.43,0,0,1-.11-.28v-3.43l.4.41a5.61,5.61,0,0,1,1.68,2.29h-.66a.38.38,0,0,1-.28-.09.42.42,0,0,1-.1-.3h-.33a.79.79,0,0,0,.19.54.69.69,0,0,0,.52.19h1v-.17c0-.94-1-2-1.79-2.71-.27-.27-.63-.7-.63-.69h-.33v4a.75.75,0,0,0,.2.52.72.72,0,0,0,.51.22H192a.72.72,0,0,0,.71-.73v-4Z" transform="translate(-35.55 -142.44)"/><path class="cls-5" d="M184.9,215.05l.3.31c1.26,1.29,2,2.18,2,3.2h.34V211.9h-2.23a.55.55,0,0,0-.39.16.59.59,0,0,0-.16.4,2.45,2.45,0,0,0,1.08,1.87c.14.12.33.29.34.36h.33v-1.16h-.33v.65l-.13-.11a2.15,2.15,0,0,1-1-1.61.22.22,0,0,1,.22-.22h1.9v5a9.27,9.27,0,0,0-1.73-2.18l-.3-.3c-1.08-1.09-1.24-1.26-1.24-2.64,0-.5,0-.77.15-.88s.35-.11.71-.11h6.82c.35,0,.59,0,.7.11s.16.38.16.87c0,1.39-.17,1.56-1.25,2.65l-.3.3a9.27,9.27,0,0,0-1.73,2.18v-5h1.9a.23.23,0,0,1,.16.06.25.25,0,0,1,.06.16,2.15,2.15,0,0,1-1,1.61l-.13.11v-.65h-.33v1.16h.33c0-.07.2-.24.34-.36a2.47,2.47,0,0,0,1.08-1.87.59.59,0,0,0-.16-.4.52.52,0,0,0-.39-.17h-2.24v6.66h.34c0-1,.7-1.91,2-3.21l.29-.3c1.09-1.1,1.35-1.36,1.35-2.89,0-.61-.07-.93-.26-1.11s-.51-.22-.93-.22h-6.82c-.43,0-.74,0-.94.21s-.25.5-.25,1.12C183.55,213.69,183.81,214,184.9,215.05Z" transform="translate(-35.55 -142.44)"/><rect class="cls-5" x="122.11" y="78.22" width="20.35" height="0.34"/><path class="cls-5" d="M161.9,215.16v0a4.09,4.09,0,0,1-.64.71c-.75.75-1.79,1.77-1.79,2.71v.17h1a.66.66,0,0,0,.71-.73h-.33a.43.43,0,0,1-.09.29.37.37,0,0,1-.29.1h-.65a5.43,5.43,0,0,1,1.67-2.29l.41-.41v3.43a.39.39,0,0,1-.11.27.39.39,0,0,1-.28.12h-3.86v.35h3.86a.73.73,0,0,0,.72-.73v-4Z" transform="translate(-35.55 -142.44)"/><path class="cls-5" d="M157.65,211.18H161c.36,0,.59,0,.7.11s.16.38.16.87c0,1.39-.17,1.56-1.24,2.65l-.3.3a9.09,9.09,0,0,0-1.74,2.18v-5h1.9a.23.23,0,0,1,.16.06.25.25,0,0,1,.06.16,2.17,2.17,0,0,1-1,1.61l-.13.11v-.65h-.33v1.16h.33c0-.07.2-.24.34-.36a2.46,2.46,0,0,0,1.07-1.87.55.55,0,0,0-.16-.4.52.52,0,0,0-.39-.17h-2.23v6.66h.33c0-1,.7-1.91,2-3.21l.3-.3c1.08-1.1,1.34-1.36,1.34-2.89,0-.61-.07-.93-.25-1.11s-.51-.22-.94-.22h-3.39Z" transform="translate(-35.55 -142.44)"/><path class="cls-5" d="M173.48,219.12a.72.72,0,0,0,.21.52.69.69,0,0,0,.51.22H178v-.35H174.2a.39.39,0,0,1-.28-.11.43.43,0,0,1-.11-.28v-3.43l.4.41a5.61,5.61,0,0,1,1.68,2.29h-.66a.38.38,0,0,1-.28-.09.42.42,0,0,1-.1-.3h-.33a.79.79,0,0,0,.19.54.69.69,0,0,0,.52.19h1v-.17c0-.94-1-2-1.79-2.71a4.35,4.35,0,0,1-.63-.7h-.33Z" transform="translate(-35.55 -142.44)"/><path class="cls-5" d="M174.82,215.05l.3.31c1.26,1.29,1.95,2.18,2,3.2h.33V211.9h-2.23a.55.55,0,0,0-.55.56,2.45,2.45,0,0,0,1.08,1.87c.14.12.33.29.34.36h.33v-1.16h-.33v.65s-1.09-.94-1.09-1.72a.22.22,0,0,1,.22-.22h1.9v5a9.27,9.27,0,0,0-1.73-2.18l-.3-.3c-1.08-1.09-1.24-1.26-1.24-2.64a1.5,1.5,0,0,1,.15-.88c.11-.11.35-.11.71-.11H178v-.35h-3.34c-.43,0-.73,0-.94.21s-.25.5-.25,1.12C173.48,213.69,173.73,214,174.82,215.05Z" transform="translate(-35.55 -142.44)"/><path class="cls-5" d="M172.08,215.14a4.09,4.09,0,0,1-.64.71c-.76.75-1.79,1.77-1.79,2.71v.17h1a.67.67,0,0,0,.71-.73H171a.4.4,0,0,1-.1.29.34.34,0,0,1-.28.1H170a5.48,5.48,0,0,1,1.68-2.29l.4-.41v3.43a.39.39,0,0,1-.11.27.36.36,0,0,1-.27.12h-7.77a.39.39,0,0,1-.27-.11.43.43,0,0,1-.11-.28v-3.43l.4.41a5.61,5.61,0,0,1,1.68,2.29H165a.38.38,0,0,1-.28-.09.42.42,0,0,1-.1-.3h-.33a.79.79,0,0,0,.19.54.69.69,0,0,0,.52.19h1v-.17c0-.94-1-2-1.79-2.71-.27-.27-.63-.7-.63-.69h-.33v4a.75.75,0,0,0,.2.52.72.72,0,0,0,.51.22h7.77a.72.72,0,0,0,.71-.73v-4Z" transform="translate(-35.55 -142.44)"/><path class="cls-5" d="M164.55,215.05l.3.31c1.26,1.29,2,2.18,2,3.2h.33V211.9h-2.23a.57.57,0,0,0-.39.16.59.59,0,0,0-.16.4,2.45,2.45,0,0,0,1.08,1.87c.14.12.33.29.34.36h.33v-1.16h-.33v.65l-.13-.11a2.15,2.15,0,0,1-1-1.61.22.22,0,0,1,.22-.22h1.9v5a9.62,9.62,0,0,0-1.74-2.18l-.3-.3c-1.08-1.09-1.24-1.26-1.24-2.64,0-.5,0-.77.15-.88s.35-.11.71-.11h6.82c.36,0,.59,0,.7.11s.16.38.16.87c0,1.39-.17,1.56-1.25,2.65l-.3.3a9.27,9.27,0,0,0-1.73,2.18v-5h1.9a.23.23,0,0,1,.16.06.25.25,0,0,1,.06.16,2.15,2.15,0,0,1-1,1.61l-.13.11v-.65h-.33v1.16h.33c0-.07.2-.24.35-.36a2.49,2.49,0,0,0,1.07-1.87.55.55,0,0,0-.16-.4.52.52,0,0,0-.39-.17h-2.23v6.66h.34c0-1,.7-1.91,2-3.21l.3-.3c1.08-1.1,1.34-1.36,1.34-2.89,0-.61-.07-.93-.26-1.11s-.51-.22-.93-.22H164.4c-.43,0-.73,0-.94.21s-.25.5-.25,1.12C163.21,213.69,163.46,214,164.55,215.05Z" transform="translate(-35.55 -142.44)"/><rect class="cls-5" x="101.76" y="78.22" width="20.35" height="0.34"/><path class="cls-5" d="M141.55,215.16v0a4.09,4.09,0,0,1-.64.71c-.75.75-1.79,1.77-1.79,2.71v.17h1a.66.66,0,0,0,.71-.73h-.33a.43.43,0,0,1-.09.29.37.37,0,0,1-.29.1h-.65a5.61,5.61,0,0,1,1.67-2.29l.41-.41v3.43a.39.39,0,0,1-.11.27.39.39,0,0,1-.28.12H137.3v.35h3.86a.73.73,0,0,0,.72-.73v-4Z" transform="translate(-35.55 -142.44)"/><path class="cls-5" d="M137.31,211.18h3.38c.36,0,.6,0,.7.11s.16.38.16.87c0,1.39-.17,1.56-1.24,2.65l-.3.3a9.35,9.35,0,0,0-1.74,2.18v-5h1.9a.23.23,0,0,1,.16.06.25.25,0,0,1,.06.16,2.17,2.17,0,0,1-.95,1.61l-.13.11v-.65H139v1.16h.33c0-.07.2-.24.34-.36a2.47,2.47,0,0,0,1.08-1.87.59.59,0,0,0-.16-.4.56.56,0,0,0-.4-.17h-2.23v6.66h.33c0-1,.71-1.91,2-3.21l.3-.3c1.08-1.1,1.34-1.36,1.34-2.89,0-.61-.07-.93-.25-1.11s-.51-.22-.94-.22h-3.38Z" transform="translate(-35.55 -142.44)"/><path class="cls-5" d="M153.13,219.12a.72.72,0,0,0,.21.52.69.69,0,0,0,.51.22h3.81v-.35h-3.81a.39.39,0,0,1-.28-.11.43.43,0,0,1-.11-.28v-3.43c.11.11.24.25.41.41a5.68,5.68,0,0,1,1.67,2.29h-.66a.39.39,0,0,1-.28-.09.47.47,0,0,1-.1-.3h-.33a.79.79,0,0,0,.19.54.69.69,0,0,0,.52.19h1v-.17c0-.94-1-2-1.8-2.71a4.35,4.35,0,0,1-.63-.7h-.33Z" transform="translate(-35.55 -142.44)"/><path class="cls-5" d="M154.47,215.05l.3.31c1.26,1.29,1.95,2.18,2,3.2h.33V211.9h-2.22a.55.55,0,0,0-.56.56,2.45,2.45,0,0,0,1.08,1.87c.14.12.33.29.34.36H156v-1.16h-.33v.65s-1.09-.94-1.09-1.72a.22.22,0,0,1,.23-.22h1.89v5a9.62,9.62,0,0,0-1.74-2.18l-.3-.3c-1.08-1.09-1.24-1.26-1.24-2.64a1.5,1.5,0,0,1,.15-.88c.11-.11.35-.11.71-.11h3.34v-.35h-3.34c-.43,0-.73,0-.94.21s-.25.5-.25,1.12C153.13,213.69,153.38,214,154.47,215.05Z" transform="translate(-35.55 -142.44)"/><path class="cls-5" d="M151.73,215.14a4.09,4.09,0,0,1-.64.71c-.76.75-1.79,1.77-1.79,2.71v.17h1A.67.67,0,0,0,151,218h-.33a.43.43,0,0,1-.09.29.38.38,0,0,1-.29.1h-.66a5.48,5.48,0,0,1,1.68-2.29l.4-.41v3.43a.39.39,0,0,1-.11.27.36.36,0,0,1-.27.12h-7.76a.39.39,0,0,1-.28-.11.43.43,0,0,1-.11-.28v-3.43l.41.41a5.68,5.68,0,0,1,1.67,2.29h-.66a.39.39,0,0,1-.28-.09.47.47,0,0,1-.1-.3h-.33a.79.79,0,0,0,.19.54.69.69,0,0,0,.52.19h1v-.17c0-.94-1-2-1.8-2.71-.27-.27-.63-.7-.63-.69h-.33v4a.72.72,0,0,0,.21.52.69.69,0,0,0,.51.22h7.76a.72.72,0,0,0,.71-.73v-4Z" transform="translate(-35.55 -142.44)"/><path class="cls-5" d="M144.2,215.05l.3.31c1.26,1.29,1.95,2.18,2,3.2h.33V211.9h-2.23a.55.55,0,0,0-.55.56,2.45,2.45,0,0,0,1.08,1.87c.14.12.33.29.34.36h.33v-1.16h-.33v.65l-.13-.11a2.18,2.18,0,0,1-1-1.61.22.22,0,0,1,.22-.22h1.9v5a9.62,9.62,0,0,0-1.74-2.18l-.3-.3c-1.08-1.09-1.24-1.26-1.24-2.64a1.5,1.5,0,0,1,.15-.88c.11-.11.35-.11.71-.11h6.82c.36,0,.59,0,.7.11s.16.38.16.87c0,1.39-.17,1.56-1.25,2.65l-.3.3a9.27,9.27,0,0,0-1.73,2.18v-5h1.9a.23.23,0,0,1,.16.06.25.25,0,0,1,.06.16,2.17,2.17,0,0,1-.95,1.61l-.14.11v-.65h-.33v1.16h.33c0-.07.21-.24.35-.36a2.46,2.46,0,0,0,1.07-1.87.55.55,0,0,0-.16-.4.52.52,0,0,0-.39-.17h-2.23v6.66h.33c0-1,.7-1.91,2-3.21l.3-.3c1.08-1.1,1.34-1.36,1.34-2.89,0-.61-.07-.93-.25-1.11s-.52-.22-.94-.22h-6.82c-.43,0-.73,0-.94.21s-.25.5-.25,1.12C142.86,213.69,143.11,214,144.2,215.05Z" transform="translate(-35.55 -142.44)"/><rect class="cls-5" x="81.41" y="78.22" width="20.35" height="0.34"/><path class="cls-5" d="M121.2,215.16v0a3.7,3.7,0,0,1-.64.71c-.75.75-1.79,1.77-1.79,2.71v.17h1a.66.66,0,0,0,.71-.73h-.33a.43.43,0,0,1-.09.29.37.37,0,0,1-.29.1h-.65a5.61,5.61,0,0,1,1.67-2.29l.41-.41v3.43a.39.39,0,0,1-.11.27.38.38,0,0,1-.28.12H117v.35h3.86a.73.73,0,0,0,.72-.73v-4Z" transform="translate(-35.55 -142.44)"/><path class="cls-5" d="M117,211.18h3.38c.36,0,.6,0,.71.11a1.48,1.48,0,0,1,.15.87c0,1.39-.17,1.56-1.24,2.65l-.3.3a9.35,9.35,0,0,0-1.74,2.18v-5h1.9a.23.23,0,0,1,.16.06.26.26,0,0,1,.07.16,2.18,2.18,0,0,1-1,1.61l-.13.11v-.65h-.33v1.16H119c0-.07.2-.24.34-.36a2.47,2.47,0,0,0,1.08-1.87.59.59,0,0,0-.16-.4.56.56,0,0,0-.4-.17h-2.23v6.66h.33c0-1,.71-1.91,2-3.21l.3-.3c1.08-1.1,1.34-1.36,1.34-2.89,0-.61-.07-.93-.25-1.11s-.51-.22-.94-.22H117Z" transform="translate(-35.55 -142.44)"/><path class="cls-5" d="M132.78,219.12a.72.72,0,0,0,.21.52.69.69,0,0,0,.51.22h3.81v-.35H133.5a.41.41,0,0,1-.28-.11.43.43,0,0,1-.11-.28v-3.43c.11.11.24.25.41.41a5.68,5.68,0,0,1,1.67,2.29h-.66a.39.39,0,0,1-.28-.09.47.47,0,0,1-.1-.3h-.33a.75.75,0,0,0,.2.54.67.67,0,0,0,.51.19h1v-.17c0-.94-1-2-1.79-2.71a4.08,4.08,0,0,1-.64-.7h-.33Z" transform="translate(-35.55 -142.44)"/><path class="cls-5" d="M134.12,215.05l.3.31c1.26,1.29,2,2.18,2,3.2h.33V211.9h-2.23a.55.55,0,0,0-.56.56,2.45,2.45,0,0,0,1.08,1.87c.14.12.33.29.34.36h.33v-1.16h-.33v.65s-1.09-.94-1.08-1.72a.22.22,0,0,1,.22-.22h1.89v5a9.35,9.35,0,0,0-1.74-2.18l-.3-.3c-1.08-1.09-1.24-1.26-1.24-2.64a1.5,1.5,0,0,1,.15-.88c.11-.11.35-.11.71-.11h3.34v-.35H134c-.43,0-.73,0-.94.21s-.25.5-.25,1.12C132.78,213.69,133,214,134.12,215.05Z" transform="translate(-35.55 -142.44)"/><path class="cls-5" d="M131.38,215.14a4.09,4.09,0,0,1-.64.71c-.75.75-1.79,1.77-1.79,2.71v.17h1a.66.66,0,0,0,.71-.73h-.33a.43.43,0,0,1-.09.29.37.37,0,0,1-.29.1h-.65A5.37,5.37,0,0,1,131,216.1l.41-.41v3.43a.41.41,0,0,1-.39.39h-7.76a.39.39,0,0,1-.28-.11.43.43,0,0,1-.11-.28v-3.43l.41.41a5.68,5.68,0,0,1,1.67,2.29h-.66a.39.39,0,0,1-.28-.09.47.47,0,0,1-.1-.3h-.33a.75.75,0,0,0,.2.54.67.67,0,0,0,.51.19h1v-.17c0-.94-1-2-1.8-2.71-.27-.27-.63-.7-.63-.69h-.33v4a.72.72,0,0,0,.21.52.69.69,0,0,0,.51.22H131a.73.73,0,0,0,.72-.73v-4Z" transform="translate(-35.55 -142.44)"/><path class="cls-5" d="M123.85,215.05l.3.31c1.26,1.29,1.95,2.18,2,3.2h.33V211.9h-2.22a.55.55,0,0,0-.56.56,2.45,2.45,0,0,0,1.08,1.87c.14.12.33.29.34.36h.33v-1.16h-.33v.65l-.13-.11a2.18,2.18,0,0,1-1-1.61.22.22,0,0,1,.23-.22h1.89v5a9.62,9.62,0,0,0-1.74-2.18l-.3-.3c-1.08-1.09-1.24-1.26-1.24-2.64a1.5,1.5,0,0,1,.15-.88c.11-.11.35-.11.71-.11h6.82c.36,0,.59,0,.7.11s.16.38.16.87c0,1.39-.17,1.56-1.24,2.65l-.3.3a9.09,9.09,0,0,0-1.74,2.18v-5H130a.23.23,0,0,1,.16.06.25.25,0,0,1,.06.16,2.17,2.17,0,0,1-.95,1.61l-.13.11v-.65h-.33v1.16h.33c0-.07.2-.24.34-.36a2.46,2.46,0,0,0,1.07-1.87.55.55,0,0,0-.16-.4.52.52,0,0,0-.39-.17h-2.23v6.66h.33c0-1,.7-1.91,2-3.21l.3-.3c1.08-1.1,1.34-1.36,1.34-2.89,0-.61-.07-.93-.25-1.11s-.52-.22-.94-.22H123.7c-.43,0-.73,0-.94.21s-.25.5-.25,1.12C122.51,213.69,122.76,214,123.85,215.05Z" transform="translate(-35.55 -142.44)"/><rect class="cls-5" x="61.06" y="78.22" width="20.35" height="0.34"/><path class="cls-5" d="M100.85,215.16v0a3.91,3.91,0,0,1-.63.71c-.76.75-1.8,1.77-1.8,2.71v.17h1a.66.66,0,0,0,.71-.73H99.8a.43.43,0,0,1-.09.29.37.37,0,0,1-.29.1h-.65a5.61,5.61,0,0,1,1.67-2.29l.41-.41v3.43a.39.39,0,0,1-.11.27.38.38,0,0,1-.28.12H96.6v.35h3.86a.73.73,0,0,0,.72-.73v-4Z" transform="translate(-35.55 -142.44)"/><path class="cls-5" d="M96.61,211.18H100c.36,0,.6,0,.71.11a1.48,1.48,0,0,1,.15.87c0,1.39-.16,1.56-1.24,2.65l-.3.3a9.35,9.35,0,0,0-1.74,2.18v-5h1.9a.21.21,0,0,1,.16.06.26.26,0,0,1,.07.16,2.18,2.18,0,0,1-1,1.61l-.13.11v-.65h-.33v1.16h.33c0-.07.2-.24.34-.36a2.47,2.47,0,0,0,1.08-1.87.59.59,0,0,0-.16-.4.56.56,0,0,0-.39-.17H97.24v6.66h.33c0-1,.71-1.91,2-3.21l.3-.3c1.08-1.1,1.34-1.36,1.34-2.89,0-.61-.07-.93-.25-1.11s-.51-.22-.94-.22H96.61Z" transform="translate(-35.55 -142.44)"/><path class="cls-5" d="M112.43,219.12a.72.72,0,0,0,.21.52.7.7,0,0,0,.51.22H117v-.35h-3.81a.41.41,0,0,1-.28-.11.43.43,0,0,1-.11-.28v-3.43l.41.41a5.58,5.58,0,0,1,1.67,2.29h-.65a.4.4,0,0,1-.29-.09.47.47,0,0,1-.1-.3h-.33a.75.75,0,0,0,.2.54.68.68,0,0,0,.52.19h1v-.17c0-.94-1-2-1.79-2.71a4.57,4.57,0,0,1-.64-.7h-.33Z" transform="translate(-35.55 -142.44)"/><path class="cls-5" d="M113.77,215.05l.3.31c1.26,1.29,2,2.18,2,3.2h.33V211.9h-2.23a.59.59,0,0,0-.4.16.59.59,0,0,0-.15.4,2.44,2.44,0,0,0,1.07,1.87c.14.12.33.29.34.36h.33v-1.16H115v.65s-1.08-.94-1.08-1.72a.22.22,0,0,1,.22-.22H116v5a9.35,9.35,0,0,0-1.74-2.18l-.3-.3c-1.07-1.09-1.24-1.26-1.24-2.64,0-.5,0-.77.16-.88s.34-.11.7-.11H117v-.35h-3.34c-.42,0-.73,0-.94.21s-.25.5-.25,1.12C112.43,213.69,112.69,214,113.77,215.05Z" transform="translate(-35.55 -142.44)"/><path class="cls-5" d="M111,215.14a4.09,4.09,0,0,1-.64.71c-.75.75-1.79,1.77-1.79,2.71v.17h1a.66.66,0,0,0,.71-.73H110a.43.43,0,0,1-.09.29.37.37,0,0,1-.29.1H109a5.46,5.46,0,0,1,1.67-2.29l.41-.41v3.43a.39.39,0,0,1-.11.27.39.39,0,0,1-.28.12h-7.76a.41.41,0,0,1-.28-.11.43.43,0,0,1-.11-.28v-3.43l.41.41a5.68,5.68,0,0,1,1.67,2.29h-.66a.39.39,0,0,1-.28-.09.45.45,0,0,1-.09-.3h-.34a.75.75,0,0,0,.2.54.67.67,0,0,0,.51.19h1v-.17c0-.94-1-2-1.79-2.71-.28-.27-.64-.7-.64-.69h-.33v4a.72.72,0,0,0,.21.52.7.7,0,0,0,.51.22h7.76a.73.73,0,0,0,.72-.73v-4Z" transform="translate(-35.55 -142.44)"/><path class="cls-5" d="M103.5,215.05l.3.31c1.26,1.29,2,2.18,2,3.2h.33V211.9h-2.23a.55.55,0,0,0-.56.56,2.45,2.45,0,0,0,1.08,1.87c.14.12.33.29.34.36h.33v-1.16h-.33v.65l-.13-.11a2.17,2.17,0,0,1-.95-1.61.22.22,0,0,1,.22-.22h1.9v5a9.35,9.35,0,0,0-1.74-2.18l-.3-.3c-1.08-1.09-1.24-1.26-1.24-2.64a1.5,1.5,0,0,1,.15-.88c.11-.11.35-.11.71-.11h6.82c.36,0,.59,0,.7.11s.16.38.16.87c0,1.39-.17,1.56-1.24,2.65l-.3.3a9.35,9.35,0,0,0-1.74,2.18v-5h1.9a.23.23,0,0,1,.16.06.25.25,0,0,1,.06.16,2.17,2.17,0,0,1-1,1.61l-.13.11v-.65h-.33v1.16h.33c0-.07.2-.24.34-.36a2.46,2.46,0,0,0,1.07-1.87.55.55,0,0,0-.16-.4.52.52,0,0,0-.39-.17h-2.23v6.66h.33c0-1,.7-1.91,2-3.21l.3-.3c1.08-1.1,1.34-1.36,1.34-2.89,0-.61-.07-.93-.25-1.11s-.51-.22-.94-.22h-6.82c-.43,0-.73,0-.94.21s-.25.5-.25,1.12C102.16,213.69,102.42,214,103.5,215.05Z" transform="translate(-35.55 -142.44)"/><rect class="cls-5" x="40.71" y="78.22" width="20.35" height="0.34"/><path class="cls-5" d="M80.5,215.16v0a3.91,3.91,0,0,1-.63.71c-.76.75-1.8,1.77-1.8,2.71v.17h1a.67.67,0,0,0,.71-.73h-.33a.44.44,0,0,1-.1.29.36.36,0,0,1-.28.1h-.66a5.61,5.61,0,0,1,1.67-2.29l.41-.41v3.43a.39.39,0,0,1-.11.27.36.36,0,0,1-.28.12H76.25v.35h3.86a.73.73,0,0,0,.72-.73v-4Z" transform="translate(-35.55 -142.44)"/><path class="cls-5" d="M76.26,211.18h3.38c.36,0,.6,0,.71.11s.15.38.15.87c0,1.39-.16,1.56-1.24,2.65l-.3.3a9.35,9.35,0,0,0-1.74,2.18v-5h1.91a.2.2,0,0,1,.15.06.21.21,0,0,1,.07.16,2.18,2.18,0,0,1-1,1.61l-.13.11v-.65h-.33v1.16h.33c0-.07.2-.24.34-.36a2.47,2.47,0,0,0,1.08-1.87.59.59,0,0,0-.16-.4.56.56,0,0,0-.39-.17H76.89v6.66h.33c0-1,.71-1.91,2-3.21l.3-.3c1.09-1.1,1.34-1.36,1.34-2.89,0-.61-.07-.93-.25-1.11s-.51-.22-.94-.22H76.26Z" transform="translate(-35.55 -142.44)"/><path class="cls-5" d="M92.08,219.12a.76.76,0,0,0,.21.52.72.72,0,0,0,.51.22h3.81v-.35H92.8a.38.38,0,0,1-.39-.39v-3.43l.41.41a5.58,5.58,0,0,1,1.67,2.29h-.65a.4.4,0,0,1-.29-.09.45.45,0,0,1-.09-.3h-.33a.74.74,0,0,0,.19.54.68.68,0,0,0,.52.19h1v-.17c0-.94-1-2-1.79-2.71a4.57,4.57,0,0,1-.64-.7h-.33Z" transform="translate(-35.55 -142.44)"/><path class="cls-5" d="M93.42,215.05l.3.31c1.26,1.29,2,2.18,2,3.2H96V211.9H93.79a.55.55,0,0,0-.55.56,2.44,2.44,0,0,0,1.07,1.87c.14.12.34.29.34.36H95v-1.16h-.34v.65s-1.08-.94-1.08-1.72a.22.22,0,0,1,.22-.22h1.9v5A9.35,9.35,0,0,0,94,215.11l-.3-.3c-1.07-1.09-1.24-1.26-1.24-2.64,0-.5,0-.77.16-.88s.34-.11.7-.11h3.34v-.35H93.27c-.42,0-.73,0-.94.21s-.25.5-.25,1.12C92.08,213.69,92.34,214,93.42,215.05Z" transform="translate(-35.55 -142.44)"/><path class="cls-5" d="M90.68,215.14a4.09,4.09,0,0,1-.64.71c-.75.75-1.79,1.77-1.79,2.71v.17h1A.66.66,0,0,0,90,218h-.33a.43.43,0,0,1-.09.29.37.37,0,0,1-.29.1H88.6a5.46,5.46,0,0,1,1.67-2.29l.41-.41v3.43a.39.39,0,0,1-.11.27.39.39,0,0,1-.28.12H82.53a.41.41,0,0,1-.28-.11.43.43,0,0,1-.11-.28v-3.43l.41.41a5.58,5.58,0,0,1,1.67,2.29h-.65a.4.4,0,0,1-.29-.09.45.45,0,0,1-.09-.3h-.34a.75.75,0,0,0,.2.54.68.68,0,0,0,.52.19h1v-.17c0-.94-1-2-1.79-2.71-.27-.27-.64-.7-.64-.69h-.33v4a.76.76,0,0,0,.21.52.7.7,0,0,0,.51.22h7.76a.73.73,0,0,0,.72-.73v-4Z" transform="translate(-35.55 -142.44)"/><path class="cls-5" d="M83.15,215.05l.3.31c1.26,1.29,2,2.18,2,3.2h.33V211.9H83.52a.55.55,0,0,0-.39.16.56.56,0,0,0-.17.4A2.45,2.45,0,0,0,84,214.34c.14.12.34.29.34.36h.33v-1.16h-.33v.65l-.13-.11a2.17,2.17,0,0,1-1-1.61.22.22,0,0,1,.22-.22h1.9v5a9.35,9.35,0,0,0-1.74-2.18l-.3-.3c-1.07-1.09-1.24-1.26-1.24-2.64,0-.5,0-.77.16-.88s.34-.11.7-.11h6.82c.36,0,.6,0,.71.11a1.48,1.48,0,0,1,.15.87c0,1.39-.17,1.56-1.24,2.65l-.3.3a9.35,9.35,0,0,0-1.74,2.18v-5h1.9a.23.23,0,0,1,.16.06.26.26,0,0,1,.07.16,2.18,2.18,0,0,1-1,1.61l-.13.11v-.65h-.33v1.16h.33c0-.07.2-.24.34-.36a2.47,2.47,0,0,0,1.08-1.87.59.59,0,0,0-.16-.4.56.56,0,0,0-.4-.17H87.07v6.66h.33c0-1,.71-1.91,2-3.21l.3-.3c1.08-1.1,1.34-1.36,1.34-2.89,0-.61-.07-.93-.25-1.11s-.51-.22-.94-.22H83c-.42,0-.73,0-.94.21s-.25.5-.25,1.12C81.81,213.69,82.07,214,83.15,215.05Z" transform="translate(-35.55 -142.44)"/><rect class="cls-5" x="20.36" y="78.22" width="20.35" height="0.34"/><path class="cls-5" d="M60.15,215.16v0a3.54,3.54,0,0,1-.63.71c-.76.75-1.8,1.77-1.8,2.71v.17h1a.67.67,0,0,0,.71-.73h-.33a.44.44,0,0,1-.1.29.34.34,0,0,1-.28.1h-.66a5.61,5.61,0,0,1,1.67-2.29l.41-.41v3.43a.39.39,0,0,1-.11.27.36.36,0,0,1-.28.12H55.9v.35h3.86a.73.73,0,0,0,.72-.73v-4Z" transform="translate(-35.55 -142.44)"/><path class="cls-5" d="M55.91,211.18H59.3c.35,0,.59,0,.7.11s.15.38.15.87c0,1.39-.16,1.56-1.24,2.65l-.3.3a9.62,9.62,0,0,0-1.74,2.18v-5h1.91a.21.21,0,0,1,.22.22,2.15,2.15,0,0,1-1,1.61l-.13.11v-.65h-.33v1.16h.33c0-.07.2-.24.34-.36a2.47,2.47,0,0,0,1.08-1.87.59.59,0,0,0-.16-.4.54.54,0,0,0-.39-.17H56.54v6.66h.33c0-1,.71-1.91,2-3.21l.3-.3c1.09-1.1,1.34-1.36,1.34-2.89,0-.61-.07-.93-.25-1.11s-.51-.22-.93-.22H55.91Z" transform="translate(-35.55 -142.44)"/><path class="cls-5" d="M71.73,219.12a.76.76,0,0,0,.21.52.72.72,0,0,0,.51.22h3.81v-.35H72.45a.38.38,0,0,1-.39-.39v-3.43l.41.41a5.49,5.49,0,0,1,1.67,2.29h-.65a.4.4,0,0,1-.29-.09.45.45,0,0,1-.09-.3h-.33a.74.74,0,0,0,.19.54.68.68,0,0,0,.52.19h1v-.17c0-.94-1-2-1.79-2.71a4.57,4.57,0,0,1-.64-.7h-.33Z" transform="translate(-35.55 -142.44)"/><path class="cls-5" d="M73.07,215.05l.3.31c1.27,1.29,1.95,2.18,2,3.2h.33V211.9H73.44a.55.55,0,0,0-.55.56A2.44,2.44,0,0,0,74,214.34c.14.12.34.29.35.36h.33v-1.16h-.33v.65s-1.09-.94-1.09-1.72a.22.22,0,0,1,.22-.22h1.9v5a9.35,9.35,0,0,0-1.74-2.18l-.3-.3c-1.07-1.09-1.24-1.26-1.24-2.64,0-.5,0-.77.16-.88s.34-.11.7-.11h3.34v-.35H72.92c-.42,0-.73,0-.94.21s-.25.5-.25,1.12C71.73,213.69,72,214,73.07,215.05Z" transform="translate(-35.55 -142.44)"/><path class="cls-5" d="M70.33,215.14a4.09,4.09,0,0,1-.64.71c-.75.75-1.79,1.77-1.79,2.71v.17h1a.66.66,0,0,0,.71-.73h-.33a.43.43,0,0,1-.09.29.37.37,0,0,1-.29.1h-.65a5.55,5.55,0,0,1,1.67-2.29l.41-.41v3.43a.39.39,0,0,1-.11.27.38.38,0,0,1-.28.12H62.18a.38.38,0,0,1-.39-.39v-3.43l.41.41a5.58,5.58,0,0,1,1.67,2.29h-.65a.4.4,0,0,1-.29-.09.45.45,0,0,1-.09-.3h-.33a.74.74,0,0,0,.19.54.68.68,0,0,0,.52.19h1v-.17c0-.94-1-2-1.79-2.71-.27-.27-.64-.7-.64-.69h-.33v4a.76.76,0,0,0,.21.52.72.72,0,0,0,.51.22h7.76a.73.73,0,0,0,.72-.73v-4Z" transform="translate(-35.55 -142.44)"/><path class="cls-5" d="M62.8,215.05l.3.31c1.27,1.29,1.95,2.18,2,3.2h.33V211.9H63.17a.55.55,0,0,0-.55.56,2.44,2.44,0,0,0,1.07,1.87c.14.12.34.29.34.36h.34v-1.16H64v.65l-.13-.11a2.17,2.17,0,0,1-.95-1.61.22.22,0,0,1,.22-.22h1.9v5a9.35,9.35,0,0,0-1.74-2.18l-.3-.3c-1.07-1.09-1.24-1.26-1.24-2.64,0-.5.05-.77.16-.88s.34-.11.7-.11h6.82c.36,0,.6,0,.71.11a1.48,1.48,0,0,1,.15.87c0,1.39-.16,1.56-1.24,2.65l-.3.3a9.35,9.35,0,0,0-1.74,2.18v-5H69a.23.23,0,0,1,.16.06.26.26,0,0,1,.07.16,2.18,2.18,0,0,1-1,1.61l-.13.11v-.65h-.33v1.16h.33c0-.07.2-.24.34-.36a2.47,2.47,0,0,0,1.08-1.87.59.59,0,0,0-.16-.4.56.56,0,0,0-.39-.17H66.72v6.66h.33c0-1,.71-1.91,2-3.21l.3-.3c1.08-1.1,1.34-1.36,1.34-2.89,0-.61-.07-.93-.25-1.11s-.51-.22-.94-.22H62.65c-.42,0-.73,0-.94.21s-.25.5-.25,1.12C61.46,213.69,61.72,214,62.8,215.05Z" transform="translate(-35.55 -142.44)"/><rect class="cls-5" x="0.01" y="78.22" width="20.35" height="0.34"/><path class="cls-5" d="M39.8,215.16v0a3.54,3.54,0,0,1-.63.71c-.76.75-1.79,1.77-1.79,2.71v.17h1a.67.67,0,0,0,.71-.73h-.33a.4.4,0,0,1-.1.29.34.34,0,0,1-.28.1h-.66a5.55,5.55,0,0,1,1.68-2.29l.4-.41v3.43a.39.39,0,0,1-.11.27.36.36,0,0,1-.28.12H35.55v.35h3.86a.73.73,0,0,0,.72-.73v-4Z" transform="translate(-35.55 -142.44)"/><path class="cls-5" d="M35.56,211.18H39c.35,0,.59,0,.7.11s.15.38.15.87c0,1.39-.16,1.56-1.24,2.65l-.3.3a9.62,9.62,0,0,0-1.74,2.18v-5h1.9a.21.21,0,0,1,.22.22,2.15,2.15,0,0,1-1,1.61l-.13.11v-.65h-.33v1.16h.33c0-.07.2-.24.34-.36A2.47,2.47,0,0,0,39,212.47a.59.59,0,0,0-.16-.4.52.52,0,0,0-.39-.17H36.19v6.66h.33c0-1,.71-1.91,2-3.21l.3-.3c1.09-1.1,1.34-1.36,1.35-2.89,0-.61-.08-.93-.26-1.11s-.51-.22-.93-.22H35.56Z" transform="translate(-35.55 -142.44)"/><path class="cls-5" d="M51.38,219.12a.76.76,0,0,0,.21.52.72.72,0,0,0,.51.22h3.81v-.35H52.1a.39.39,0,0,1-.27-.11.39.39,0,0,1-.12-.28v-3.43l.41.41a5.61,5.61,0,0,1,1.68,2.29h-.66a.4.4,0,0,1-.29-.09.45.45,0,0,1-.09-.3h-.33a.79.79,0,0,0,.19.54.68.68,0,0,0,.52.19h1v-.17c0-.94-1-2-1.79-2.71a4.57,4.57,0,0,1-.64-.7h-.33Z" transform="translate(-35.55 -142.44)"/><path class="cls-5" d="M52.72,215.05l.3.31c1.27,1.29,2,2.18,2,3.2h.33V211.9H53.09a.55.55,0,0,0-.55.56,2.44,2.44,0,0,0,1.07,1.87c.14.12.34.29.35.36h.33v-1.16H54v.65s-1.09-.94-1.09-1.72a.22.22,0,0,1,.22-.22H55v5a9.54,9.54,0,0,0-1.73-2.18l-.31-.3c-1.07-1.09-1.24-1.26-1.24-2.64,0-.5,0-.77.16-.88s.34-.11.7-.11h3.34v-.35H52.57c-.42,0-.73,0-.94.21s-.25.5-.25,1.12C51.38,213.69,51.64,214,52.72,215.05Z" transform="translate(-35.55 -142.44)"/><path class="cls-5" d="M50,215.14a3.91,3.91,0,0,1-.63.71c-.76.75-1.8,1.77-1.8,2.71v.17h1a.67.67,0,0,0,.71-.73h-.33a.44.44,0,0,1-.1.29.36.36,0,0,1-.28.1H47.9a5.55,5.55,0,0,1,1.67-2.29l.41-.41v3.43a.39.39,0,0,1-.11.27.36.36,0,0,1-.28.12H41.83a.38.38,0,0,1-.39-.39v-3.43l.41.41a5.49,5.49,0,0,1,1.67,2.29h-.65a.4.4,0,0,1-.29-.09.45.45,0,0,1-.09-.3h-.33a.74.74,0,0,0,.19.54.68.68,0,0,0,.52.19h1v-.17c0-.94-1-2-1.79-2.71-.27-.27-.64-.7-.64-.69h-.33v4a.76.76,0,0,0,.21.52.72.72,0,0,0,.51.22h7.76a.73.73,0,0,0,.72-.73v-4Z" transform="translate(-35.55 -142.44)"/><path class="cls-5" d="M42.45,215.05l.3.31c1.27,1.29,2,2.18,2,3.2h.33V211.9H42.82a.55.55,0,0,0-.55.56,2.44,2.44,0,0,0,1.07,1.87c.14.12.34.29.35.36H44v-1.16h-.33v.65l-.14-.11a2.17,2.17,0,0,1-.95-1.61.22.22,0,0,1,.22-.22h1.9v5A9.54,9.54,0,0,0,43,215.11l-.31-.3c-1.07-1.09-1.24-1.26-1.24-2.64,0-.5.05-.77.16-.88s.34-.11.7-.11h6.82c.36,0,.6,0,.71.11a1.48,1.48,0,0,1,.15.87c0,1.39-.16,1.56-1.24,2.65l-.3.3a9.35,9.35,0,0,0-1.74,2.18v-5h1.9a.21.21,0,0,1,.16.06.26.26,0,0,1,.07.16,2.18,2.18,0,0,1-1,1.61l-.13.11v-.65h-.33v1.16h.33c0-.07.2-.24.34-.36a2.47,2.47,0,0,0,1.08-1.87.59.59,0,0,0-.16-.4.56.56,0,0,0-.39-.17H46.37v6.66h.33c0-1,.71-1.91,2-3.21l.3-.3c1.09-1.1,1.34-1.36,1.34-2.89,0-.61-.07-.93-.25-1.11s-.51-.22-.94-.22H42.3c-.42,0-.73,0-.94.21s-.25.5-.25,1.12C41.11,213.69,41.37,214,42.45,215.05Z" transform="translate(-35.55 -142.44)"/><rect class="cls-5" x="508.74" y="78.22" width="20.35" height="0.34"/><path class="cls-5" d="M548.53,215.16v0a3.54,3.54,0,0,1-.63.71c-.76.75-1.8,1.77-1.8,2.71v.17h1a.67.67,0,0,0,.71-.73h-.33a.44.44,0,0,1-.1.29.34.34,0,0,1-.28.1h-.66a5.61,5.61,0,0,1,1.67-2.29l.41-.41v3.43a.39.39,0,0,1-.11.27.36.36,0,0,1-.28.12h-3.86v.35h3.86a.73.73,0,0,0,.72-.73v-4Z" transform="translate(-35.55 -142.44)"/><path class="cls-5" d="M544.29,211.18h3.39c.35,0,.59,0,.7.11s.15.38.15.87c0,1.39-.16,1.56-1.24,2.65l-.3.3a9.62,9.62,0,0,0-1.74,2.18v-5h1.91a.21.21,0,0,1,.22.22,2.15,2.15,0,0,1-1,1.61l-.13.11v-.65H546v1.16h.33c0-.07.2-.24.34-.36a2.47,2.47,0,0,0,1.08-1.87.59.59,0,0,0-.16-.4.54.54,0,0,0-.39-.17h-2.24v6.66h.33c0-1,.71-1.91,2-3.21l.3-.3c1.09-1.1,1.34-1.36,1.34-2.89,0-.61-.07-.93-.25-1.11s-.51-.22-.93-.22h-3.39Z" transform="translate(-35.55 -142.44)"/><path class="cls-5" d="M560.11,219.12a.76.76,0,0,0,.21.52.72.72,0,0,0,.51.22h3.81v-.35h-3.81a.38.38,0,0,1-.39-.39v-3.43l.41.41a5.49,5.49,0,0,1,1.67,2.29h-.65a.4.4,0,0,1-.29-.09.45.45,0,0,1-.09-.3h-.33a.74.74,0,0,0,.19.54.68.68,0,0,0,.52.19h1v-.17c0-.94-1-2-1.79-2.71a4.57,4.57,0,0,1-.64-.7h-.33Z" transform="translate(-35.55 -142.44)"/><path class="cls-5" d="M561.45,215.05l.3.31c1.27,1.29,2,2.18,2,3.2h.33V211.9h-2.23a.55.55,0,0,0-.55.56,2.44,2.44,0,0,0,1.07,1.87c.14.12.34.29.35.36H563v-1.16h-.33v.65c-.05,0-1.09-.94-1.09-1.72a.22.22,0,0,1,.22-.22h1.9v5a9.35,9.35,0,0,0-1.74-2.18l-.3-.3c-1.07-1.09-1.24-1.26-1.24-2.64,0-.5,0-.77.16-.88s.34-.11.7-.11h3.34v-.35H561.3c-.42,0-.73,0-.94.21s-.25.5-.25,1.12C560.11,213.69,560.37,214,561.45,215.05Z" transform="translate(-35.55 -142.44)"/><path class="cls-5" d="M558.71,215.14a4.09,4.09,0,0,1-.64.71c-.75.75-1.79,1.77-1.79,2.71v.17h1A.66.66,0,0,0,558,218h-.33a.43.43,0,0,1-.09.29.37.37,0,0,1-.29.1h-.65a5.55,5.55,0,0,1,1.67-2.29l.41-.41v3.43a.39.39,0,0,1-.11.27.38.38,0,0,1-.28.12h-7.76a.38.38,0,0,1-.39-.39v-3.43l.41.41a5.58,5.58,0,0,1,1.67,2.29h-.65a.4.4,0,0,1-.29-.09.45.45,0,0,1-.09-.3h-.33a.74.74,0,0,0,.19.54.68.68,0,0,0,.52.19h1v-.17c0-.94-1-2-1.79-2.71-.27-.27-.64-.7-.64-.69h-.33v4a.76.76,0,0,0,.21.52.72.72,0,0,0,.51.22h7.76a.73.73,0,0,0,.72-.73v-4Z" transform="translate(-35.55 -142.44)"/><path class="cls-5" d="M551.18,215.05l.3.31c1.27,1.29,1.95,2.18,2,3.2h.33V211.9h-2.23a.55.55,0,0,0-.55.56,2.44,2.44,0,0,0,1.07,1.87c.14.12.34.29.34.36h.34v-1.16h-.34v.65l-.13-.11a2.17,2.17,0,0,1-.95-1.61.22.22,0,0,1,.22-.22h1.9v5a9.35,9.35,0,0,0-1.74-2.18l-.3-.3c-1.07-1.09-1.24-1.26-1.24-2.64,0-.5.05-.77.16-.88s.34-.11.7-.11h6.82c.36,0,.6,0,.71.11a1.48,1.48,0,0,1,.15.87c0,1.39-.16,1.56-1.24,2.65l-.3.3a9.35,9.35,0,0,0-1.74,2.18v-5h1.9a.23.23,0,0,1,.16.06.26.26,0,0,1,.07.16,2.18,2.18,0,0,1-1,1.61l-.13.11v-.65h-.33v1.16h.33c0-.07.2-.24.34-.36a2.47,2.47,0,0,0,1.08-1.87.59.59,0,0,0-.16-.4.56.56,0,0,0-.39-.17H555.1v6.66h.33c0-1,.71-1.91,2-3.21l.3-.3c1.08-1.1,1.34-1.36,1.34-2.89,0-.61-.07-.93-.25-1.11s-.51-.22-.94-.22H551c-.42,0-.73,0-.94.21s-.25.5-.25,1.12C549.84,213.69,550.1,214,551.18,215.05Z" transform="translate(-35.55 -142.44)"/><rect class="cls-5" x="488.39" y="78.22" width="20.35" height="0.34"/><path class="cls-5" d="M528.18,215.16v0a3.54,3.54,0,0,1-.63.71c-.76.75-1.79,1.77-1.79,2.71v.17h1a.67.67,0,0,0,.71-.73h-.33a.4.4,0,0,1-.1.29.34.34,0,0,1-.28.1h-.66a5.55,5.55,0,0,1,1.68-2.29l.4-.41v3.43a.39.39,0,0,1-.11.27.36.36,0,0,1-.28.12h-3.86v.35h3.86a.73.73,0,0,0,.72-.73v-4Z" transform="translate(-35.55 -142.44)"/><path class="cls-5" d="M523.94,211.18h3.39c.35,0,.59,0,.7.11s.15.38.15.87c0,1.39-.16,1.56-1.24,2.65l-.3.3a9.62,9.62,0,0,0-1.74,2.18v-5h1.9a.21.21,0,0,1,.22.22,2.15,2.15,0,0,1-1,1.61l-.13.11v-.65h-.33v1.16h.33c0-.07.2-.24.34-.36a2.47,2.47,0,0,0,1.08-1.87.59.59,0,0,0-.16-.4.52.52,0,0,0-.39-.17h-2.24v6.66h.33c0-1,.71-1.91,2-3.21l.29-.3c1.09-1.1,1.34-1.36,1.35-2.89,0-.61-.08-.93-.26-1.11s-.51-.22-.93-.22h-3.39Z" transform="translate(-35.55 -142.44)"/><path class="cls-5" d="M539.76,219.12a.76.76,0,0,0,.21.52.72.72,0,0,0,.51.22h3.81v-.35h-3.81a.39.39,0,0,1-.27-.11.39.39,0,0,1-.12-.28s0-2.35,0-3.43l.4.41a5.61,5.61,0,0,1,1.68,2.29h-.66a.4.4,0,0,1-.29-.09.45.45,0,0,1-.09-.3h-.33a.79.79,0,0,0,.19.54.68.68,0,0,0,.52.19h1v-.17c0-.94-1-2-1.79-2.71a4.57,4.57,0,0,1-.64-.7h-.33Z" transform="translate(-35.55 -142.44)"/><path class="cls-5" d="M541.1,215.05l.3.31c1.27,1.29,2,2.18,2,3.2h.33V211.9h-2.23a.55.55,0,0,0-.55.56,2.44,2.44,0,0,0,1.07,1.87c.14.12.34.29.35.36h.33v-1.16h-.33v.65s-1.09-.94-1.09-1.72a.22.22,0,0,1,.22-.22h1.9v5a9.27,9.27,0,0,0-1.73-2.18l-.31-.3c-1.07-1.09-1.24-1.26-1.24-2.64,0-.5,0-.77.16-.88s.34-.11.7-.11h3.34v-.35H541c-.42,0-.73,0-.94.21s-.25.5-.25,1.12C539.76,213.69,540,214,541.1,215.05Z" transform="translate(-35.55 -142.44)"/><path class="cls-5" d="M538.36,215.14a3.91,3.91,0,0,1-.63.71c-.76.75-1.8,1.77-1.8,2.71v.17h1a.67.67,0,0,0,.71-.73h-.33a.44.44,0,0,1-.1.29.36.36,0,0,1-.28.1h-.66A5.55,5.55,0,0,1,538,216.1l.41-.41v3.43a.39.39,0,0,1-.11.27.36.36,0,0,1-.28.12h-7.76a.38.38,0,0,1-.39-.39v-3.43l.41.41a5.49,5.49,0,0,1,1.67,2.29h-.65a.4.4,0,0,1-.29-.09.45.45,0,0,1-.09-.3h-.33a.74.74,0,0,0,.19.54.68.68,0,0,0,.52.19h1v-.17c0-.94-1-2-1.79-2.71-.27-.27-.64-.7-.64-.69h-.33v4a.76.76,0,0,0,.21.52.72.72,0,0,0,.51.22H538a.73.73,0,0,0,.72-.73v-4Z" transform="translate(-35.55 -142.44)"/><path class="cls-5" d="M530.83,215.05l.3.31c1.27,1.29,2,2.18,2,3.2h.33V211.9H531.2a.55.55,0,0,0-.55.56,2.44,2.44,0,0,0,1.07,1.87c.14.12.34.29.35.36h.33v-1.16h-.33v.65l-.14-.11a2.17,2.17,0,0,1-.95-1.61.22.22,0,0,1,.22-.22h1.9v5a9.54,9.54,0,0,0-1.73-2.18l-.31-.3c-1.07-1.09-1.24-1.26-1.24-2.64,0-.5,0-.77.16-.88s.34-.11.7-.11h6.82c.36,0,.6,0,.71.11a1.48,1.48,0,0,1,.15.87c0,1.39-.16,1.56-1.24,2.65l-.3.3a9.35,9.35,0,0,0-1.74,2.18v-5H537a.21.21,0,0,1,.16.06.26.26,0,0,1,.07.16,2.18,2.18,0,0,1-1,1.61l-.13.11v-.65h-.33v1.16h.33c0-.07.2-.24.34-.36a2.47,2.47,0,0,0,1.08-1.87.59.59,0,0,0-.16-.4.56.56,0,0,0-.39-.17h-2.24v6.66h.33c0-1,.71-1.91,2-3.21l.3-.3c1.09-1.1,1.34-1.36,1.34-2.89,0-.61-.07-.93-.25-1.11s-.51-.22-.94-.22h-6.82c-.42,0-.73,0-.94.21s-.25.5-.25,1.12C529.49,213.69,529.75,214,530.83,215.05Z" transform="translate(-35.55 -142.44)"/><rect class="cls-5" x="468.04" y="78.22" width="20.35" height="0.34"/><path class="cls-5" d="M507.83,215.16v0a3.54,3.54,0,0,1-.63.71c-.76.75-1.79,1.77-1.79,2.71v.17h1a.67.67,0,0,0,.71-.73h-.33a.4.4,0,0,1-.1.29.34.34,0,0,1-.28.1h-.66a5.55,5.55,0,0,1,1.68-2.29l.4-.41v3.43a.39.39,0,0,1-.11.27.36.36,0,0,1-.27.12h-3.87v.35h3.87a.72.72,0,0,0,.71-.73v-4Z" transform="translate(-35.55 -142.44)"/><path class="cls-5" d="M503.59,211.18H507c.36,0,.59,0,.7.11s.16.38.16.87c0,1.39-.17,1.56-1.25,2.65l-.3.3a9.27,9.27,0,0,0-1.73,2.18v-5h1.9a.23.23,0,0,1,.16.06.25.25,0,0,1,.06.16,2.15,2.15,0,0,1-1,1.61l-.13.11v-.65h-.33v1.16h.33c0-.07.2-.24.35-.36a2.49,2.49,0,0,0,1.07-1.87.59.59,0,0,0-.16-.4.52.52,0,0,0-.39-.17h-2.23v6.66h.34c0-1,.7-1.91,2-3.21l.3-.3c1.08-1.1,1.34-1.36,1.34-2.89,0-.61-.07-.93-.25-1.11s-.52-.22-.94-.22h-3.39Z" transform="translate(-35.55 -142.44)"/><path class="cls-5" d="M519.42,219.12a.75.75,0,0,0,.2.52.72.72,0,0,0,.51.22h3.81v-.35h-3.81a.39.39,0,0,1-.27-.11.43.43,0,0,1-.11-.28v-3.43l.4.41a5.61,5.61,0,0,1,1.68,2.29h-.66a.42.42,0,0,1-.29-.09.45.45,0,0,1-.09-.3h-.33a.79.79,0,0,0,.19.54.69.69,0,0,0,.52.19h1v-.17c0-.94-1-2-1.79-2.71a3.89,3.89,0,0,1-.63-.7h-.33Z" transform="translate(-35.55 -142.44)"/><path class="cls-5" d="M520.75,215.05l.3.31c1.27,1.29,2,2.18,2,3.2h.33V211.9h-2.23a.55.55,0,0,0-.39.16.59.59,0,0,0-.16.4,2.47,2.47,0,0,0,1.07,1.87c.15.12.34.29.35.36h.33v-1.16H522v.65s-1.09-.94-1.09-1.72a.22.22,0,0,1,.22-.22H523v5a9.27,9.27,0,0,0-1.73-2.18l-.3-.3c-1.08-1.09-1.25-1.26-1.24-2.64,0-.5,0-.77.15-.88s.35-.11.7-.11h3.34v-.35H520.6c-.42,0-.73,0-.93.21s-.26.5-.26,1.12C519.41,213.69,519.67,214,520.75,215.05Z" transform="translate(-35.55 -142.44)"/><path class="cls-5" d="M518,215.14a3.91,3.91,0,0,1-.63.71c-.76.75-1.8,1.77-1.8,2.71v.17h1a.67.67,0,0,0,.71-.73H517a.44.44,0,0,1-.1.29.36.36,0,0,1-.28.1h-.66a5.55,5.55,0,0,1,1.67-2.29l.41-.41v3.43a.39.39,0,0,1-.11.27.36.36,0,0,1-.28.12h-7.76a.38.38,0,0,1-.38-.39v-3.43l.4.41a5.61,5.61,0,0,1,1.68,2.29h-.66a.42.42,0,0,1-.29-.09.45.45,0,0,1-.09-.3h-.33a.79.79,0,0,0,.19.54.69.69,0,0,0,.52.19h1v-.17c0-.94-1-2-1.79-2.71-.27-.27-.63-.7-.63-.69h-.34v4a.76.76,0,0,0,.21.52.72.72,0,0,0,.51.22h7.76a.73.73,0,0,0,.72-.73v-4Z" transform="translate(-35.55 -142.44)"/><path class="cls-5" d="M510.48,215.05l.3.31c1.27,1.29,2,2.18,2,3.2h.33V211.9h-2.23a.55.55,0,0,0-.39.16.59.59,0,0,0-.16.4,2.47,2.47,0,0,0,1.07,1.87c.15.12.34.29.35.36h.33v-1.16h-.33v.65l-.13-.11a2.15,2.15,0,0,1-1-1.61.22.22,0,0,1,.22-.22h1.9v5a9.27,9.27,0,0,0-1.73-2.18l-.31-.3c-1.07-1.09-1.24-1.26-1.24-2.64,0-.5,0-.77.16-.88s.35-.11.7-.11h6.82c.36,0,.6,0,.71.11s.15.38.15.87c0,1.39-.16,1.56-1.24,2.65l-.3.3a9.62,9.62,0,0,0-1.74,2.18v-5h1.91a.2.2,0,0,1,.15.06.21.21,0,0,1,.07.16,2.15,2.15,0,0,1-1,1.61l-.13.11v-.65h-.33v1.16h.33c0-.07.2-.24.34-.36a2.47,2.47,0,0,0,1.08-1.87.59.59,0,0,0-.16-.4.54.54,0,0,0-.39-.17H514.4v6.66h.33c0-1,.71-1.91,2-3.21l.3-.3c1.09-1.1,1.34-1.36,1.34-2.89,0-.61-.07-.93-.25-1.11s-.51-.22-.94-.22h-6.82c-.42,0-.73,0-.93.21s-.26.5-.26,1.12C509.14,213.69,509.4,214,510.48,215.05Z" transform="translate(-35.55 -142.44)"/><rect class="cls-5" x="447.69" y="78.22" width="20.35" height="0.34"/><path class="cls-5" d="M487.48,215.16v0a4.09,4.09,0,0,1-.64.71c-.76.75-1.79,1.77-1.79,2.71v.17h1a.67.67,0,0,0,.71-.73h-.33a.4.4,0,0,1-.1.29.34.34,0,0,1-.28.1h-.66a5.55,5.55,0,0,1,1.68-2.29l.4-.41v3.43a.39.39,0,0,1-.11.27.36.36,0,0,1-.27.12h-3.87v.35h3.87a.72.72,0,0,0,.71-.73v-4Z" transform="translate(-35.55 -142.44)"/><path class="cls-5" d="M483.24,211.18h3.39c.36,0,.59,0,.7.11s.16.38.16.87c0,1.39-.17,1.56-1.25,2.65l-.3.3a9.27,9.27,0,0,0-1.73,2.18v-5h1.9a.23.23,0,0,1,.16.06.25.25,0,0,1,.06.16,2.17,2.17,0,0,1-.95,1.61l-.14.11v-.65h-.33v1.16h.33c0-.07.21-.24.35-.36a2.46,2.46,0,0,0,1.07-1.87.55.55,0,0,0-.16-.4.52.52,0,0,0-.39-.17h-2.23v6.66h.33c0-1,.7-1.91,2-3.21l.3-.3c1.08-1.1,1.34-1.36,1.34-2.89,0-.61-.07-.93-.25-1.11s-.52-.22-.94-.22h-3.39Z" transform="translate(-35.55 -142.44)"/><path class="cls-5" d="M499.07,219.12a.75.75,0,0,0,.2.52.72.72,0,0,0,.51.22h3.82v-.35h-3.82a.39.39,0,0,1-.27-.11.43.43,0,0,1-.11-.28v-3.43l.4.41a5.61,5.61,0,0,1,1.68,2.29h-.66a.38.38,0,0,1-.28-.09.42.42,0,0,1-.1-.3h-.33a.79.79,0,0,0,.19.54.69.69,0,0,0,.52.19h1v-.17c0-.94-1-2-1.79-2.71a3.89,3.89,0,0,1-.63-.7h-.33Z" transform="translate(-35.55 -142.44)"/><path class="cls-5" d="M500.4,215.05l.3.31c1.27,1.29,2,2.18,2,3.2H503V211.9h-2.23a.55.55,0,0,0-.39.16.59.59,0,0,0-.16.4,2.45,2.45,0,0,0,1.08,1.87c.14.12.33.29.34.36H502v-1.16h-.33v.65s-1.09-.94-1.09-1.72a.22.22,0,0,1,.22-.22h1.9v5a9.27,9.27,0,0,0-1.73-2.18l-.3-.3c-1.08-1.09-1.24-1.26-1.24-2.64,0-.5,0-.77.15-.88s.35-.11.7-.11h3.35v-.35h-3.35c-.42,0-.73,0-.93.21s-.26.5-.26,1.12C499.06,213.69,499.32,214,500.4,215.05Z" transform="translate(-35.55 -142.44)"/><path class="cls-5" d="M497.66,215.14a3.54,3.54,0,0,1-.63.71c-.76.75-1.79,1.77-1.79,2.71v.17h1A.67.67,0,0,0,497,218h-.33a.44.44,0,0,1-.1.29.34.34,0,0,1-.28.1h-.66a5.48,5.48,0,0,1,1.68-2.29l.4-.41v3.43a.39.39,0,0,1-.11.27.36.36,0,0,1-.28.12h-7.76a.39.39,0,0,1-.27-.11.43.43,0,0,1-.11-.28v-3.43l.4.41a5.61,5.61,0,0,1,1.68,2.29h-.66a.38.38,0,0,1-.28-.09.42.42,0,0,1-.1-.3h-.33a.79.79,0,0,0,.19.54.69.69,0,0,0,.52.19h1v-.17c0-.94-1-2-1.79-2.71-.27-.27-.63-.7-.63-.69h-.33v4a.75.75,0,0,0,.2.52.72.72,0,0,0,.51.22h7.76a.73.73,0,0,0,.72-.73v-4Z" transform="translate(-35.55 -142.44)"/><path class="cls-5" d="M490.13,215.05l.3.31c1.27,1.29,2,2.18,2,3.2h.33V211.9H490.5a.55.55,0,0,0-.39.16.59.59,0,0,0-.16.4,2.47,2.47,0,0,0,1.07,1.87c.15.12.34.29.35.36h.33v-1.16h-.33v.65l-.13-.11a2.15,2.15,0,0,1-1-1.61.22.22,0,0,1,.22-.22h1.9v5a9.27,9.27,0,0,0-1.73-2.18l-.3-.3c-1.08-1.09-1.24-1.26-1.24-2.64,0-.5,0-.77.15-.88s.35-.11.7-.11h6.83c.35,0,.59,0,.7.11s.15.38.15.87c0,1.39-.16,1.56-1.24,2.65l-.3.3a9.62,9.62,0,0,0-1.74,2.18v-5h1.9a.21.21,0,0,1,.22.22,2.15,2.15,0,0,1-1,1.61l-.13.11v-.65h-.33v1.16h.33c0-.07.2-.24.34-.36a2.47,2.47,0,0,0,1.08-1.87.59.59,0,0,0-.16-.4.54.54,0,0,0-.39-.17h-2.24v6.66h.33c0-1,.71-1.91,2-3.21l.3-.3c1.09-1.1,1.34-1.36,1.34-2.89,0-.61-.07-.93-.25-1.11s-.51-.22-.93-.22H490c-.42,0-.73,0-.93.21s-.26.5-.26,1.12C488.79,213.69,489.05,214,490.13,215.05Z" transform="translate(-35.55 -142.44)"/><rect class="cls-5" x="427.34" y="78.22" width="20.35" height="0.34"/><path class="cls-5" d="M467.14,215.16v0a4.09,4.09,0,0,1-.64.71c-.76.75-1.79,1.77-1.79,2.71v.17h1a.67.67,0,0,0,.71-.73h-.33a.43.43,0,0,1-.09.29.37.37,0,0,1-.29.1h-.65a5.43,5.43,0,0,1,1.67-2.29c.16-.17.3-.3.41-.41v3.43a.41.41,0,0,1-.39.39h-3.87v.35h3.87a.73.73,0,0,0,.72-.73v-4Z" transform="translate(-35.55 -142.44)"/><path class="cls-5" d="M462.89,211.18h3.39c.36,0,.59,0,.7.11s.16.38.16.87c0,1.39-.17,1.56-1.24,2.65l-.3.3a9.09,9.09,0,0,0-1.74,2.18v-5h1.9a.23.23,0,0,1,.16.06.25.25,0,0,1,.06.16,2.17,2.17,0,0,1-1,1.61l-.14.11v-.65h-.33v1.16h.33c0-.07.21-.24.35-.36a2.46,2.46,0,0,0,1.07-1.87.55.55,0,0,0-.16-.4.52.52,0,0,0-.39-.17h-2.23v6.66h.33c0-1,.7-1.91,2-3.21l.3-.3c1.08-1.1,1.34-1.36,1.34-2.89,0-.61-.07-.93-.25-1.11s-.52-.22-.94-.22h-3.39Z" transform="translate(-35.55 -142.44)"/><path class="cls-5" d="M478.72,219.12a.75.75,0,0,0,.2.52.72.72,0,0,0,.51.22h3.82v-.35h-3.82a.39.39,0,0,1-.27-.11.43.43,0,0,1-.11-.28v-3.43l.4.41a5.61,5.61,0,0,1,1.68,2.29h-.66a.38.38,0,0,1-.28-.09.42.42,0,0,1-.1-.3h-.33a.79.79,0,0,0,.19.54.69.69,0,0,0,.52.19h1v-.17c0-.94-1-2-1.79-2.71a3.89,3.89,0,0,1-.63-.7h-.33Z" transform="translate(-35.55 -142.44)"/><path class="cls-5" d="M480.06,215.05l.3.31c1.26,1.29,1.95,2.18,2,3.2h.33V211.9h-2.23a.57.57,0,0,0-.39.16.59.59,0,0,0-.16.4,2.45,2.45,0,0,0,1.08,1.87c.14.12.33.29.34.36h.33v-1.16h-.33v.65s-1.09-.94-1.09-1.72a.22.22,0,0,1,.22-.22h1.9v5a9.27,9.27,0,0,0-1.73-2.18l-.3-.3c-1.08-1.09-1.24-1.26-1.24-2.64,0-.5,0-.77.15-.88s.35-.11.7-.11h3.35v-.35h-3.34c-.43,0-.74,0-.94.21s-.25.5-.25,1.12C478.72,213.69,479,214,480.06,215.05Z" transform="translate(-35.55 -142.44)"/><path class="cls-5" d="M477.31,215.14a3.54,3.54,0,0,1-.63.71c-.76.75-1.79,1.77-1.79,2.71v.17h1a.67.67,0,0,0,.71-.73h-.33a.4.4,0,0,1-.1.29.34.34,0,0,1-.28.1h-.66a5.48,5.48,0,0,1,1.68-2.29l.4-.41v3.43a.39.39,0,0,1-.11.27.36.36,0,0,1-.27.12h-7.77a.39.39,0,0,1-.27-.11.43.43,0,0,1-.11-.28v-3.43l.4.41a5.61,5.61,0,0,1,1.68,2.29h-.66a.38.38,0,0,1-.28-.09.42.42,0,0,1-.1-.3h-.33a.79.79,0,0,0,.19.54.69.69,0,0,0,.52.19h1v-.17c0-.94-1-2-1.79-2.71-.27-.27-.63-.7-.63-.69h-.33v4a.75.75,0,0,0,.2.52.72.72,0,0,0,.51.22h7.77a.72.72,0,0,0,.71-.73v-4Z" transform="translate(-35.55 -142.44)"/><path class="cls-5" d="M469.79,215.05l.3.31c1.26,1.29,2,2.18,2,3.2h.34V211.9h-2.23a.55.55,0,0,0-.39.16.59.59,0,0,0-.16.4,2.45,2.45,0,0,0,1.08,1.87c.14.12.33.29.34.36h.33v-1.16H471v.65l-.13-.11a2.15,2.15,0,0,1-1-1.61.22.22,0,0,1,.22-.22h1.9v5a9.27,9.27,0,0,0-1.73-2.18l-.3-.3c-1.08-1.09-1.24-1.26-1.24-2.64,0-.5,0-.77.15-.88s.35-.11.71-.11h6.82c.35,0,.59,0,.7.11s.16.38.16.87c0,1.39-.17,1.56-1.25,2.65l-.3.3a9.27,9.27,0,0,0-1.73,2.18v-5h1.9a.23.23,0,0,1,.16.06.25.25,0,0,1,.06.16,2.15,2.15,0,0,1-1,1.61l-.13.11v-.65h-.33v1.16h.33c0-.07.2-.24.34-.36a2.47,2.47,0,0,0,1.08-1.87.59.59,0,0,0-.16-.4.52.52,0,0,0-.39-.17H473.7v6.66H474c0-1,.7-1.91,2-3.21l.29-.3c1.09-1.1,1.35-1.36,1.35-2.89,0-.61-.07-.93-.26-1.11s-.51-.22-.93-.22h-6.82c-.43,0-.74,0-.94.21s-.25.5-.25,1.12C468.45,213.69,468.7,214,469.79,215.05Z" transform="translate(-35.55 -142.44)"/><rect class="cls-5" x="407" y="78.22" width="20.35" height="0.34"/><path class="cls-5" d="M446.79,215.16v0a4.09,4.09,0,0,1-.64.71c-.75.75-1.79,1.77-1.79,2.71v.17h1a.66.66,0,0,0,.71-.73h-.33a.43.43,0,0,1-.09.29.37.37,0,0,1-.29.1h-.65a5.43,5.43,0,0,1,1.67-2.29l.41-.41v3.43a.39.39,0,0,1-.11.27.39.39,0,0,1-.28.12h-3.86v.35h3.86a.73.73,0,0,0,.72-.73v-4Z" transform="translate(-35.55 -142.44)"/><path class="cls-5" d="M442.54,211.18h3.39c.36,0,.59,0,.7.11s.16.38.16.87c0,1.39-.17,1.56-1.24,2.65l-.3.3a9.09,9.09,0,0,0-1.74,2.18v-5h1.9a.23.23,0,0,1,.16.06.25.25,0,0,1,.06.16,2.17,2.17,0,0,1-.95,1.61l-.13.11v-.65h-.33v1.16h.33c0-.07.2-.24.34-.36a2.46,2.46,0,0,0,1.07-1.87.55.55,0,0,0-.16-.4.52.52,0,0,0-.39-.17h-2.23v6.66h.33c0-1,.7-1.91,2-3.21l.3-.3c1.08-1.1,1.34-1.36,1.34-2.89,0-.61-.07-.93-.25-1.11s-.51-.22-.94-.22h-3.39Z" transform="translate(-35.55 -142.44)"/><path class="cls-5" d="M458.37,219.12a.72.72,0,0,0,.21.52.69.69,0,0,0,.51.22h3.81v-.35h-3.81a.39.39,0,0,1-.28-.11.43.43,0,0,1-.11-.28v-3.43c.11.11.24.25.41.41a5.68,5.68,0,0,1,1.67,2.29h-.66a.38.38,0,0,1-.28-.09.42.42,0,0,1-.1-.3h-.33a.79.79,0,0,0,.19.54.69.69,0,0,0,.52.19h1v-.17c0-.94-1-2-1.79-2.71a4.35,4.35,0,0,1-.63-.7h-.33Z" transform="translate(-35.55 -142.44)"/><path class="cls-5" d="M459.71,215.05l.3.31c1.26,1.29,1.95,2.18,2,3.2h.33V211.9h-2.23a.55.55,0,0,0-.55.56,2.45,2.45,0,0,0,1.08,1.87c.14.12.33.29.34.36h.33v-1.16h-.33v.65s-1.09-.94-1.09-1.72a.22.22,0,0,1,.22-.22H462v5a9.27,9.27,0,0,0-1.73-2.18l-.3-.3c-1.08-1.09-1.24-1.26-1.24-2.64a1.5,1.5,0,0,1,.15-.88c.11-.11.35-.11.71-.11h3.34v-.35h-3.34c-.43,0-.73,0-.94.21s-.25.5-.25,1.12C458.37,213.69,458.62,214,459.71,215.05Z" transform="translate(-35.55 -142.44)"/><path class="cls-5" d="M457,215.14a4.09,4.09,0,0,1-.64.71c-.76.75-1.79,1.77-1.79,2.71v.17h1a.67.67,0,0,0,.71-.73h-.33a.4.4,0,0,1-.1.29.34.34,0,0,1-.28.1h-.66a5.48,5.48,0,0,1,1.68-2.29l.4-.41v3.43a.39.39,0,0,1-.11.27.36.36,0,0,1-.27.12h-7.76a.39.39,0,0,1-.28-.11.43.43,0,0,1-.11-.28v-3.43l.4.41a5.61,5.61,0,0,1,1.68,2.29h-.66a.38.38,0,0,1-.28-.09.42.42,0,0,1-.1-.3h-.33a.79.79,0,0,0,.19.54.69.69,0,0,0,.52.19h1v-.17c0-.94-1-2-1.79-2.71-.27-.27-.63-.7-.63-.69h-.33v4a.72.72,0,0,0,.21.52.69.69,0,0,0,.51.22h7.76a.72.72,0,0,0,.71-.73v-4Z" transform="translate(-35.55 -142.44)"/><path class="cls-5" d="M449.44,215.05l.3.31c1.26,1.29,1.95,2.18,2,3.2H452V211.9H449.8a.57.57,0,0,0-.39.16.59.59,0,0,0-.16.4,2.45,2.45,0,0,0,1.08,1.87c.14.12.33.29.34.36H451v-1.16h-.33v.65l-.13-.11a2.15,2.15,0,0,1-1-1.61.22.22,0,0,1,.22-.22h1.9v5a9.62,9.62,0,0,0-1.74-2.18l-.3-.3c-1.08-1.09-1.24-1.26-1.24-2.64,0-.5,0-.77.15-.88s.35-.11.71-.11h6.82c.36,0,.59,0,.7.11s.16.38.16.87c0,1.39-.17,1.56-1.25,2.65l-.3.3a9.27,9.27,0,0,0-1.73,2.18v-5h1.9a.23.23,0,0,1,.16.06.25.25,0,0,1,.06.16,2.15,2.15,0,0,1-1,1.61l-.13.11v-.65h-.33v1.16h.33c0-.07.21-.24.35-.36a2.49,2.49,0,0,0,1.07-1.87.55.55,0,0,0-.16-.4.52.52,0,0,0-.39-.17h-2.23v6.66h.34c0-1,.7-1.91,2-3.21l.3-.3c1.08-1.1,1.34-1.36,1.34-2.89,0-.61-.07-.93-.26-1.11s-.51-.22-.93-.22h-6.82c-.43,0-.73,0-.94.21s-.25.5-.25,1.12C448.1,213.69,448.35,214,449.44,215.05Z" transform="translate(-35.55 -142.44)"/><rect class="cls-5" x="386.65" y="78.22" width="20.35" height="0.34"/><path class="cls-5" d="M426.44,215.16v0a4.09,4.09,0,0,1-.64.71c-.75.75-1.79,1.77-1.79,2.71v.17h1a.66.66,0,0,0,.71-.73h-.33a.43.43,0,0,1-.09.29.37.37,0,0,1-.29.1h-.65A5.61,5.61,0,0,1,426,216.1l.41-.41v3.43a.39.39,0,0,1-.11.27.39.39,0,0,1-.28.12h-3.86v.35h3.86a.73.73,0,0,0,.72-.73v-4Z" transform="translate(-35.55 -142.44)"/><path class="cls-5" d="M422.2,211.18h3.38c.36,0,.6,0,.7.11s.16.38.16.87c0,1.39-.17,1.56-1.24,2.65l-.3.3a9.35,9.35,0,0,0-1.74,2.18v-5h1.9a.23.23,0,0,1,.16.06.25.25,0,0,1,.06.16,2.17,2.17,0,0,1-.95,1.61l-.13.11v-.65h-.33v1.16h.33c0-.07.2-.24.34-.36a2.47,2.47,0,0,0,1.08-1.87.59.59,0,0,0-.16-.4.56.56,0,0,0-.4-.17h-2.23v6.66h.33c0-1,.71-1.91,2-3.21l.3-.3c1.08-1.1,1.34-1.36,1.34-2.89,0-.61-.07-.93-.25-1.11s-.51-.22-.94-.22H422.2Z" transform="translate(-35.55 -142.44)"/><path class="cls-5" d="M438,219.12a.72.72,0,0,0,.21.52.69.69,0,0,0,.51.22h3.81v-.35h-3.81a.39.39,0,0,1-.28-.11.43.43,0,0,1-.11-.28v-3.43c.11.11.24.25.41.41a5.68,5.68,0,0,1,1.67,2.29h-.66a.39.39,0,0,1-.28-.09.47.47,0,0,1-.1-.3h-.33a.79.79,0,0,0,.19.54.69.69,0,0,0,.52.19h1v-.17c0-.94-1-2-1.8-2.71a4.35,4.35,0,0,1-.63-.7H438Z" transform="translate(-35.55 -142.44)"/><path class="cls-5" d="M439.36,215.05l.3.31c1.26,1.29,1.95,2.18,2,3.2H442V211.9h-2.22a.55.55,0,0,0-.56.56,2.45,2.45,0,0,0,1.08,1.87c.14.12.33.29.34.36h.33v-1.16h-.33v.65s-1.09-.94-1.09-1.72a.22.22,0,0,1,.23-.22h1.89v5a9.62,9.62,0,0,0-1.74-2.18l-.3-.3c-1.08-1.09-1.24-1.26-1.24-2.64a1.5,1.5,0,0,1,.15-.88c.11-.11.35-.11.71-.11h3.34v-.35h-3.34c-.43,0-.73,0-.94.21s-.25.5-.25,1.12C438,213.69,438.27,214,439.36,215.05Z" transform="translate(-35.55 -142.44)"/><path class="cls-5" d="M436.62,215.14a4.09,4.09,0,0,1-.64.71c-.76.75-1.79,1.77-1.79,2.71v.17h1a.67.67,0,0,0,.71-.73h-.33a.43.43,0,0,1-.09.29.38.38,0,0,1-.29.1h-.66a5.48,5.48,0,0,1,1.68-2.29l.4-.41v3.43a.39.39,0,0,1-.11.27.36.36,0,0,1-.27.12h-7.76a.39.39,0,0,1-.28-.11.43.43,0,0,1-.11-.28v-3.43c.11.11.24.25.41.41a5.68,5.68,0,0,1,1.67,2.29h-.66a.39.39,0,0,1-.28-.09.47.47,0,0,1-.1-.3h-.33a.79.79,0,0,0,.19.54.69.69,0,0,0,.52.19h1v-.17c0-.94-1-2-1.8-2.71-.27-.27-.63-.7-.63-.69h-.33v4a.72.72,0,0,0,.21.52.69.69,0,0,0,.51.22h7.76a.72.72,0,0,0,.71-.73v-4Z" transform="translate(-35.55 -142.44)"/><path class="cls-5" d="M429.09,215.05l.3.31c1.26,1.29,1.95,2.18,2,3.2h.33V211.9h-2.23a.55.55,0,0,0-.55.56,2.45,2.45,0,0,0,1.08,1.87c.14.12.33.29.34.36h.33v-1.16h-.33v.65l-.13-.11a2.18,2.18,0,0,1-1-1.61.22.22,0,0,1,.22-.22h1.9v5a9.62,9.62,0,0,0-1.74-2.18l-.3-.3c-1.08-1.09-1.24-1.26-1.24-2.64a1.5,1.5,0,0,1,.15-.88c.11-.11.35-.11.71-.11h6.82c.36,0,.59,0,.7.11s.16.38.16.87c0,1.39-.17,1.56-1.25,2.65l-.3.3a9.27,9.27,0,0,0-1.73,2.18v-5h1.9a.23.23,0,0,1,.16.06.25.25,0,0,1,.06.16,2.17,2.17,0,0,1-.95,1.61l-.14.11v-.65H434v1.16h.33c0-.07.21-.24.35-.36a2.46,2.46,0,0,0,1.07-1.87.55.55,0,0,0-.16-.4.52.52,0,0,0-.39-.17H433v6.66h.33c0-1,.7-1.91,2-3.21l.3-.3c1.08-1.1,1.34-1.36,1.34-2.89,0-.61-.07-.93-.25-1.11s-.52-.22-.94-.22h-6.82c-.43,0-.73,0-.94.21s-.25.5-.25,1.12C427.75,213.69,428,214,429.09,215.05Z" transform="translate(-35.55 -142.44)"/><rect class="cls-5" x="366.3" y="78.22" width="20.35" height="0.34"/><path class="cls-5" d="M406.09,215.16v0a3.7,3.7,0,0,1-.64.71c-.75.75-1.79,1.77-1.79,2.71v.17h1a.66.66,0,0,0,.71-.73H405a.43.43,0,0,1-.09.29.37.37,0,0,1-.29.1H404a5.61,5.61,0,0,1,1.67-2.29l.41-.41v3.43a.39.39,0,0,1-.11.27.38.38,0,0,1-.28.12h-3.86v.35h3.86a.73.73,0,0,0,.72-.73v-4Z" transform="translate(-35.55 -142.44)"/><path class="cls-5" d="M401.85,211.18h3.38c.36,0,.6,0,.71.11a1.48,1.48,0,0,1,.15.87c0,1.39-.17,1.56-1.24,2.65l-.3.3a9.35,9.35,0,0,0-1.74,2.18v-5h1.9a.23.23,0,0,1,.16.06.26.26,0,0,1,.07.16,2.18,2.18,0,0,1-1,1.61l-.13.11v-.65h-.33v1.16h.33c0-.07.2-.24.34-.36a2.47,2.47,0,0,0,1.08-1.87.59.59,0,0,0-.16-.4.56.56,0,0,0-.4-.17h-2.23v6.66h.33c0-1,.71-1.91,2-3.21l.3-.3c1.08-1.1,1.34-1.36,1.34-2.89,0-.61-.07-.93-.25-1.11s-.51-.22-.94-.22h-3.38Z" transform="translate(-35.55 -142.44)"/><path class="cls-5" d="M417.67,219.12a.72.72,0,0,0,.21.52.69.69,0,0,0,.51.22h3.81v-.35h-3.81a.41.41,0,0,1-.28-.11.43.43,0,0,1-.11-.28v-3.43c.11.11.24.25.41.41a5.68,5.68,0,0,1,1.67,2.29h-.66a.39.39,0,0,1-.28-.09.47.47,0,0,1-.1-.3h-.33a.75.75,0,0,0,.2.54.67.67,0,0,0,.51.19h1v-.17c0-.94-1-2-1.79-2.71a4.08,4.08,0,0,1-.64-.7h-.33Z" transform="translate(-35.55 -142.44)"/><path class="cls-5" d="M419,215.05l.3.31c1.26,1.29,1.95,2.18,2,3.2h.33V211.9h-2.23a.55.55,0,0,0-.56.56,2.45,2.45,0,0,0,1.08,1.87c.14.12.33.29.34.36h.33v-1.16h-.33v.65s-1.09-.94-1.08-1.72a.22.22,0,0,1,.22-.22h1.89v5a9.35,9.35,0,0,0-1.74-2.18l-.3-.3c-1.08-1.09-1.24-1.26-1.24-2.64a1.5,1.5,0,0,1,.15-.88c.11-.11.35-.11.71-.11h3.34v-.35h-3.34c-.43,0-.73,0-.94.21s-.25.5-.25,1.12C417.67,213.69,417.93,214,419,215.05Z" transform="translate(-35.55 -142.44)"/><path class="cls-5" d="M416.27,215.14a4.09,4.09,0,0,1-.64.71c-.75.75-1.79,1.77-1.79,2.71v.17h1a.66.66,0,0,0,.71-.73h-.33a.43.43,0,0,1-.09.29.37.37,0,0,1-.29.1h-.65a5.37,5.37,0,0,1,1.67-2.29c.16-.17.3-.3.41-.41v3.43a.41.41,0,0,1-.39.39h-7.76a.39.39,0,0,1-.28-.11.43.43,0,0,1-.11-.28v-3.43l.41.41a5.68,5.68,0,0,1,1.67,2.29h-.66a.39.39,0,0,1-.28-.09.47.47,0,0,1-.1-.3h-.33a.75.75,0,0,0,.2.54.67.67,0,0,0,.51.19h1v-.17c0-.94-1-2-1.79-2.71-.28-.27-.64-.7-.64-.69h-.33v4a.72.72,0,0,0,.21.52.69.69,0,0,0,.51.22h7.76a.73.73,0,0,0,.72-.73v-4Z" transform="translate(-35.55 -142.44)"/><path class="cls-5" d="M408.74,215.05l.3.31c1.26,1.29,1.95,2.18,2,3.2h.33V211.9h-2.22a.55.55,0,0,0-.56.56,2.45,2.45,0,0,0,1.08,1.87c.14.12.33.29.34.36h.33v-1.16H410v.65l-.13-.11a2.18,2.18,0,0,1-1-1.61.22.22,0,0,1,.23-.22H411v5a9.62,9.62,0,0,0-1.74-2.18l-.3-.3c-1.08-1.09-1.24-1.26-1.24-2.64a1.5,1.5,0,0,1,.15-.88c.11-.11.35-.11.71-.11h6.82c.36,0,.59,0,.7.11s.16.38.16.87c0,1.39-.17,1.56-1.24,2.65l-.3.3a9.09,9.09,0,0,0-1.74,2.18v-5h1.9a.23.23,0,0,1,.16.06.25.25,0,0,1,.06.16,2.17,2.17,0,0,1-.95,1.61l-.13.11v-.65h-.33v1.16H414c0-.07.2-.24.34-.36a2.46,2.46,0,0,0,1.07-1.87.55.55,0,0,0-.16-.4.52.52,0,0,0-.39-.17h-2.23v6.66H413c0-1,.7-1.91,2-3.21l.3-.3c1.08-1.1,1.34-1.36,1.34-2.89,0-.61-.07-.93-.25-1.11s-.52-.22-.94-.22h-6.82c-.43,0-.73,0-.94.21s-.25.5-.25,1.12C407.4,213.69,407.66,214,408.74,215.05Z" transform="translate(-35.55 -142.44)"/><rect class="cls-5" x="345.95" y="78.22" width="20.35" height="0.34"/><path class="cls-5" d="M385.74,215.16v0a3.91,3.91,0,0,1-.63.71c-.76.75-1.8,1.77-1.8,2.71v.17h1A.66.66,0,0,0,385,218h-.33a.43.43,0,0,1-.09.29.37.37,0,0,1-.29.1h-.65a5.61,5.61,0,0,1,1.67-2.29l.41-.41v3.43a.39.39,0,0,1-.11.27.38.38,0,0,1-.28.12h-3.86v.35h3.86a.73.73,0,0,0,.72-.73v-4Z" transform="translate(-35.55 -142.44)"/><path class="cls-5" d="M381.5,211.18h3.38c.36,0,.6,0,.71.11a1.48,1.48,0,0,1,.15.87c0,1.39-.16,1.56-1.24,2.65l-.3.3a9.35,9.35,0,0,0-1.74,2.18v-5h1.9a.21.21,0,0,1,.16.06.26.26,0,0,1,.07.16,2.18,2.18,0,0,1-1,1.61l-.13.11v-.65h-.33v1.16h.33c0-.07.2-.24.34-.36a2.47,2.47,0,0,0,1.08-1.87.59.59,0,0,0-.16-.4.56.56,0,0,0-.39-.17h-2.24v6.66h.33c0-1,.71-1.91,2-3.21l.3-.3c1.08-1.1,1.34-1.36,1.34-2.89,0-.61-.07-.93-.25-1.11s-.51-.22-.94-.22H381.5Z" transform="translate(-35.55 -142.44)"/><path class="cls-5" d="M397.32,219.12a.72.72,0,0,0,.21.52.7.7,0,0,0,.51.22h3.81v-.35H398a.41.41,0,0,1-.28-.11.43.43,0,0,1-.11-.28v-3.43c.11.11.24.25.41.41a5.58,5.58,0,0,1,1.67,2.29h-.65a.4.4,0,0,1-.29-.09.47.47,0,0,1-.1-.3h-.33a.75.75,0,0,0,.2.54.68.68,0,0,0,.52.19h1v-.17c0-.94-1-2-1.79-2.71a4.57,4.57,0,0,1-.64-.7h-.33Z" transform="translate(-35.55 -142.44)"/><path class="cls-5" d="M398.66,215.05l.3.31c1.26,1.29,2,2.18,2,3.2h.33V211.9H399a.59.59,0,0,0-.4.16.59.59,0,0,0-.15.4,2.44,2.44,0,0,0,1.07,1.87c.14.12.33.29.34.36h.33v-1.16h-.33v.65s-1.08-.94-1.08-1.72a.22.22,0,0,1,.22-.22h1.9v5a9.35,9.35,0,0,0-1.74-2.18l-.3-.3c-1.07-1.09-1.24-1.26-1.24-2.64,0-.5.05-.77.16-.88s.34-.11.7-.11h3.34v-.35h-3.34c-.42,0-.73,0-.94.21s-.25.5-.25,1.12C397.32,213.69,397.58,214,398.66,215.05Z" transform="translate(-35.55 -142.44)"/><path class="cls-5" d="M395.92,215.14a4.09,4.09,0,0,1-.64.71c-.75.75-1.79,1.77-1.79,2.71v.17h1a.66.66,0,0,0,.71-.73h-.33a.43.43,0,0,1-.09.29.37.37,0,0,1-.29.1h-.65a5.46,5.46,0,0,1,1.67-2.29l.41-.41v3.43a.39.39,0,0,1-.11.27.39.39,0,0,1-.28.12h-7.76a.41.41,0,0,1-.28-.11.43.43,0,0,1-.11-.28v-3.43c.11.11.24.25.41.41a5.68,5.68,0,0,1,1.67,2.29h-.66a.39.39,0,0,1-.28-.09.45.45,0,0,1-.09-.3h-.34a.75.75,0,0,0,.2.54.67.67,0,0,0,.51.19h1v-.17c0-.94-1-2-1.79-2.71-.28-.27-.64-.7-.64-.69h-.33v4a.72.72,0,0,0,.21.52.7.7,0,0,0,.51.22h7.76a.73.73,0,0,0,.72-.73v-4Z" transform="translate(-35.55 -142.44)"/><path class="cls-5" d="M388.39,215.05l.3.31c1.26,1.29,1.95,2.18,2,3.2H391V211.9h-2.23a.55.55,0,0,0-.56.56,2.45,2.45,0,0,0,1.08,1.87c.14.12.33.29.34.36H390v-1.16h-.33v.65l-.13-.11a2.17,2.17,0,0,1-.95-1.61.22.22,0,0,1,.22-.22h1.9v5a9.35,9.35,0,0,0-1.74-2.18l-.3-.3c-1.08-1.09-1.24-1.26-1.24-2.64,0-.5.05-.77.16-.88s.34-.11.7-.11h6.82c.36,0,.6,0,.7.11s.16.38.16.87c0,1.39-.17,1.56-1.24,2.65l-.3.3a9.35,9.35,0,0,0-1.74,2.18v-5h1.9a.23.23,0,0,1,.16.06.25.25,0,0,1,.06.16,2.17,2.17,0,0,1-.95,1.61l-.13.11v-.65h-.33v1.16h.33c0-.07.2-.24.34-.36a2.46,2.46,0,0,0,1.07-1.87.55.55,0,0,0-.16-.4.52.52,0,0,0-.39-.17h-2.23v6.66h.33c0-1,.7-1.91,2-3.21l.3-.3c1.08-1.1,1.34-1.36,1.34-2.89,0-.61-.07-.93-.25-1.11s-.51-.22-.94-.22h-6.82c-.43,0-.73,0-.94.21s-.25.5-.25,1.12C387.05,213.69,387.31,214,388.39,215.05Z" transform="translate(-35.55 -142.44)"/><rect class="cls-5" x="325.6" y="78.22" width="20.35" height="0.34"/><path class="cls-5" d="M365.39,215.16v0a3.91,3.91,0,0,1-.63.71c-.76.75-1.8,1.77-1.8,2.71v.17h1a.67.67,0,0,0,.71-.73h-.33a.44.44,0,0,1-.1.29.36.36,0,0,1-.28.1h-.66A5.61,5.61,0,0,1,365,216.1l.41-.41v3.43a.39.39,0,0,1-.11.27.36.36,0,0,1-.28.12h-3.86v.35H365a.73.73,0,0,0,.72-.73v-4Z" transform="translate(-35.55 -142.44)"/><path class="cls-5" d="M361.15,211.18h3.38c.36,0,.6,0,.71.11s.15.38.15.87c0,1.39-.16,1.56-1.24,2.65l-.3.3a9.35,9.35,0,0,0-1.74,2.18v-5H364a.2.2,0,0,1,.15.06.21.21,0,0,1,.07.16,2.18,2.18,0,0,1-1,1.61l-.13.11v-.65h-.33v1.16h.33c0-.07.2-.24.34-.36a2.47,2.47,0,0,0,1.08-1.87.59.59,0,0,0-.16-.4.56.56,0,0,0-.39-.17h-2.24v6.66h.33c0-1,.71-1.91,2-3.21l.3-.3c1.09-1.1,1.34-1.36,1.34-2.89,0-.61-.07-.93-.25-1.11s-.51-.22-.94-.22h-3.38Z" transform="translate(-35.55 -142.44)"/><path class="cls-5" d="M377,219.12a.76.76,0,0,0,.21.52.72.72,0,0,0,.51.22h3.81v-.35h-3.81a.38.38,0,0,1-.39-.39v-3.43l.41.41a5.58,5.58,0,0,1,1.67,2.29h-.65a.4.4,0,0,1-.29-.09.45.45,0,0,1-.09-.3H378a.74.74,0,0,0,.19.54.68.68,0,0,0,.52.19h1v-.17c0-.94-1-2-1.79-2.71a4.57,4.57,0,0,1-.64-.7H377Z" transform="translate(-35.55 -142.44)"/><path class="cls-5" d="M378.31,215.05l.3.31c1.26,1.29,1.95,2.18,2,3.2h.33V211.9h-2.23a.55.55,0,0,0-.55.56,2.44,2.44,0,0,0,1.07,1.87c.14.12.34.29.34.36h.33v-1.16h-.34v.65s-1.08-.94-1.08-1.72a.22.22,0,0,1,.22-.22h1.9v5a9.35,9.35,0,0,0-1.74-2.18l-.3-.3c-1.07-1.09-1.24-1.26-1.24-2.64,0-.5.05-.77.16-.88s.34-.11.7-.11h3.34v-.35h-3.34c-.42,0-.73,0-.94.21s-.25.5-.25,1.12C377,213.69,377.23,214,378.31,215.05Z" transform="translate(-35.55 -142.44)"/><path class="cls-5" d="M375.57,215.14a4.09,4.09,0,0,1-.64.71c-.75.75-1.79,1.77-1.79,2.71v.17h1a.66.66,0,0,0,.71-.73h-.33a.43.43,0,0,1-.09.29.37.37,0,0,1-.29.1h-.65a5.46,5.46,0,0,1,1.67-2.29l.41-.41v3.43a.39.39,0,0,1-.11.27.39.39,0,0,1-.28.12h-7.76a.41.41,0,0,1-.28-.11.43.43,0,0,1-.11-.28v-3.43c.11.11.24.25.41.41a5.58,5.58,0,0,1,1.67,2.29h-.65a.4.4,0,0,1-.29-.09.45.45,0,0,1-.09-.3h-.34a.75.75,0,0,0,.2.54.68.68,0,0,0,.52.19h1v-.17c0-.94-1-2-1.79-2.71-.27-.27-.64-.7-.64-.69h-.33v4a.76.76,0,0,0,.21.52.7.7,0,0,0,.51.22h7.76a.73.73,0,0,0,.72-.73v-4Z" transform="translate(-35.55 -142.44)"/><path class="cls-5" d="M368,215.05l.3.31c1.26,1.29,2,2.18,2,3.2h.33V211.9h-2.23a.55.55,0,0,0-.39.16.56.56,0,0,0-.17.4,2.45,2.45,0,0,0,1.08,1.87c.14.12.34.29.34.36h.33v-1.16h-.33v.65l-.13-.11a2.17,2.17,0,0,1-.95-1.61.22.22,0,0,1,.22-.22h1.9v5a9.35,9.35,0,0,0-1.74-2.18l-.3-.3c-1.07-1.09-1.24-1.26-1.24-2.64,0-.5.05-.77.16-.88s.34-.11.7-.11h6.82c.36,0,.6,0,.71.11a1.48,1.48,0,0,1,.15.87c0,1.39-.17,1.56-1.24,2.65l-.3.3a9.35,9.35,0,0,0-1.74,2.18v-5h1.9a.23.23,0,0,1,.16.06.26.26,0,0,1,.07.16,2.18,2.18,0,0,1-1,1.61l-.13.11v-.65H373v1.16h.33c0-.07.2-.24.34-.36a2.47,2.47,0,0,0,1.08-1.87.59.59,0,0,0-.16-.4.56.56,0,0,0-.4-.17H372v6.66h.33c0-1,.71-1.91,2-3.21l.3-.3c1.08-1.1,1.34-1.36,1.34-2.89,0-.61-.07-.93-.25-1.11s-.51-.22-.94-.22h-6.82c-.42,0-.73,0-.94.21s-.25.5-.25,1.12C366.7,213.69,367,214,368,215.05Z" transform="translate(-35.55 -142.44)"/><rect class="cls-5" x="305.25" y="78.22" width="20.35" height="0.34"/><path class="cls-5" d="M345,215.16v0a3.54,3.54,0,0,1-.63.71c-.76.75-1.8,1.77-1.8,2.71v.17h1a.67.67,0,0,0,.71-.73H344a.44.44,0,0,1-.1.29.34.34,0,0,1-.28.1H343a5.61,5.61,0,0,1,1.67-2.29l.41-.41v3.43a.39.39,0,0,1-.11.27.36.36,0,0,1-.28.12h-3.86v.35h3.86a.73.73,0,0,0,.72-.73v-4Z" transform="translate(-35.55 -142.44)"/><path class="cls-5" d="M340.8,211.18h3.39c.35,0,.59,0,.7.11s.15.38.15.87c0,1.39-.16,1.56-1.24,2.65l-.3.3a9.62,9.62,0,0,0-1.74,2.18v-5h1.91a.21.21,0,0,1,.22.22,2.15,2.15,0,0,1-1,1.61l-.13.11v-.65h-.33v1.16h.33c0-.07.2-.24.34-.36a2.47,2.47,0,0,0,1.08-1.87.59.59,0,0,0-.16-.4.54.54,0,0,0-.39-.17h-2.24v6.66h.33c0-1,.71-1.91,2-3.21l.3-.3c1.09-1.1,1.34-1.36,1.34-2.89,0-.61-.07-.93-.25-1.11s-.51-.22-.93-.22H340.8Z" transform="translate(-35.55 -142.44)"/><path class="cls-5" d="M356.62,219.12a.76.76,0,0,0,.21.52.72.72,0,0,0,.51.22h3.81v-.35h-3.81a.38.38,0,0,1-.39-.39v-3.43l.41.41a5.49,5.49,0,0,1,1.67,2.29h-.65a.4.4,0,0,1-.29-.09.45.45,0,0,1-.09-.3h-.33a.74.74,0,0,0,.19.54.68.68,0,0,0,.52.19h1v-.17c0-.94-1-2-1.79-2.71a4.57,4.57,0,0,1-.64-.7h-.33Z" transform="translate(-35.55 -142.44)"/><path class="cls-5" d="M358,215.05l.3.31c1.27,1.29,1.95,2.18,2,3.2h.33V211.9h-2.23a.55.55,0,0,0-.55.56,2.44,2.44,0,0,0,1.07,1.87c.14.12.34.29.35.36h.33v-1.16h-.33v.65c-.05,0-1.09-.94-1.09-1.72a.22.22,0,0,1,.22-.22h1.9v5a9.35,9.35,0,0,0-1.74-2.18l-.3-.3c-1.07-1.09-1.24-1.26-1.24-2.64,0-.5.05-.77.16-.88s.34-.11.7-.11h3.34v-.35h-3.34c-.42,0-.73,0-.94.21s-.25.5-.25,1.12C356.62,213.69,356.88,214,358,215.05Z" transform="translate(-35.55 -142.44)"/><path class="cls-5" d="M355.22,215.14a4.09,4.09,0,0,1-.64.71c-.75.75-1.79,1.77-1.79,2.71v.17h1a.66.66,0,0,0,.71-.73h-.33a.43.43,0,0,1-.09.29.37.37,0,0,1-.29.1h-.65a5.55,5.55,0,0,1,1.67-2.29l.41-.41v3.43a.39.39,0,0,1-.11.27.38.38,0,0,1-.28.12h-7.76a.38.38,0,0,1-.39-.39v-3.43l.41.41a5.58,5.58,0,0,1,1.67,2.29h-.65a.4.4,0,0,1-.29-.09.45.45,0,0,1-.09-.3h-.33a.74.74,0,0,0,.19.54.68.68,0,0,0,.52.19h1v-.17c0-.94-1-2-1.79-2.71-.27-.27-.64-.7-.64-.69h-.33v4a.76.76,0,0,0,.21.52.72.72,0,0,0,.51.22h7.76a.73.73,0,0,0,.72-.73v-4Z" transform="translate(-35.55 -142.44)"/><path class="cls-5" d="M347.69,215.05l.3.31c1.27,1.29,1.95,2.18,2,3.2h.33V211.9h-2.23a.55.55,0,0,0-.55.56,2.44,2.44,0,0,0,1.07,1.87c.14.12.34.29.34.36h.34v-1.16h-.34v.65l-.13-.11a2.17,2.17,0,0,1-1-1.61.22.22,0,0,1,.22-.22H350v5a9.35,9.35,0,0,0-1.74-2.18l-.3-.3c-1.07-1.09-1.24-1.26-1.24-2.64,0-.5.05-.77.16-.88s.34-.11.7-.11h6.82c.36,0,.6,0,.71.11a1.48,1.48,0,0,1,.15.87c0,1.39-.16,1.56-1.24,2.65l-.3.3a9.35,9.35,0,0,0-1.74,2.18v-5h1.9a.23.23,0,0,1,.16.06.26.26,0,0,1,.07.16,2.18,2.18,0,0,1-1,1.61l-.13.11v-.65h-.33v1.16H353c0-.07.2-.24.34-.36a2.47,2.47,0,0,0,1.08-1.87.59.59,0,0,0-.16-.4.56.56,0,0,0-.39-.17h-2.24v6.66h.33c0-1,.71-1.91,2-3.21l.3-.3c1.08-1.1,1.34-1.36,1.34-2.89,0-.61-.07-.93-.25-1.11s-.51-.22-.94-.22h-6.82c-.42,0-.73,0-.94.21s-.25.5-.25,1.12C346.35,213.69,346.61,214,347.69,215.05Z" transform="translate(-35.55 -142.44)"/><rect class="cls-5" x="284.9" y="78.22" width="20.35" height="0.34"/><path class="cls-5" d="M324.69,215.16v0a3.54,3.54,0,0,1-.63.71c-.76.75-1.79,1.77-1.79,2.71v.17h1A.67.67,0,0,0,324,218h-.33a.4.4,0,0,1-.1.29.34.34,0,0,1-.28.1h-.66a5.55,5.55,0,0,1,1.68-2.29l.4-.41v3.43a.39.39,0,0,1-.11.27.36.36,0,0,1-.28.12h-3.86v.35h3.86a.73.73,0,0,0,.72-.73v-4Z" transform="translate(-35.55 -142.44)"/><path class="cls-5" d="M320.45,211.18h3.39c.35,0,.59,0,.7.11s.15.38.15.87c0,1.39-.16,1.56-1.24,2.65l-.3.3a9.62,9.62,0,0,0-1.74,2.18v-5h1.9a.21.21,0,0,1,.22.22,2.15,2.15,0,0,1-1,1.61l-.13.11v-.65h-.33v1.16h.33c0-.07.2-.24.34-.36a2.47,2.47,0,0,0,1.08-1.87.59.59,0,0,0-.16-.4.52.52,0,0,0-.39-.17h-2.24v6.66h.33c0-1,.71-1.91,2-3.21l.29-.3c1.09-1.1,1.34-1.36,1.35-2.89,0-.61-.08-.93-.26-1.11s-.51-.22-.93-.22h-3.39Z" transform="translate(-35.55 -142.44)"/><path class="cls-5" d="M336.27,219.12a.76.76,0,0,0,.21.52.72.72,0,0,0,.51.22h3.81v-.35H337a.39.39,0,0,1-.27-.11.39.39,0,0,1-.12-.28s0-2.35,0-3.43l.4.41a5.61,5.61,0,0,1,1.68,2.29H338a.4.4,0,0,1-.29-.09.45.45,0,0,1-.09-.3h-.33a.79.79,0,0,0,.19.54.69.69,0,0,0,.52.19h1v-.17c0-.94-1-2-1.79-2.71a4.57,4.57,0,0,1-.64-.7h-.33Z" transform="translate(-35.55 -142.44)"/><path class="cls-5" d="M337.61,215.05l.3.31c1.27,1.29,2,2.18,2,3.2h.33V211.9H338a.55.55,0,0,0-.55.56,2.44,2.44,0,0,0,1.07,1.87c.14.12.34.29.35.36h.33v-1.16h-.33v.65s-1.09-.94-1.09-1.72a.22.22,0,0,1,.22-.22h1.9v5a9.27,9.27,0,0,0-1.73-2.18l-.31-.3c-1.07-1.09-1.24-1.26-1.24-2.64,0-.5,0-.77.16-.88s.34-.11.7-.11h3.34v-.35h-3.34c-.42,0-.73,0-.94.21s-.25.5-.25,1.12C336.27,213.69,336.53,214,337.61,215.05Z" transform="translate(-35.55 -142.44)"/><path class="cls-5" d="M334.87,215.14a3.91,3.91,0,0,1-.63.71c-.76.75-1.8,1.77-1.8,2.71v.17h1a.67.67,0,0,0,.71-.73h-.33a.44.44,0,0,1-.1.29.36.36,0,0,1-.28.1h-.66a5.55,5.55,0,0,1,1.67-2.29l.41-.41v3.43a.39.39,0,0,1-.11.27.36.36,0,0,1-.28.12h-7.76a.39.39,0,0,1-.27-.11.39.39,0,0,1-.12-.28v-3.43l.41.41a5.49,5.49,0,0,1,1.67,2.29h-.65a.4.4,0,0,1-.29-.09.45.45,0,0,1-.09-.3h-.33a.74.74,0,0,0,.19.54.68.68,0,0,0,.52.19h1v-.17c0-.94-1-2-1.79-2.71-.27-.27-.64-.7-.64-.69H326v4a.76.76,0,0,0,.21.52.72.72,0,0,0,.51.22h7.76a.73.73,0,0,0,.72-.73v-4Z" transform="translate(-35.55 -142.44)"/><path class="cls-5" d="M327.34,215.05l.3.31c1.27,1.29,1.95,2.18,2,3.2h.33V211.9h-2.23a.55.55,0,0,0-.55.56,2.44,2.44,0,0,0,1.07,1.87c.14.12.34.29.35.36h.33v-1.16h-.33v.65l-.14-.11a2.17,2.17,0,0,1-.95-1.61.22.22,0,0,1,.22-.22h1.9v5a9.54,9.54,0,0,0-1.73-2.18l-.31-.3c-1.07-1.09-1.24-1.26-1.24-2.64,0-.5.05-.77.16-.88s.34-.11.7-.11H334c.36,0,.6,0,.71.11a1.48,1.48,0,0,1,.15.87c0,1.39-.16,1.56-1.24,2.65l-.3.3a9.35,9.35,0,0,0-1.74,2.18v-5h1.9a.21.21,0,0,1,.16.06.26.26,0,0,1,.07.16,2.18,2.18,0,0,1-1,1.61l-.13.11v-.65h-.33v1.16h.33c0-.07.2-.24.34-.36a2.47,2.47,0,0,0,1.08-1.87.59.59,0,0,0-.16-.4.56.56,0,0,0-.39-.17h-2.24v6.66h.33c0-1,.71-1.91,2-3.21l.3-.3c1.09-1.1,1.34-1.36,1.34-2.89,0-.61-.07-.93-.25-1.11s-.51-.22-.94-.22h-6.82c-.42,0-.73,0-.94.21s-.25.5-.25,1.12C326,213.69,326.26,214,327.34,215.05Z" transform="translate(-35.55 -142.44)"/><rect class="cls-5" x="264.55" y="78.22" width="20.35" height="0.34"/><path class="cls-5" d="M304.34,215.16v0a3.54,3.54,0,0,1-.63.71c-.76.75-1.79,1.77-1.79,2.71v.17h1a.67.67,0,0,0,.71-.73h-.33a.4.4,0,0,1-.1.29.34.34,0,0,1-.28.1h-.66a5.55,5.55,0,0,1,1.68-2.29l.4-.41v3.43a.39.39,0,0,1-.11.27.36.36,0,0,1-.27.12h-3.87v.35H304a.72.72,0,0,0,.71-.73v-4Z" transform="translate(-35.55 -142.44)"/><path class="cls-5" d="M300.1,211.18h3.39c.36,0,.59,0,.7.11s.16.38.16.87c0,1.39-.17,1.56-1.25,2.65l-.3.3a9.27,9.27,0,0,0-1.73,2.18v-5H303a.23.23,0,0,1,.16.06.25.25,0,0,1,.06.16,2.15,2.15,0,0,1-1,1.61l-.13.11v-.65h-.33v1.16h.33c0-.07.2-.24.35-.36a2.49,2.49,0,0,0,1.07-1.87.59.59,0,0,0-.16-.4.52.52,0,0,0-.39-.17h-2.23v6.66h.33c0-1,.7-1.91,2-3.21l.3-.3c1.08-1.1,1.34-1.36,1.34-2.89,0-.61-.07-.93-.25-1.11s-.52-.22-.94-.22H300.1Z" transform="translate(-35.55 -142.44)"/><path class="cls-5" d="M315.93,219.12a.75.75,0,0,0,.2.52.72.72,0,0,0,.51.22h3.81v-.35h-3.81a.39.39,0,0,1-.27-.11.43.43,0,0,1-.11-.28v-3.43l.4.41a5.61,5.61,0,0,1,1.68,2.29h-.66a.42.42,0,0,1-.29-.09.45.45,0,0,1-.09-.3H317a.79.79,0,0,0,.19.54.69.69,0,0,0,.52.19h1v-.17c0-.94-1-2-1.79-2.71a3.89,3.89,0,0,1-.63-.7h-.33Z" transform="translate(-35.55 -142.44)"/><path class="cls-5" d="M317.26,215.05l.3.31c1.27,1.29,2,2.18,2,3.2h.33V211.9h-2.23a.55.55,0,0,0-.39.16.59.59,0,0,0-.16.4,2.47,2.47,0,0,0,1.07,1.87c.15.12.34.29.35.36h.33v-1.16h-.33v.65s-1.09-.94-1.09-1.72a.22.22,0,0,1,.22-.22h1.9v5a9.27,9.27,0,0,0-1.73-2.18l-.3-.3c-1.08-1.09-1.25-1.26-1.24-2.64,0-.5,0-.77.15-.88s.35-.11.7-.11h3.34v-.35h-3.34c-.42,0-.73,0-.93.21s-.26.5-.26,1.12C315.92,213.69,316.18,214,317.26,215.05Z" transform="translate(-35.55 -142.44)"/><path class="cls-5" d="M314.52,215.14a3.91,3.91,0,0,1-.63.71c-.76.75-1.8,1.77-1.8,2.71v.17h1a.67.67,0,0,0,.71-.73h-.33a.44.44,0,0,1-.1.29.36.36,0,0,1-.28.1h-.66a5.55,5.55,0,0,1,1.67-2.29l.41-.41v3.43a.39.39,0,0,1-.11.27.36.36,0,0,1-.28.12h-7.76a.38.38,0,0,1-.38-.39v-3.43l.4.41a5.61,5.61,0,0,1,1.68,2.29h-.66a.42.42,0,0,1-.29-.09.45.45,0,0,1-.09-.3h-.33a.79.79,0,0,0,.19.54.69.69,0,0,0,.52.19h1v-.17c0-.94-1-2-1.79-2.71-.27-.27-.63-.7-.63-.69h-.34v4a.76.76,0,0,0,.21.52.72.72,0,0,0,.51.22h7.76a.73.73,0,0,0,.72-.73v-4Z" transform="translate(-35.55 -142.44)"/><path class="cls-5" d="M307,215.05l.3.31c1.27,1.29,2,2.18,2,3.2h.33V211.9h-2.23a.55.55,0,0,0-.39.16.59.59,0,0,0-.16.4,2.47,2.47,0,0,0,1.07,1.87c.15.12.34.29.35.36h.33v-1.16h-.33v.65l-.13-.11a2.15,2.15,0,0,1-1-1.61.22.22,0,0,1,.22-.22h1.9v5a9.27,9.27,0,0,0-1.73-2.18l-.31-.3c-1.07-1.09-1.24-1.26-1.24-2.64,0-.5,0-.77.16-.88s.35-.11.7-.11h6.82c.36,0,.6,0,.71.11s.15.38.15.87c0,1.39-.16,1.56-1.24,2.65l-.3.3a9.62,9.62,0,0,0-1.74,2.18v-5h1.91a.2.2,0,0,1,.15.06.21.21,0,0,1,.07.16,2.15,2.15,0,0,1-1,1.61l-.13.11v-.65H312v1.16h.33c0-.07.2-.24.34-.36a2.47,2.47,0,0,0,1.08-1.87.59.59,0,0,0-.16-.4.54.54,0,0,0-.39-.17h-2.24v6.66h.33c0-1,.71-1.91,2-3.21l.3-.3c1.09-1.1,1.34-1.36,1.34-2.89,0-.61-.07-.93-.25-1.11s-.51-.22-.94-.22h-6.82c-.42,0-.73,0-.93.21s-.26.5-.26,1.12C305.65,213.69,305.91,214,307,215.05Z" transform="translate(-35.55 -142.44)"/></g></g><rect class="cls-5" x="64.55" y="79.81" width="400" height="4"/><rect class="cls-11" x="84.45" y="47.56" width="2" height="8"/><rect class="cls-11" x="88.45" y="46.56" width="4" height="4"/><rect class="cls-11" x="88.45" y="52.56" width="4" height="4"/><rect class="cls-11" x="184.45" y="47.56" width="2" height="8"/><rect class="cls-11" x="188.45" y="46.56" width="4" height="4"/><rect class="cls-11" x="188.45" y="52.56" width="4" height="4"/><rect class="cls-11" x="204.45" y="47.56" width="2" height="8"/><rect class="cls-11" x="208.45" y="46.56" width="4" height="4"/><rect class="cls-11" x="208.45" y="52.56" width="4" height="4"/><rect class="cls-11" x="352.45" y="47.56" width="2" height="8"/><rect class="cls-11" x="356.45" y="46.56" width="4" height="4"/><rect class="cls-11" x="356.45" y="52.56" width="4" height="4"/><text class="cls-12" transform="translate(96.83 56.12)">123456789</text><text class="cls-12" transform="translate(217.61 56.12)">12345678901234</text><text class="cls-12" transform="translate(380.65 56.12)">1234</text><text class="cls-13" transform="translate(107 23.87)">Routing No.</text><text class="cls-13" transform="translate(249.92 23.87)">Account No.</text><text class="cls-13" transform="translate(372.56 23.87)">Check No.</text><rect class="cls-14" x="94.28" y="37.56" width="88" height="24"/><line class="cls-14" x1="138.28" y1="28.56" x2="138.28" y2="36.56"/><rect class="cls-14" x="378.4" y="37.56" width="43" height="24"/><line class="cls-14" x1="399.9" y1="28.56" x2="399.9" y2="36.56"/><rect class="cls-14" x="215.38" y="37.56" width="135" height="24"/><line class="cls-14" x1="282.88" y1="28.56" x2="282.88" y2="36.56"/></svg>