<?xml version="1.0" encoding="utf-8"?>
<!-- Generator: Adobe Illustrator 21.0.2, SVG Export Plug-In . SVG Version: 6.00 Build 0)  -->
<svg version="1.1" id="Layer_2" xmlns="http://www.w3.org/2000/svg" xmlns:xlink="http://www.w3.org/1999/xlink" x="0px" y="0px"
	 viewBox="0 0 1152 237.4" style="enable-background:new 0 0 1152 237.4;" xml:space="preserve">
<style type="text/css">
	.st0{fill:url(#SVGID_1_);}
	.st1{fill:#259CD7;}
	.st2{fill:#004D8D;}
	.st3{fill:url(#SVGID_2_);}
	.st4{fill:#A8D7EF;}
	.st5{fill:#FFFFFF;}
</style>
<g>
	<g>
		
			<linearGradient id="SVGID_1_" gradientUnits="userSpaceOnUse" x1="23.9" y1="121.3" x2="196.3" y2="121.3" gradientTransform="matrix(1 0 0 -1 0 240)">
			<stop  offset="0" style="stop-color:#A8D7EF;stop-opacity:0.5"/>
			<stop  offset="0.5" style="stop-color:#A8D7EF"/>
		</linearGradient>
		<path class="st0" d="M107.5,16.7c44.9,0,81.4,45.7,81.4,102s-36.5,102-81.4,102s-81.4-45.7-81.4-102S62.6,16.7,107.5,16.7
			 M107.5,14.2c-46.2,0-83.6,46.8-83.6,104.5s37.4,104.5,83.6,104.5s88.8-46.8,88.8-104.5S153.6,14.2,107.5,14.2L107.5,14.2z"/>
		<g>
			<path class="st1" d="M30.9,100.9c0,0,0.5-1.9,1.3-5.4c0.2-0.9,0.4-1.9,0.8-2.9c0.4-1,0.8-2.2,1.2-3.4c0.5-1.2,0.9-2.6,1.4-3.9
				c0.6-1.4,1.3-2.8,2-4.3c2.9-6,7-13.1,13.2-20c6.2-6.8,14.3-13.6,24.5-18.5c10.2-4.8,22.4-7.8,35.6-7.3c1.6,0,3.3,0.3,4.9,0.5
				l2.5,0.3l1.3,0.1l1.4,0.3c3.2,0.7,6.2,1.2,9.7,2.5c1.7,0.6,3.5,1.1,5.2,1.8c1.6,0.8,3.3,1.5,4.9,2.3c1.7,0.7,3.2,1.7,4.8,2.7
				l2.4,1.4l1.2,0.7l1.1,0.8c6.2,4.3,11.8,9.8,16.9,16c1.2,1.6,2.4,3.2,3.6,4.9c0.6,0.8,1.2,1.7,1.7,2.6l1.6,2.6l1.6,2.7
				c0.5,0.9,0.9,1.9,1.4,2.8c0.9,1.9,1.8,3.8,2.6,5.7c3.1,7.8,5,16.2,5.9,24.8l0.3,6.5l0.1,1.6l-0.1,1.6l-0.2,3.2
				c-0.1,2.2-0.2,4.3-0.6,6.5l-0.5,3.2l-0.2,1.6l-0.1,0.8l-0.1,0.4v0.2c-0.1,0.3,0.1-0.3-0.1,0.7l-1.4,5.6l-0.4,1.4
				c-0.1,0.5-0.2,0.9-0.4,1.5l-1.1,3.2l-1.2,3.2l-0.6,1.6l-0.7,1.5c-0.9,1.9-1.9,3.8-2.8,5.7c-4.1,7.4-9.1,14.2-15,20
				c-1.5,1.4-3,2.7-4.5,4.1c-0.8,0.6-1.5,1.3-2.3,1.9l-2.5,1.7l-2.4,1.7c-0.8,0.6-1.6,1.1-2.5,1.6c-1.7,1-3.4,1.9-5.1,2.9
				c-7,3.4-14.3,5.9-21.6,7c-7.3,1.1-14.6,1.3-21.6,0.2c-3.5-0.3-6.8-1.3-10.2-2.1l-0.6-0.2l-0.3-0.1h-0.2c0,0-0.5-0.1-0.4-0.1
				l-1.1-0.4l-2.3-0.8l-2.2-0.8c-0.7-0.3-1.5-0.5-2.3-0.9c-1.5-0.7-3.1-1.5-4.6-2.2c-0.7-0.4-1.5-0.7-2.2-1.1l-2.1-1.3
				c-1.4-0.8-2.7-1.7-4.1-2.5c-1.3-0.9-2.5-1.9-3.8-2.9c-2.6-1.8-4.7-4-6.9-6c-1.1-1-2.1-2.1-3.1-3.3c-1-1.1-2-2.2-2.9-3.3
				c-7.3-9-12.1-18.8-15.1-27.7c-3-9-4-17.3-4.3-24c0-1.7-0.1-3.3-0.1-4.8s0.2-2.9,0.2-4.2c0.1-1.3,0.2-2.5,0.2-3.6
				c0.1-1.1,0.3-2.1,0.4-3C30.6,102.9,30.9,100.9,30.9,100.9z M30.9,100.9c0,0-0.3,1.9-0.8,5.5c-0.1,0.9-0.3,1.9-0.4,3
				s-0.1,2.3-0.2,3.6c0,1.3-0.2,2.7-0.2,4.2c0.1,1.5,0.1,3.1,0.2,4.8c0.5,6.7,1.7,14.9,5.2,23.5c3.4,8.6,8.8,17.7,16.5,25.4
				c4,3.8,8.3,7.4,13.3,10.3c1.2,0.7,2.5,1.5,3.7,2.2c1.3,0.6,2.6,1.2,4,1.8l2,0.9c0.7,0.3,1.4,0.5,2,0.7c1.4,0.4,2.7,0.9,4.1,1.4
				c0.6,0.3,1.4,0.4,2.2,0.6l2.3,0.5l2.3,0.5l1.2,0.3c0.2,0.1-0.2,0-0.1,0h0.1h0.3l0.6,0.1c3,0.3,6,0.8,9.1,0.6
				c6.1,0.2,12.3-1,18.3-2.6c1.5-0.5,3-1,4.5-1.5s2.9-1.3,4.4-1.8l2.2-0.9l2.1-1.2c1.4-0.8,2.8-1.5,4.2-2.4
				c5.4-3.4,10.3-7.8,14.8-12.5l3.2-3.8c0.6-0.6,1-1.3,1.5-2l1.4-2l1.4-2c0.5-0.7,0.8-1.4,1.3-2.2c0.8-1.5,1.7-2.9,2.4-4.4
				s1.3-3.1,2.1-4.6l0.5-1.1l0.4-1.1l0.8-2.2l0.8-2.2c0.1-0.3,0.3-0.8,0.4-1.3l0.3-1.4l1.4-5.6c-0.2,0.9,0,0.2-0.1,0.3v-0.2v-0.3
				l0.1-0.6l0.2-1.3l0.4-2.5c0.4-1.7,0.4-3.4,0.5-5.1c0.4-3.4,0.2-6.8,0.1-10.2c-0.1-1.7-0.4-3.4-0.5-5.1c-0.1-0.8-0.1-1.7-0.3-2.5
				l-0.5-2.5l-0.5-2.5c-0.1-0.8-0.3-1.7-0.6-2.5c-0.5-1.6-0.9-3.2-1.4-4.9c-2.2-6.3-5-12.4-8.6-18c-0.9-1.4-1.9-2.7-2.9-4
				c-0.5-0.7-1-1.3-1.5-2l-1.6-1.8c-1.1-1.2-2.1-2.5-3.2-3.6c-1.2-1.1-2.3-2.2-3.5-3.3l-0.9-0.8l-0.9-0.7l-1.9-1.5
				c-1.3-1-2.5-2-3.8-2.8s-2.7-1.7-4-2.5s-2.7-1.4-4-2.1c-2.5-1.4-5.8-2.4-8.8-3.6l-0.6-0.2l-0.3-0.1l-0.1-0.1c-0.1,0,0.3,0.1,0.1,0
				l-1.1-0.3l-2.2-0.5c-1.5-0.3-2.9-0.8-4.4-1s-2.9-0.4-4.4-0.6c-0.7-0.1-1.5-0.2-2.2-0.3c-0.7,0-1.5,0-2.2-0.1
				c-1.5,0-2.9-0.1-4.3-0.1c-1.4,0.1-2.8,0.2-4.2,0.3c-5.6,0.4-11,1.8-16.1,3.5c-9.8,4-18.3,9.8-24.7,16.1
				C45.2,68.3,41,75.3,37.9,81.1c-0.7,1.5-1.4,2.9-2.1,4.3c-0.6,1.4-1,2.7-1.5,3.9c-0.4,1.2-0.9,2.4-1.2,3.4c-0.4,1-0.6,2-0.8,2.9
				C31.4,99.1,30.9,100.9,30.9,100.9z"/>
		</g>
		<g>
			<path class="st2" d="M52.3,63.5c0,0,1.3-1.3,3.7-3.6c0.6-0.6,1.3-1.3,2.1-1.9c0.8-0.6,1.7-1.4,2.7-2.1c1-0.7,2-1.6,3.1-2.4
				c1.2-0.8,2.4-1.6,3.7-2.4c5.3-3.2,12.2-6.9,20.7-8.8c8.4-2,18.4-2.8,29-0.8c10.6,2.1,21.6,7.1,31.2,15.4c1.2,1,2.3,2.2,3.5,3.3
				l1.7,1.7l0.9,0.8c0.4,0.4,0.5,0.6,0.8,1c2,2.5,4.2,4.9,6,7.8c3.9,5.5,6.8,11.9,9.3,18.5c0.5,1.7,1.1,3.4,1.6,5.1s0.8,3.5,1.2,5.2
				l0.6,2.6l0.4,2.7c0.2,1.8,0.5,3.6,0.6,5.4c0.5,7.3,0,14.7-1.2,22c-1.4,7.3-3.8,14.4-7,21.1c-3.3,6.7-7.6,12.8-12.4,18.4
				c-2.7,2.6-5,5.3-8,7.5l-2.1,1.7l-1.1,0.9l-1.1,0.7l-4.6,3c-6.3,3.5-13,6.3-19.9,7.9c-6.9,1.4-14,2-20.9,1.4
				c-1.7-0.1-3.4-0.5-5.1-0.7c-0.9-0.1-1.7-0.2-2.6-0.4l-2.5-0.6c-1.7-0.5-3.3-0.8-5-1.3c-1.6-0.6-3.2-1.2-4.8-1.8
				c-6.3-2.6-12.2-5.9-17.3-10.2c-2.7-1.9-5-4.4-7.3-6.6c-0.3-0.3-0.5-0.5-0.9-0.9l-0.8-0.9l-1.5-1.8c-1-1.2-2.1-2.3-3-3.7
				c-7.8-10.5-12.3-22.2-14.3-33.5c-1.9-11.3-1.1-22,0.8-30.9c1.8-9.1,5.2-16.3,8.3-22c0.8-1.4,1.6-2.7,2.3-4
				c0.8-1.2,1.6-2.3,2.3-3.3s1.4-2,2-2.8c0.6-0.9,1.3-1.5,1.8-2.2C51.1,64.9,52.3,63.6,52.3,63.5L52.3,63.5z M52.5,63.8
				c0,0-1.2,1.4-3.4,4c-0.5,0.7-1.2,1.4-1.8,2.2c-0.6,0.9-1.2,1.8-1.9,2.8s-1.5,2.1-2.2,3.3c-0.7,1.3-1.4,2.6-2.2,4
				c-2.9,5.7-5.9,13.1-7.4,22s-1.7,19.3,0.5,30.1s6.9,22,14.1,31.8c0.9,1.3,2,2.4,3,3.6l1.5,1.8l0.8,0.9l0.8,0.8
				c2.3,2.1,4.4,4.5,7,6.3c4.9,4.1,10.6,7.1,16.5,9.8c1.5,0.6,3,1.2,4.6,1.7c1.5,0.6,3.1,0.9,4.7,1.3l2.4,0.6
				c0.8,0.2,1.6,0.3,2.4,0.4c1.6,0.2,3.3,0.6,4.9,0.7c6.6,0.6,13.4,0.2,20.1-1c6.7-1.4,13.2-3.9,19.3-7.2
				c6.1-3.4,11.7-7.8,16.8-12.9c4.9-5.3,9.2-11.1,12.6-17.6c3.2-6.6,5.7-13.5,7.1-20.7c1.3-7.2,1.6-14.5,1-21.7
				c-0.1-1.8-0.5-3.5-0.7-5.3c-0.1-0.9-0.2-1.8-0.4-2.6l-0.6-2.6c-0.5-1.7-0.8-3.4-1.3-5.1c-0.6-1.6-1.1-3.3-1.7-4.9
				c-2.5-6.4-5.6-12.5-9.5-17.6c-1.7-2.7-4.1-5-6.1-7.5c-0.2-0.3-0.6-0.7-0.7-0.9l-0.8-0.8l-1.7-1.6c-1.1-1-2.2-2.2-3.4-3.1
				c-9.4-7.7-19.9-12.6-30-15c-10.1-2.3-19.9-2.1-28.2-0.4c-8.4,1.6-15.3,4.7-20.7,7.9c-1.3,0.8-2.6,1.6-3.8,2.3
				c-1.1,1-2.1,1.9-3.1,2.6s-1.9,1.4-2.7,2.1c-0.8,0.6-1.5,1.4-2.1,1.9C53.8,62.6,52.5,63.8,52.5,63.8L52.5,63.8z"/>
		</g>
		<g>
			<path class="st2" d="M166.7,109.2c0,0,0.1,1.7,0.3,4.8c0,0.8,0.1,1.6,0.1,2.6s-0.1,2-0.1,3.2c-0.1,1.1,0,2.4-0.2,3.7
				c-0.2,1.3-0.3,2.7-0.5,4.1c-0.8,5.8-2.3,12.8-5.6,20.3c-3.2,7.4-8.1,15.4-15.2,22.3c-7.1,6.9-16.3,12.8-27.1,15.9
				c-1.3,0.4-2.7,0.6-4.1,0.9l-2.1,0.4l-1,0.2c0.1,0-0.2,0-0.3,0h-0.1h-0.3H110c-2.8,0.2-5.4,0.7-8.5,0.5c-6,0.1-11.9-1-17.8-2.7
				c-1.5-0.5-2.9-1-4.4-1.5s-2.9-1.3-4.3-1.9l-2.1-1l-1.9-1c-1.4-0.8-2.8-1.6-4.1-2.5c-5.4-3.6-10.2-8.1-14.6-13.2
				c-4.3-5.2-7.8-11.1-10.7-17.4l-1.9-4.9l-0.5-1.2l-0.4-1.3l-0.7-2.5c-0.5-1.7-1-3.4-1.2-5.1l-0.5-2.6l-0.2-1.3l-0.1-0.7L36,127
				v-0.2c0-0.1,0,0.1,0-0.4l-0.4-5c0-0.9-0.2-1.6-0.2-2.5v-2.7v-2.7v-1.4l0.1-1.3l0.6-5.3c1.1-7,3-13.8,5.8-20.2
				c2.9-6.3,6.5-12.2,10.9-17.4c1.1-1.3,2.3-2.5,3.4-3.7c0.6-0.6,1.1-1.2,1.7-1.8l1.9-1.6c1.3-1,2.5-2.2,3.8-3.1
				c1.3-0.9,2.7-1.9,4-2.8c5.5-3.3,11.2-6.2,17.1-7.7c2.9-1,5.9-1.3,8.8-1.9l0.5-0.1h0.3h0.1c0,0,0.6-0.1,0.4,0l1-0.1l2-0.1l2-0.1
				c0.7,0,1.3-0.1,2.1,0c1.5,0.1,3,0.2,4.4,0.2c0.7,0.1,1.5,0.1,2.2,0.2l2.1,0.4c1.4,0.2,2.7,0.5,4.1,0.7c1.3,0.3,2.6,0.8,3.9,1.1
				c5.2,1.4,9.9,3.9,14.3,6.4c8.6,5.3,15.1,12.1,19.8,18.7c4.8,6.6,7.7,13.3,9.7,18.8c0.5,1.4,0.9,2.7,1.3,4
				c0.4,1.2,0.6,2.5,0.9,3.6c0.3,1.1,0.5,2.1,0.7,3.1c0.2,0.9,0.3,1.8,0.4,2.6C166.5,107.6,166.7,109.2,166.7,109.2L166.7,109.2z
				 M165.8,109.3c0,0-0.3-1.6-0.9-4.7c-0.2-0.8-0.3-1.6-0.5-2.5c-0.3-0.9-0.6-1.9-0.9-3c-0.3-1.1-0.6-2.2-1-3.4
				c-0.5-1.2-1-2.4-1.5-3.7c-0.3-0.7-0.6-1.3-0.8-2c-0.3-0.7-0.7-1.3-1.1-2c-0.8-1.4-1.4-2.9-2.4-4.3c-0.9-1.4-1.9-2.8-2.9-4.4
				c-1.1-1.4-2.3-2.8-3.6-4.3c-5.1-5.7-11.9-11.1-20.1-14.8c-1-0.4-2.1-0.8-3.1-1.3c-1.1-0.4-2.1-0.9-3.2-1.2
				c-2.2-0.6-4.4-1.4-6.8-1.8c-1.2-0.2-2.3-0.5-3.5-0.7c-1.2-0.1-2.4-0.2-3.6-0.3l-1.8-0.2c-0.6-0.1-1.2,0-1.8,0c-1.2,0-2.4,0-3.6,0
				c-0.6,0-1.3,0.1-1.9,0.1l-2,0.2l-2,0.2l-1,0.1c-0.3,0,0.2,0,0.1,0h-0.1h-0.2l-0.5,0.1c-2.5,0.6-5.1,0.9-7.5,1.8
				c-5,1.4-9.9,3.8-14.5,6.7c-4.9,3.2-9.1,7-13.1,11.2c-3.8,4.3-7.1,9.2-9.9,14.6c-2.6,5.4-4.5,11.3-5.7,17.4l-0.6,4.6l-0.2,1.2v1.1
				l-0.1,2.3l-0.1,2.3c-0.1,0.7,0.1,1.6,0.1,2.4l0.3,5c0-0.4,0,0,0-0.1v0.1v0.3l0.1,0.6l0.2,1.2l0.3,2.3c0.2,1.6,0.6,3.1,1,4.6
				l0.6,2.3l0.3,1.1l0.4,1.1l1.6,4.4c2.4,5.7,5.4,11.1,9.1,15.9c3.8,4.7,8.1,8.9,12.9,12.3c1.2,0.9,2.5,1.6,3.7,2.4l1.8,1.2l1.9,1
				c1.3,0.6,2.5,1.3,3.9,1.9c1.3,0.5,2.7,1,4,1.5c5.3,1.7,10.9,2.9,16.2,3c2.6,0.3,5.5-0.1,8.2-0.2l0.9-0.1l1-0.2l1.9-0.3
				c1.3-0.2,2.6-0.3,3.9-0.7c10.1-2.5,19.1-7.3,26.3-13.4c7.1-6.2,12.3-13.5,15.8-20.7c0.8-1.8,1.6-3.6,2.3-5.3
				c0.6-1.8,1.2-3.5,1.7-5.1c0.5-1.7,0.8-3.3,1.2-4.9c0.2-0.8,0.3-1.5,0.5-2.3c0.1-0.8,0.2-1.5,0.3-2.2c0.2-1.4,0.3-2.8,0.5-4.1
				c0.1-1.3,0.1-2.5,0.1-3.6s0-2.2,0.1-3.1c0-0.9-0.1-1.8-0.2-2.6C165.9,111,165.8,109.3,165.8,109.3L165.8,109.3z"/>
		</g>
		
			<radialGradient id="SVGID_2_" cx="161.6449" cy="-489.8193" r="128.8637" gradientTransform="matrix(0.6285 0.6285 0.6285 -0.6285 270.1251 -334.3278)" gradientUnits="userSpaceOnUse">
			<stop  offset="0.6" style="stop-color:#A8D7EF;stop-opacity:0"/>
			<stop  offset="1" style="stop-color:#A8D7EF"/>
		</radialGradient>
		<path class="st3" d="M179.8,46.4c23.7,23.7,10.6,75.4-29.3,115.3s-91.6,53-115.3,29.3c-16.1-16.1-15.8-45.8,0.9-77.3
			c7.1-13.5,16.7-26.3,28.4-38c10.5-10.6,22-19.4,34.2-26.3C131.3,30.9,163.1,29.7,179.8,46.4 M181.3,44.8
			c-17.9-17.9-51-15.6-83.4,2.8C86,54.4,74.1,63.4,63.1,74.4C51,86.5,41.3,99.7,34.3,113c-16.5,31.2-17.9,62.4-0.7,79.6
			C58.1,217,116.2,209,157,168.2S205.8,69.3,181.3,44.8L181.3,44.8z"/>
		<path class="st4" d="M107.5,16.9c56.2,0,101.8,45.7,101.8,101.8s-45.7,101.8-101.8,101.8S5.6,174.9,5.6,118.7
			S51.3,16.9,107.5,16.9 M107.5,14.2C49.8,14.2,3,61,3,118.7s46.8,104.5,104.5,104.5S212,176.4,212,118.7S165.2,14.2,107.5,14.2
			L107.5,14.2z"/>
	</g>
	<g>
		<path class="st5" d="M272.1,195.1h-3.9V55.3h3.9v65H370v-65h3.9v139.8H370v-70.9h-97.9V195.1z"/>
		<path class="st5" d="M386.7,195.1h-4.3L439,55.3h5.1l55.2,139.8H495l-18.4-46h-71.3L386.7,195.1z M441.7,59.2h-0.4l-34.5,86H475
			L441.7,59.2z"/>
		<path class="st5" d="M507.7,195.1V55.3h57.2c14.6,0,25.3,2.9,32.1,8.7s10.3,14.9,10.6,27.1c0.3,9.4-2.2,17.2-7.4,23.4
			s-12.7,10.4-22.5,12.6v0.4c5.9,0.8,10.6,2.2,14.3,4.2s6.5,4.7,8.4,7.9c2,3.3,3.3,7.1,3.9,11.6c0.7,4.4,1,9.5,1,15.1
			c0,2,0.1,4.4,0.2,7.3c0.1,2.9,0.3,5.8,0.6,8.7s0.6,5.5,1,7.8c0.4,2.4,0.9,4,1.6,4.9h-4.3c-0.7-1.4-1.2-3.4-1.6-5.8
			c-0.4-2.4-0.7-5-0.9-7.7s-0.3-5.5-0.4-8.3c-0.1-2.8-0.1-5.3-0.1-7.5c0-5.7-0.4-10.9-1.3-15.4c-0.8-4.5-2.6-8.3-5.2-11.4
			c-2.6-3.1-6.3-5.4-11.2-7.1c-4.8-1.6-11.3-2.4-19.4-2.4h-52.7V195h-3.9V195.1z M564,125.6c5.2,0,10.2-0.7,15-2s9-3.4,12.6-6.3
			c3.7-2.9,6.6-6.5,8.8-10.9s3.3-9.6,3.3-15.8c-0.1-9.9-3.1-17.7-9-23.2s-15.5-8.3-28.8-8.3h-54.3v66.4L564,125.6L564,125.6z"/>
		<path class="st5" d="M759,55.3v139.8h-3.9V60.2h-0.4l-59.3,134.9h-4.3L631.7,60.2h-0.4v134.9h-3.9V55.3h6.5L693,190.1h0.4
			l59.2-134.8C752.6,55.3,759,55.3,759,55.3z"/>
		<path class="st5" d="M775.9,125.2c0-9.9,1.4-19.3,4.2-28.2s6.9-16.6,12.3-23.3c5.4-6.7,12.1-11.9,20.2-15.9
			c8-3.9,17.3-5.9,27.7-5.9s19.7,2,27.7,5.9s14.8,9.2,20.2,15.9c5.4,6.7,9.5,14.4,12.3,23.3s4.2,18.3,4.2,28.2s-1.4,19.3-4.2,28.2
			s-6.9,16.6-12.3,23.3c-5.4,6.7-12.1,11.9-20.2,15.8c-8,3.9-17.3,5.8-27.7,5.8s-19.7-1.9-27.7-5.8c-8-3.8-14.8-9.1-20.2-15.8
			s-9.5-14.4-12.3-23.3C777.3,144.5,775.9,135.1,775.9,125.2z M779.8,125.2c0.1,10.1,1.6,19.3,4.4,27.8c2.8,8.5,6.8,15.8,11.9,21.9
			c5.2,6.1,11.5,10.9,18.9,14.4s15.9,5.2,25.3,5.2c9.4,0,17.8-1.7,25.3-5.2c7.4-3.5,13.7-8.3,18.9-14.4c5.2-6.1,9.1-13.4,11.9-21.9
			c2.8-8.5,4.3-17.8,4.4-27.8c-0.1-10.1-1.6-19.3-4.4-27.8c-2.8-8.5-6.8-15.8-11.9-21.9c-5.2-6.1-11.5-10.9-18.9-14.4
			s-15.9-5.2-25.3-5.2c-9.4,0-17.8,1.7-25.3,5.2c-7.4,3.5-13.7,8.3-18.9,14.4S787,89,784.2,97.4
			C781.4,105.9,779.9,115.2,779.8,125.2z"/>
		<path class="st5" d="M927.3,55.3l95.6,134.9h0.4V55.3h3.9v139.8h-5.9L925.7,60.2h-0.4v134.9h-3.9V55.3H927.3z"/>
		<path class="st5" d="M1149,55.3l-56.6,80.9v59h-3.9v-59l-56.4-80.9h4.9l53.5,76.8l53.9-76.8C1144.4,55.3,1149,55.3,1149,55.3z"/>
	</g>
</g>
</svg>
