<?xml version="1.0" encoding="utf-8"?>
<!-- Generator: Adobe Illustrator 22.1.0, SVG Export Plug-In . SVG Version: 6.00 Build 0)  -->
<svg version="1.1" id="Layer_2_1_" xmlns="http://www.w3.org/2000/svg" xmlns:xlink="http://www.w3.org/1999/xlink" x="0px" y="0px"
	 viewBox="0 0 217 56" style="enable-background:new 0 0 217 56;" xml:space="preserve">
<style type="text/css">
	.st0{fill:url(#SVGID_1_);}
	.st1{fill:#259CD7;}
	.st2{fill:#004D8D;}
	.st3{fill:url(#SVGID_2_);}
	.st4{fill:#A8D7EF;}
	.st5{fill:#FFFFFF;}
</style>
<g>
	<g>
		
			<linearGradient id="SVGID_1_" gradientUnits="userSpaceOnUse" x1="13.6" y1="-180" x2="43.2957" y2="-180" gradientTransform="matrix(1 0 0 1 0 208)">
			<stop  offset="0" style="stop-color:#A8D7EF;stop-opacity:0.5"/>
			<stop  offset="0.5" style="stop-color:#A8D7EF"/>
		</linearGradient>
		<path class="st0" d="M28,10.4c7.7,0,14,7.9,14,17.6s-6.3,17.6-14,17.6S14,37.7,14,28S20.3,10.4,28,10.4 M28,10
			c-8,0-14.4,8.1-14.4,18S20,46,28,46s15.3-8.1,15.3-18S35.9,10,28,10L28,10z"/>
		<g>
			<path class="st1" d="M14.8,24.9c0,0,0.1-0.3,0.2-0.9c0-0.2,0.1-0.3,0.1-0.5c0.1-0.2,0.1-0.4,0.2-0.6c0.1-0.2,0.2-0.4,0.2-0.7
				c0.1-0.2,0.2-0.5,0.3-0.7c0.5-1,1.2-2.3,2.3-3.4c1.1-1.2,2.5-2.3,4.2-3.2c1.8-0.8,3.9-1.3,6.1-1.3c0.3,0,0.6,0.1,0.8,0.1l0.4,0.1
				l0.2,0l0.2,0.1c0.6,0.1,1.1,0.2,1.7,0.4c0.3,0.1,0.6,0.2,0.9,0.3c0.3,0.1,0.6,0.3,0.8,0.4c0.3,0.1,0.6,0.3,0.8,0.5l0.4,0.2
				l0.2,0.1l0.2,0.1c1.1,0.7,2,1.7,2.9,2.8c0.2,0.3,0.4,0.6,0.6,0.8c0.1,0.1,0.2,0.3,0.3,0.4l0.3,0.4l0.3,0.5
				c0.1,0.2,0.2,0.3,0.2,0.5c0.2,0.3,0.3,0.7,0.4,1c0.5,1.3,0.9,2.8,1,4.3l0.1,1.1l0,0.3l0,0.3l0,0.6c0,0.4,0,0.7-0.1,1.1l-0.1,0.6
				l0,0.3l0,0.1l0,0.1v0c0,0.1,0-0.1,0,0.1l-0.2,1l-0.1,0.2c0,0.1,0,0.2-0.1,0.3l-0.2,0.6l-0.2,0.6L40.3,34l-0.1,0.3
				c-0.2,0.3-0.3,0.7-0.5,1c-0.7,1.3-1.6,2.4-2.6,3.4c-0.3,0.2-0.5,0.5-0.8,0.7c-0.1,0.1-0.3,0.2-0.4,0.3L35.5,40l-0.4,0.3
				c-0.1,0.1-0.3,0.2-0.4,0.3c-0.3,0.2-0.6,0.3-0.9,0.5c-1.2,0.6-2.5,1-3.7,1.2s-2.5,0.2-3.7,0c-0.6-0.1-1.2-0.2-1.8-0.4l-0.1,0
				l-0.1,0h0c0,0-0.1,0-0.1,0l-0.2-0.1l-0.4-0.1l-0.4-0.1c-0.1-0.1-0.3-0.1-0.4-0.2c-0.3-0.1-0.5-0.3-0.8-0.4
				c-0.1-0.1-0.3-0.1-0.4-0.2l-0.4-0.2c-0.2-0.1-0.5-0.3-0.7-0.4c-0.2-0.2-0.4-0.3-0.7-0.5c-0.4-0.3-0.8-0.7-1.2-1
				c-0.2-0.2-0.4-0.4-0.5-0.6c-0.2-0.2-0.3-0.4-0.5-0.6c-1.3-1.6-2.1-3.2-2.6-4.8c-0.5-1.6-0.7-3-0.7-4.1c0-0.3,0-0.6,0-0.8
				s0-0.5,0-0.7c0-0.2,0-0.4,0-0.6c0-0.2,0.1-0.4,0.1-0.5C14.7,25.3,14.8,24.9,14.8,24.9z M14.9,25c0,0-0.1,0.3-0.1,0.9
				c0,0.2-0.1,0.3-0.1,0.5c0,0.2,0,0.4,0,0.6c0,0.2,0,0.5,0,0.7c0,0.3,0,0.5,0,0.8c0.1,1.2,0.3,2.6,0.9,4c0.6,1.5,1.5,3,2.8,4.4
				c0.7,0.7,1.4,1.3,2.3,1.8c0.2,0.1,0.4,0.3,0.6,0.4c0.2,0.1,0.4,0.2,0.7,0.3l0.3,0.2c0.1,0.1,0.2,0.1,0.3,0.1
				c0.2,0.1,0.5,0.2,0.7,0.2c0.1,0.1,0.2,0.1,0.4,0.1l0.4,0.1l0.4,0.1l0.2,0.1c0,0,0,0,0,0h0h0.1l0.1,0c0.5,0.1,1,0.1,1.6,0.1
				c1.1,0,2.1-0.2,3.2-0.4c0.3-0.1,0.5-0.2,0.8-0.3s0.5-0.2,0.8-0.3l0.4-0.2l0.4-0.2c0.2-0.1,0.5-0.3,0.7-0.4
				c0.9-0.6,1.8-1.3,2.5-2.2l0.6-0.7c0.1-0.1,0.2-0.2,0.3-0.3l0.2-0.3l0.2-0.3c0.1-0.1,0.1-0.2,0.2-0.4c0.1-0.3,0.3-0.5,0.4-0.8
				c0.1-0.3,0.2-0.5,0.4-0.8l0.1-0.2l0.1-0.2l0.1-0.4l0.1-0.4c0-0.1,0.1-0.1,0.1-0.2l0.1-0.2l0.2-1c0,0.2,0,0,0,0.1v0v-0.1l0-0.1
				l0-0.2l0.1-0.4c0.1-0.3,0.1-0.6,0.1-0.9c0.1-0.6,0-1.2,0-1.8c0-0.3-0.1-0.6-0.1-0.9c0-0.1,0-0.3-0.1-0.4l-0.1-0.4l-0.1-0.4
				c0-0.1-0.1-0.3-0.1-0.4c-0.1-0.3-0.2-0.6-0.2-0.8c-0.4-1.1-0.9-2.1-1.5-3.1c-0.2-0.2-0.3-0.5-0.5-0.7c-0.1-0.1-0.2-0.2-0.3-0.3
				L35.3,19c-0.2-0.2-0.4-0.4-0.6-0.6c-0.2-0.2-0.4-0.4-0.6-0.6L34,17.7l-0.2-0.1l-0.3-0.3c-0.2-0.2-0.4-0.3-0.7-0.5
				s-0.5-0.3-0.7-0.4c-0.2-0.1-0.5-0.2-0.7-0.4c-0.4-0.2-1-0.4-1.5-0.6l-0.1,0l-0.1,0l0,0c0,0,0.1,0,0,0l-0.2-0.1l-0.4-0.1
				c-0.3-0.1-0.5-0.1-0.8-0.2S28,15,27.7,14.9c-0.1,0-0.3,0-0.4-0.1c-0.1,0-0.3,0-0.4,0c-0.3,0-0.5,0-0.7,0c-0.2,0-0.5,0-0.7,0.1
				c-1,0.1-1.9,0.3-2.8,0.6c-1.7,0.7-3.2,1.7-4.3,2.8c-1.1,1.1-1.9,2.3-2.4,3.3c-0.1,0.3-0.2,0.5-0.4,0.7c-0.1,0.2-0.2,0.5-0.3,0.7
				c-0.1,0.2-0.2,0.4-0.2,0.6c-0.1,0.2-0.1,0.3-0.1,0.5C15,24.7,14.9,25,14.9,25z"/>
		</g>
		<g>
			<path class="st2" d="M18.5,18.5c0,0,0.2-0.2,0.6-0.6c0.1-0.1,0.2-0.2,0.4-0.3c0.1-0.1,0.3-0.2,0.5-0.4c0.2-0.1,0.3-0.3,0.5-0.4
				c0.2-0.1,0.4-0.3,0.6-0.4c0.9-0.6,2.1-1.2,3.6-1.5c1.4-0.3,3.2-0.5,5-0.1c1.8,0.4,3.7,1.2,5.4,2.7c0.2,0.2,0.4,0.4,0.6,0.6
				l0.3,0.3l0.2,0.1c0.1,0.1,0.1,0.1,0.1,0.2c0.3,0.4,0.7,0.8,1,1.3c0.7,0.9,1.2,2,1.6,3.2c0.1,0.3,0.2,0.6,0.3,0.9
				c0.1,0.3,0.1,0.6,0.2,0.9l0.1,0.4l0.1,0.5c0,0.3,0.1,0.6,0.1,0.9c0.1,1.3,0,2.5-0.2,3.8c-0.2,1.3-0.7,2.5-1.2,3.6
				c-0.6,1.2-1.3,2.2-2.1,3.2c-0.5,0.4-0.9,0.9-1.4,1.3l-0.4,0.3L34.2,39L34,39.1l-0.8,0.5c-1.1,0.6-2.2,1.1-3.4,1.4
				c-1.2,0.2-2.4,0.3-3.6,0.2c-0.3,0-0.6-0.1-0.9-0.1c-0.2,0-0.3,0-0.4-0.1L24.4,41c-0.3-0.1-0.6-0.1-0.9-0.2
				c-0.3-0.1-0.6-0.2-0.8-0.3c-1.1-0.4-2.1-1-3-1.8c-0.5-0.3-0.9-0.8-1.3-1.1c-0.1-0.1-0.1-0.1-0.2-0.2l-0.1-0.2l-0.3-0.3
				c-0.2-0.2-0.4-0.4-0.5-0.6c-1.3-1.8-2.1-3.8-2.5-5.8c-0.3-1.9-0.2-3.8,0.1-5.3c0.3-1.6,0.9-2.8,1.4-3.8c0.1-0.2,0.3-0.5,0.4-0.7
				c0.1-0.2,0.3-0.4,0.4-0.6c0.1-0.2,0.2-0.3,0.3-0.5c0.1-0.2,0.2-0.3,0.3-0.4C18.3,18.7,18.5,18.5,18.5,18.5L18.5,18.5z M18.5,18.5
				c0,0-0.2,0.2-0.6,0.7c-0.1,0.1-0.2,0.2-0.3,0.4c-0.1,0.2-0.2,0.3-0.3,0.5c-0.1,0.2-0.3,0.4-0.4,0.6c-0.1,0.2-0.2,0.4-0.4,0.7
				c-0.5,1-1,2.3-1.3,3.8c-0.3,1.5-0.3,3.3,0.1,5.2c0.4,1.9,1.2,3.8,2.4,5.5c0.2,0.2,0.3,0.4,0.5,0.6l0.3,0.3l0.1,0.2l0.1,0.1
				c0.4,0.4,0.8,0.8,1.2,1.1c0.8,0.7,1.8,1.2,2.8,1.7c0.3,0.1,0.5,0.2,0.8,0.3c0.3,0.1,0.5,0.2,0.8,0.2l0.4,0.1
				c0.1,0,0.3,0.1,0.4,0.1c0.3,0,0.6,0.1,0.8,0.1c1.1,0.1,2.3,0,3.5-0.2c1.2-0.2,2.3-0.7,3.3-1.2c1.1-0.6,2-1.3,2.9-2.2
				c0.8-0.9,1.6-1.9,2.2-3c0.6-1.1,1-2.3,1.2-3.6c0.2-1.2,0.3-2.5,0.2-3.7c0-0.3-0.1-0.6-0.1-0.9c0-0.2,0-0.3-0.1-0.4l-0.1-0.4
				C39,24.5,39,24.2,38.9,24c-0.1-0.3-0.2-0.6-0.3-0.8c-0.4-1.1-1-2.2-1.6-3c-0.3-0.5-0.7-0.9-1.1-1.3c0-0.1-0.1-0.1-0.1-0.2
				l-0.1-0.1l-0.3-0.3c-0.2-0.2-0.4-0.4-0.6-0.5c-1.6-1.3-3.4-2.2-5.2-2.6c-1.7-0.4-3.4-0.4-4.9-0.1c-1.4,0.3-2.6,0.8-3.6,1.4
				c-0.2,0.1-0.4,0.3-0.7,0.4c-0.2,0.2-0.4,0.3-0.5,0.4c-0.2,0.1-0.3,0.2-0.5,0.4c-0.1,0.1-0.3,0.2-0.4,0.3
				C18.8,18.3,18.5,18.5,18.5,18.5L18.5,18.5z"/>
		</g>
		<g>
			<path class="st2" d="M38.2,26.4c0,0,0,0.3,0.1,0.8c0,0.1,0,0.3,0,0.4s0,0.3,0,0.6c0,0.2,0,0.4,0,0.6s-0.1,0.5-0.1,0.7
				c-0.1,1-0.4,2.2-1,3.5c-0.6,1.3-1.4,2.7-2.6,3.8c-1.2,1.2-2.8,2.2-4.7,2.7c-0.2,0.1-0.5,0.1-0.7,0.2l-0.4,0.1l-0.2,0h-0.1h0h-0.1
				h-0.1C27.9,39.9,27.5,40,27,40c-1,0-2-0.2-3.1-0.5c-0.3-0.1-0.5-0.2-0.8-0.3s-0.5-0.2-0.7-0.3L22,38.7l-0.3-0.2
				c-0.2-0.1-0.5-0.3-0.7-0.4c-0.9-0.6-1.8-1.4-2.5-2.3c-0.7-0.9-1.3-1.9-1.8-3L16.3,32l-0.1-0.2l-0.1-0.2L16,31.2
				c-0.1-0.3-0.2-0.6-0.2-0.9l-0.1-0.4l0-0.2l0-0.1l0-0.1v0c0,0,0,0,0-0.1l-0.1-0.9c0-0.2,0-0.3-0.1-0.4v-0.5v-0.5v-0.2l0.1-0.2
				l0.1-0.9c0.2-1.2,0.5-2.4,1-3.5c0.5-1.1,1.1-2.1,1.9-3c0.2-0.2,0.4-0.4,0.6-0.6c0.1-0.1,0.2-0.2,0.3-0.3l0.3-0.3
				c0.2-0.2,0.4-0.4,0.7-0.5c0.2-0.2,0.5-0.3,0.7-0.5c0.9-0.6,1.9-1.1,2.9-1.3c0.5-0.2,1-0.2,1.5-0.3l0.1,0h0.1h0c0,0,0.1-0.1,0.1,0
				l0.2,0l0.3,0l0.3,0c0.1,0,0.2,0,0.4,0c0.3,0,0.5,0,0.8,0c0.1,0,0.3,0,0.4,0l0.4,0.1c0.2,0,0.5,0.1,0.7,0.1
				c0.2,0.1,0.4,0.1,0.7,0.2c0.9,0.2,1.7,0.7,2.5,1.1c1.5,0.9,2.6,2.1,3.4,3.2c0.8,1.1,1.3,2.3,1.7,3.2c0.1,0.2,0.2,0.5,0.2,0.7
				c0.1,0.2,0.1,0.4,0.2,0.6s0.1,0.4,0.1,0.5c0,0.2,0.1,0.3,0.1,0.4C38.2,26.1,38.2,26.4,38.2,26.4L38.2,26.4z M38,26.4
				c0,0-0.1-0.3-0.2-0.8c0-0.1-0.1-0.3-0.1-0.4c-0.1-0.2-0.1-0.3-0.2-0.5c-0.1-0.2-0.1-0.4-0.2-0.6c-0.1-0.2-0.2-0.4-0.3-0.6
				c-0.1-0.1-0.1-0.2-0.1-0.3c-0.1-0.1-0.1-0.2-0.2-0.3c-0.1-0.2-0.2-0.5-0.4-0.7c-0.2-0.2-0.3-0.5-0.5-0.8
				c-0.2-0.2-0.4-0.5-0.6-0.7c-0.9-1-2-1.9-3.5-2.5c-0.2-0.1-0.4-0.1-0.5-0.2c-0.2-0.1-0.4-0.2-0.6-0.2c-0.4-0.1-0.8-0.2-1.2-0.3
				c-0.2,0-0.4-0.1-0.6-0.1c-0.2,0-0.4,0-0.6-0.1l-0.3,0c-0.1,0-0.2,0-0.3-0.1h-0.6C27.1,17,26.9,17,26.8,17l-0.3,0l-0.3,0l-0.2,0h0
				h0h0l-0.1,0c-0.4,0.1-0.9,0.2-1.3,0.3c-0.9,0.2-1.7,0.7-2.5,1.2c-0.8,0.6-1.6,1.2-2.3,1.9c-0.7,0.7-1.2,1.6-1.7,2.5
				c-0.4,0.9-0.8,1.9-1,3L17,26.8L16.9,27v0.2l0.1,0.4l0,0.4c0,0.1,0,0.3,0,0.4l0.1,0.9v0v0v0.1l0,0.1l0,0.2l0.1,0.4
				c0,0.3,0.1,0.5,0.2,0.8l0.1,0.4l0.1,0.2l0.1,0.2l0.3,0.8c0.4,1,0.9,1.9,1.6,2.7c0.7,0.8,1.4,1.5,2.2,2.1c0.2,0.2,0.4,0.3,0.6,0.4
				l0.3,0.2l0.3,0.2c0.2,0.1,0.4,0.2,0.7,0.3c0.2,0.1,0.5,0.2,0.7,0.3c0.9,0.3,1.9,0.5,2.8,0.5c0.4,0.1,0.9,0,1.4,0l0.2,0l0.2,0
				l0.3-0.1c0.2,0,0.4-0.1,0.7-0.1c1.7-0.4,3.3-1.3,4.5-2.3c1.2-1.1,2.1-2.3,2.7-3.6c0.1-0.3,0.3-0.6,0.4-0.9
				c0.1-0.3,0.2-0.6,0.3-0.9c0.1-0.3,0.1-0.6,0.2-0.8c0-0.1,0.1-0.3,0.1-0.4c0-0.1,0-0.3,0.1-0.4c0-0.2,0.1-0.5,0.1-0.7
				c0-0.2,0-0.4,0-0.6s0-0.4,0-0.5c0-0.2,0-0.3,0-0.4C38.1,26.7,38,26.4,38,26.4L38,26.4z"/>
		</g>
		
			<radialGradient id="SVGID_2_" cx="118.9852" cy="979.4415" r="25.8624" gradientTransform="matrix(0.5394 0.5394 -0.5394 0.5394 484.6276 -572.0151)" gradientUnits="userSpaceOnUse">
			<stop  offset="0.6" style="stop-color:#A8D7EF;stop-opacity:0"/>
			<stop  offset="1" style="stop-color:#A8D7EF"/>
		</radialGradient>
		<path class="st3" d="M40.5,15.5c4.1,4.1,1.8,13-5,19.9s-15.8,9.1-19.9,5c-2.8-2.8-2.7-7.9,0.2-13.3c1.2-2.3,2.9-4.5,4.9-6.5
			c1.8-1.8,3.8-3.3,5.9-4.5C32.1,12.9,37.6,12.7,40.5,15.5 M40.7,15.3c-3.1-3.1-8.8-2.7-14.4,0.5c-2,1.2-4.1,2.7-6,4.6
			c-2.1,2.1-3.8,4.4-5,6.6c-2.8,5.4-3.1,10.7-0.1,13.7c4.2,4.2,14.2,2.8,21.3-4.2S44.9,19.5,40.7,15.3L40.7,15.3z"/>
		<path class="st4" d="M28,10.5c9.7,0,17.5,7.9,17.5,17.5S37.7,45.5,28,45.5S10.4,37.7,10.4,28S18.3,10.5,28,10.5 M28,10
			c-9.9,0-18,8.1-18,18s8.1,18,18,18s18-8.1,18-18S37.9,10,28,10L28,10z"/>
	</g>
	<g>
		<path class="st5" d="M56.4,41.2h-0.7V17.1h0.7v11.2h16.9V17.1h0.7v24.1h-0.7V28.9H56.4V41.2z"/>
		<path class="st5" d="M76.1,41.2h-0.7l9.7-24.1H86l9.5,24.1h-0.7l-3.2-7.9H79.3L76.1,41.2z M85.6,17.8L85.6,17.8l-6,14.8h11.7
			L85.6,17.8z"/>
		<path class="st5" d="M96.9,41.2V17.1h9.9c2.5,0,4.4,0.5,5.5,1.5c1.2,1,1.8,2.6,1.8,4.7c0.1,1.6-0.4,3-1.3,4
			c-0.9,1.1-2.2,1.8-3.9,2.2v0.1c1,0.1,1.8,0.4,2.5,0.7s1.1,0.8,1.4,1.4c0.3,0.6,0.6,1.2,0.7,2c0.1,0.8,0.2,1.6,0.2,2.6
			c0,0.3,0,0.8,0,1.3c0,0.5,0.1,1,0.1,1.5c0.1,0.5,0.1,0.9,0.2,1.3c0.1,0.4,0.2,0.7,0.3,0.8h-0.7c-0.1-0.2-0.2-0.6-0.3-1
			c-0.1-0.4-0.1-0.9-0.2-1.3c0-0.5-0.1-0.9-0.1-1.4c0-0.5,0-0.9,0-1.3c0-1-0.1-1.9-0.2-2.7c-0.1-0.8-0.4-1.4-0.9-2
			c-0.4-0.5-1.1-0.9-1.9-1.2c-0.8-0.3-1.9-0.4-3.3-0.4h-9.1v11.3L96.9,41.2L96.9,41.2L96.9,41.2z M106.6,29.2c0.9,0,1.8-0.1,2.6-0.3
			c0.8-0.2,1.6-0.6,2.2-1.1c0.6-0.5,1.1-1.1,1.5-1.9c0.4-0.8,0.6-1.7,0.6-2.7c0-1.7-0.5-3-1.6-4s-2.7-1.4-5-1.4h-9.4v11.4
			L106.6,29.2L106.6,29.2z"/>
		<path class="st5" d="M140.2,17.1v24.1h-0.7V17.9h-0.1l-10.2,23.2h-0.7l-10.2-23.2h-0.1v23.2h-0.7V17.1h1.1l10.2,23.2h0.1
			l10.2-23.2C139.1,17.1,140.2,17.1,140.2,17.1z"/>
		<path class="st5" d="M143.1,29.1c0-1.7,0.2-3.3,0.7-4.9c0.5-1.5,1.2-2.9,2.1-4c0.9-1.2,2.1-2,3.5-2.7c1.4-0.7,3-1,4.8-1
			c1.8,0,3.4,0.3,4.8,1c1.4,0.7,2.5,1.6,3.5,2.7c0.9,1.2,1.6,2.5,2.1,4c0.5,1.5,0.7,3.2,0.7,4.9c0,1.7-0.2,3.3-0.7,4.9
			c-0.5,1.5-1.2,2.9-2.1,4c-0.9,1.2-2.1,2-3.5,2.7c-1.4,0.7-3,1-4.8,1c-1.8,0-3.4-0.3-4.8-1c-1.4-0.7-2.5-1.6-3.5-2.7
			c-0.9-1.2-1.6-2.5-2.1-4C143.4,32.4,143.1,30.8,143.1,29.1z M143.8,29.1c0,1.7,0.3,3.3,0.8,4.8c0.5,1.5,1.2,2.7,2,3.8
			c0.9,1.1,2,1.9,3.3,2.5s2.7,0.9,4.4,0.9s3.1-0.3,4.4-0.9c1.3-0.6,2.4-1.4,3.3-2.5c0.9-1.1,1.6-2.3,2-3.8s0.7-3.1,0.8-4.8
			c0-1.7-0.3-3.3-0.8-4.8c-0.5-1.5-1.2-2.7-2-3.8c-0.9-1.1-2-1.9-3.3-2.5c-1.3-0.6-2.7-0.9-4.4-0.9c-1.6,0-3.1,0.3-4.4,0.9
			c-1.3,0.6-2.4,1.4-3.3,2.5c-0.9,1.1-1.6,2.3-2,3.8C144.1,25.8,143.8,27.4,143.8,29.1z"/>
		<path class="st5" d="M169.2,17.1l16.5,23.2h0.1V17.1h0.7v24.1h-1l-16.5-23.2h-0.1v23.2h-0.7V17.1H169.2z"/>
		<path class="st5" d="M207.4,17.1L197.6,31v10.2H197V31l-9.7-13.9h0.8l9.2,13.2l9.3-13.2C206.6,17.1,207.4,17.1,207.4,17.1z"/>
	</g>
</g>
</svg>
